<svg width="87" height="87" viewBox="0 0 87 87" fill="none" xmlns="http://www.w3.org/2000/svg">
<g filter="url(#filter0_d_134_90)">
<rect x="20" y="10" width="47" height="47" rx="15" fill="url(#paint0_linear_134_90)"/>
</g>
<g clip-path="url(#clip0_134_90)">
<path fill-rule="evenodd" clip-rule="evenodd" d="M38.4502 18.5454C38.9469 18.5454 39.3495 18.948 39.3495 19.4446V21.2931H48.5416V19.4446C48.5416 18.948 48.9442 18.5454 49.4409 18.5454C49.9375 18.5454 50.3401 18.948 50.3401 19.4446V21.2931H53.5624C55.5765 21.2931 57.2093 22.9258 57.2093 24.94V44.1736C57.2093 46.1877 55.5765 47.8205 53.5624 47.8205H34.3287C32.3146 47.8205 30.6818 46.1877 30.6818 44.1736V24.94C30.6818 22.9258 32.3146 21.2931 34.3287 21.2931H37.551V19.4446C37.551 18.948 37.9536 18.5454 38.4502 18.5454ZM37.551 23.0915H34.3287C33.3079 23.0915 32.4803 23.9191 32.4803 24.94V29.5361H55.4108V24.94C55.4108 23.9191 54.5832 23.0915 53.5624 23.0915H50.3401V24.94C50.3401 25.4366 49.9375 25.8392 49.4409 25.8392C48.9442 25.8392 48.5416 25.4366 48.5416 24.94V23.0915H39.3495V24.94C39.3495 25.4366 38.9469 25.8392 38.4502 25.8392C37.9536 25.8392 37.551 25.4366 37.551 24.94V23.0915ZM55.4108 31.3345H32.4803V44.1736C32.4803 45.1945 33.3079 46.022 34.3287 46.022H53.5624C54.5832 46.022 55.4108 45.1945 55.4108 44.1736V31.3345Z" fill="white" stroke="white" stroke-linecap="round" stroke-linejoin="round"/>
</g>
<defs>
<filter id="filter0_d_134_90" x="0" y="0" width="87" height="87" filterUnits="userSpaceOnUse" color-interpolation-filters="sRGB">
<feFlood flood-opacity="0" result="BackgroundImageFix"/>
<feColorMatrix in="SourceAlpha" type="matrix" values="0 0 0 0 0 0 0 0 0 0 0 0 0 0 0 0 0 0 127 0" result="hardAlpha"/>
<feMorphology radius="2" operator="erode" in="SourceAlpha" result="effect1_dropShadow_134_90"/>
<feOffset dy="10"/>
<feGaussianBlur stdDeviation="11"/>
<feColorMatrix type="matrix" values="0 0 0 0 0.427083 0 0 0 0 0.671455 0 0 0 0 1 0 0 0 0.36 0"/>
<feBlend mode="normal" in2="BackgroundImageFix" result="effect1_dropShadow_134_90"/>
<feBlend mode="normal" in="SourceGraphic" in2="effect1_dropShadow_134_90" result="shape"/>
</filter>
<linearGradient id="paint0_linear_134_90" x1="29.6136" y1="10" x2="52.0455" y2="57" gradientUnits="userSpaceOnUse">
<stop offset="0.0989583" stop-color="#6B98D3"/>
<stop offset="1" stop-color="#08326A"/>
</linearGradient>
<clipPath id="clip0_134_90">
<rect width="29.375" height="29.375" fill="white" transform="translate(29.0796 18.5454)"/>
</clipPath>
</defs>
</svg>
