<svg width="87" height="87" viewBox="0 0 87 87" fill="none" xmlns="http://www.w3.org/2000/svg">
<g filter="url(#filter0_d_134_96)">
<rect x="20" y="10" width="47" height="47" rx="15" fill="url(#paint0_linear_134_96)"/>
</g>
<g clip-path="url(#clip0_134_96)">
<path fill-rule="evenodd" clip-rule="evenodd" d="M38.9052 21.6131C39.503 21.0168 40.3137 20.6818 41.1591 20.6818H46.375C47.2204 20.6818 48.0311 21.0168 48.6289 21.6131C49.2267 22.2093 49.5625 23.018 49.5625 23.8613V25.8845H54.1989C55.9593 25.8845 57.3864 27.308 57.3864 29.0639V42.0706C57.3864 43.8266 55.9593 45.25 54.1989 45.25H33.3352C31.5748 45.25 30.1477 43.8266 30.1477 42.0706V29.0639C30.1477 27.308 31.5748 25.8845 33.3352 25.8845H37.9716V23.8613C37.9716 23.018 38.3074 22.2093 38.9052 21.6131ZM37.9716 27.0407H33.3352C32.215 27.0407 31.3068 27.9465 31.3068 29.0639V42.0706C31.3068 43.188 32.215 44.0939 33.3352 44.0939H37.9716V27.0407ZM39.1307 44.0939V27.0407H48.4034V44.0939H39.1307ZM49.5625 44.0939H54.1989C55.3191 44.0939 56.2273 43.188 56.2273 42.0706V29.0639C56.2273 27.9465 55.3191 27.0407 54.1989 27.0407H49.5625V44.0939ZM48.4034 25.8845H39.1307V23.8613C39.1307 23.3247 39.3444 22.81 39.7248 22.4306C40.1052 22.0512 40.6211 21.838 41.1591 21.838H46.375C46.913 21.838 47.4289 22.0512 47.8093 22.4306C48.1897 22.81 48.4034 23.3247 48.4034 23.8613V25.8845Z" fill="white"/>
<path fill-rule="evenodd" clip-rule="evenodd" d="M38.7166 21.424C39.3645 20.7777 40.2431 20.4148 41.1591 20.4148H46.375C47.291 20.4148 48.1696 20.7777 48.8175 21.424C49.4654 22.0703 49.8296 22.947 49.8296 23.8613V25.6175H54.1989C56.1061 25.6175 57.6534 27.1599 57.6534 29.0639V42.0706C57.6534 43.9747 56.1061 45.5171 54.1989 45.5171H33.3352C31.428 45.5171 29.8807 43.9747 29.8807 42.0706V29.0639C29.8807 27.1599 31.428 25.6175 33.3352 25.6175H37.7046V23.8613C37.7046 22.947 38.0687 22.0703 38.7166 21.424ZM41.1591 20.9489C40.3843 20.9489 39.6414 21.2559 39.0938 21.8021C38.5462 22.3484 38.2386 23.0891 38.2386 23.8613V25.8845C38.2386 26.032 38.1191 26.1516 37.9716 26.1516H33.3352C31.7217 26.1516 30.4148 27.4561 30.4148 29.0639V42.0706C30.4148 43.6784 31.7217 44.983 33.3352 44.983H54.1989C55.8124 44.983 57.1193 43.6784 57.1193 42.0706V29.0639C57.1193 27.4561 55.8124 26.1516 54.1989 26.1516H49.5625C49.415 26.1516 49.2955 26.032 49.2955 25.8845V23.8613C49.2955 23.0891 48.9879 22.3484 48.4403 21.8021C47.8927 21.2559 47.1498 20.9489 46.375 20.9489H41.1591ZM41.1591 22.105C40.6917 22.105 40.2437 22.2902 39.9134 22.6197C39.5831 22.9491 39.3977 23.3957 39.3977 23.8613V25.6175H48.1364V23.8613C48.1364 23.3957 47.951 22.9491 47.6207 22.6197C47.2905 22.2902 46.8424 22.105 46.375 22.105H41.1591ZM39.5362 22.2415C39.9667 21.8121 40.5505 21.5709 41.1591 21.5709H46.375C46.9836 21.5709 47.5674 21.8121 47.9979 22.2415C48.4285 22.671 48.6705 23.2536 48.6705 23.8613V25.8845C48.6705 26.032 48.5509 26.1516 48.4034 26.1516H39.1307C38.9832 26.1516 38.8636 26.032 38.8636 25.8845V23.8613C38.8636 23.2536 39.1057 22.671 39.5362 22.2415ZM33.3352 27.3077C32.3618 27.3077 31.5739 28.0946 31.5739 29.0639V42.0706C31.5739 43.0399 32.3618 43.8268 33.3352 43.8268H37.7046V27.3077H33.3352ZM31.0398 29.0639C31.0398 27.7984 32.0681 26.7736 33.3352 26.7736H37.9716C38.1191 26.7736 38.2386 26.8932 38.2386 27.0407V44.0939C38.2386 44.2414 38.1191 44.3609 37.9716 44.3609H33.3352C32.0681 44.3609 31.0398 43.3362 31.0398 42.0706V29.0639ZM38.8636 27.0407C38.8636 26.8932 38.9832 26.7736 39.1307 26.7736H48.4034C48.5509 26.7736 48.6705 26.8932 48.6705 27.0407V44.0939C48.6705 44.2414 48.5509 44.3609 48.4034 44.3609H39.1307C38.9832 44.3609 38.8636 44.2414 38.8636 44.0939V27.0407ZM39.3977 27.3077V43.8268H48.1364V27.3077H39.3977ZM49.2955 27.0407C49.2955 26.8932 49.415 26.7736 49.5625 26.7736H54.1989C55.466 26.7736 56.4943 27.7984 56.4943 29.0639V42.0706C56.4943 43.3362 55.466 44.3609 54.1989 44.3609H49.5625C49.415 44.3609 49.2955 44.2414 49.2955 44.0939V27.0407ZM49.8296 27.3077V43.8268H54.1989C55.1723 43.8268 55.9602 43.0399 55.9602 42.0706V29.0639C55.9602 28.0946 55.1723 27.3077 54.1989 27.3077H49.8296Z" fill="white"/>
<path fill-rule="evenodd" clip-rule="evenodd" d="M38.9052 21.6131C39.503 21.0168 40.3137 20.6818 41.1591 20.6818H46.375C47.2204 20.6818 48.0311 21.0168 48.6289 21.6131C49.2267 22.2093 49.5625 23.018 49.5625 23.8613V25.8845H54.1989C55.9593 25.8845 57.3864 27.308 57.3864 29.0639V42.0706C57.3864 43.8266 55.9593 45.25 54.1989 45.25H33.3352C31.5748 45.25 30.1477 43.8266 30.1477 42.0706V29.0639C30.1477 27.308 31.5748 25.8845 33.3352 25.8845H37.9716V23.8613C37.9716 23.018 38.3074 22.2093 38.9052 21.6131ZM37.9716 27.0407H33.3352C32.215 27.0407 31.3068 27.9465 31.3068 29.0639V42.0706C31.3068 43.188 32.215 44.0939 33.3352 44.0939H37.9716V27.0407ZM39.1307 44.0939V27.0407H48.4034V44.0939H39.1307ZM49.5625 44.0939H54.1989C55.3191 44.0939 56.2273 43.188 56.2273 42.0706V29.0639C56.2273 27.9465 55.3191 27.0407 54.1989 27.0407H49.5625V44.0939ZM48.4034 25.8845H39.1307V23.8613C39.1307 23.3247 39.3444 22.81 39.7248 22.4306C40.1052 22.0512 40.6211 21.838 41.1591 21.838H46.375C46.913 21.838 47.4289 22.0512 47.8093 22.4306C48.1897 22.81 48.4034 23.3247 48.4034 23.8613V25.8845Z" stroke="white" stroke-linecap="round" stroke-linejoin="round"/>
<path fill-rule="evenodd" clip-rule="evenodd" d="M38.7166 21.424C39.3645 20.7777 40.2431 20.4148 41.1591 20.4148H46.375C47.291 20.4148 48.1696 20.7777 48.8175 21.424C49.4654 22.0703 49.8296 22.947 49.8296 23.8613V25.6175H54.1989C56.1061 25.6175 57.6534 27.1599 57.6534 29.0639V42.0706C57.6534 43.9747 56.1061 45.5171 54.1989 45.5171H33.3352C31.428 45.5171 29.8807 43.9747 29.8807 42.0706V29.0639C29.8807 27.1599 31.428 25.6175 33.3352 25.6175H37.7046V23.8613C37.7046 22.947 38.0687 22.0703 38.7166 21.424ZM41.1591 20.9489C40.3843 20.9489 39.6414 21.2559 39.0938 21.8021C38.5462 22.3484 38.2386 23.0891 38.2386 23.8613V25.8845C38.2386 26.032 38.1191 26.1516 37.9716 26.1516H33.3352C31.7217 26.1516 30.4148 27.4561 30.4148 29.0639V42.0706C30.4148 43.6784 31.7217 44.983 33.3352 44.983H54.1989C55.8124 44.983 57.1193 43.6784 57.1193 42.0706V29.0639C57.1193 27.4561 55.8124 26.1516 54.1989 26.1516H49.5625C49.415 26.1516 49.2955 26.032 49.2955 25.8845V23.8613C49.2955 23.0891 48.9879 22.3484 48.4403 21.8021C47.8927 21.2559 47.1498 20.9489 46.375 20.9489H41.1591ZM41.1591 22.105C40.6917 22.105 40.2437 22.2902 39.9134 22.6197C39.5831 22.9491 39.3977 23.3957 39.3977 23.8613V25.6175H48.1364V23.8613C48.1364 23.3957 47.951 22.9491 47.6207 22.6197C47.2905 22.2902 46.8424 22.105 46.375 22.105H41.1591ZM39.5362 22.2415C39.9667 21.8121 40.5505 21.5709 41.1591 21.5709H46.375C46.9836 21.5709 47.5674 21.8121 47.9979 22.2415C48.4285 22.671 48.6705 23.2536 48.6705 23.8613V25.8845C48.6705 26.032 48.5509 26.1516 48.4034 26.1516H39.1307C38.9832 26.1516 38.8636 26.032 38.8636 25.8845V23.8613C38.8636 23.2536 39.1057 22.671 39.5362 22.2415ZM33.3352 27.3077C32.3618 27.3077 31.5739 28.0946 31.5739 29.0639V42.0706C31.5739 43.0399 32.3618 43.8268 33.3352 43.8268H37.7046V27.3077H33.3352ZM31.0398 29.0639C31.0398 27.7984 32.0681 26.7736 33.3352 26.7736H37.9716C38.1191 26.7736 38.2386 26.8932 38.2386 27.0407V44.0939C38.2386 44.2414 38.1191 44.3609 37.9716 44.3609H33.3352C32.0681 44.3609 31.0398 43.3362 31.0398 42.0706V29.0639ZM38.8636 27.0407C38.8636 26.8932 38.9832 26.7736 39.1307 26.7736H48.4034C48.5509 26.7736 48.6705 26.8932 48.6705 27.0407V44.0939C48.6705 44.2414 48.5509 44.3609 48.4034 44.3609H39.1307C38.9832 44.3609 38.8636 44.2414 38.8636 44.0939V27.0407ZM39.3977 27.3077V43.8268H48.1364V27.3077H39.3977ZM49.2955 27.0407C49.2955 26.8932 49.415 26.7736 49.5625 26.7736H54.1989C55.466 26.7736 56.4943 27.7984 56.4943 29.0639V42.0706C56.4943 43.3362 55.466 44.3609 54.1989 44.3609H49.5625C49.415 44.3609 49.2955 44.2414 49.2955 44.0939V27.0407ZM49.8296 27.3077V43.8268H54.1989C55.1723 43.8268 55.9602 43.0399 55.9602 42.0706V29.0639C55.9602 28.0946 55.1723 27.3077 54.1989 27.3077H49.8296Z" stroke="white" stroke-linecap="round" stroke-linejoin="round"/>
</g>
<defs>
<filter id="filter0_d_134_96" x="0" y="0" width="87" height="87" filterUnits="userSpaceOnUse" color-interpolation-filters="sRGB">
<feFlood flood-opacity="0" result="BackgroundImageFix"/>
<feColorMatrix in="SourceAlpha" type="matrix" values="0 0 0 0 0 0 0 0 0 0 0 0 0 0 0 0 0 0 127 0" result="hardAlpha"/>
<feMorphology radius="2" operator="erode" in="SourceAlpha" result="effect1_dropShadow_134_96"/>
<feOffset dy="10"/>
<feGaussianBlur stdDeviation="11"/>
<feColorMatrix type="matrix" values="0 0 0 0 0.427083 0 0 0 0 0.671455 0 0 0 0 1 0 0 0 0.36 0"/>
<feBlend mode="normal" in2="BackgroundImageFix" result="effect1_dropShadow_134_96"/>
<feBlend mode="normal" in="SourceGraphic" in2="effect1_dropShadow_134_96" result="shape"/>
</filter>
<linearGradient id="paint0_linear_134_96" x1="29.6136" y1="10" x2="52.0455" y2="57" gradientUnits="userSpaceOnUse">
<stop stop-color="#FF858A"/>
<stop offset="1" stop-color="#F04148"/>
</linearGradient>
<clipPath id="clip0_134_96">
<rect width="29.375" height="29.375" fill="white" transform="translate(29.0796 18.5454)"/>
</clipPath>
</defs>
</svg>
