<svg width="28" height="28" viewBox="0 0 28 28" fill="none" xmlns="http://www.w3.org/2000/svg">
<path d="M7 0C6.0375 0 5.25 0.7875 5.25 1.75V26.25C5.25 27.2125 6.0375 28 7 28H24.5C25.4625 28 26.25 27.2125 26.25 26.25V7L19.25 0H7Z" fill="#E2E5E7"/>
<path d="M21 7H26.25L19.25 0V5.25C19.25 6.2125 20.0375 7 21 7Z" fill="#B0B7BD"/>
<path d="M26.25 12.25L21 7H26.25V12.25Z" fill="#CAD1D8"/>
<path d="M22.75 22.75C22.75 23.2312 22.3563 23.625 21.875 23.625H2.625C2.14375 23.625 1.75 23.2312 1.75 22.75V14C1.75 13.5187 2.14375 13.125 2.625 13.125H21.875C22.3563 13.125 22.75 13.5187 22.75 14V22.75Z" fill="#50BEE8"/>
<path d="M5.06271 21.0001C4.83171 21.0001 4.57971 20.8732 4.57971 20.5661V16.5927C4.57971 16.3407 4.83171 16.1587 5.06271 16.1587H6.66484C9.86208 16.1587 9.79121 21.0001 6.72696 21.0001H5.06271ZM5.50371 17.0118V20.1461H6.66484C8.55396 20.1461 8.63709 17.0118 6.66484 17.0118H5.50371Z" fill="white"/>
<path d="M12.4687 21.07C11.1746 21.126 9.8306 20.265 9.8306 18.5509C9.8306 16.8298 11.1737 15.9836 12.4687 15.9836C13.6929 16.0458 14.973 16.8928 14.973 18.5509C14.973 20.2099 13.6929 21.07 12.4687 21.07ZM12.3917 16.8936C11.6077 16.8936 10.7546 17.4466 10.7546 18.5518C10.7546 19.6508 11.6086 20.2108 12.3917 20.2108C13.1967 20.2108 14.0569 19.6508 14.0569 18.5518C14.0569 17.4458 13.1967 16.8936 12.3917 16.8936Z" fill="white"/>
<path d="M15.7963 18.5438C15.7963 17.1937 16.6433 16.0326 18.2525 16.0326C18.8615 16.0326 19.3445 16.2146 19.8546 16.6556C20.0436 16.8297 20.0646 17.1377 19.8756 17.3337C19.6866 17.5008 19.3996 17.4807 19.2316 17.3127C18.9455 17.0117 18.6515 16.9286 18.2525 16.9286C17.1753 16.9286 16.6582 17.6916 16.6582 18.5447C16.6582 19.4127 17.1683 20.2098 18.2525 20.2098C18.6515 20.2098 19.0225 20.048 19.3445 19.7618C19.5606 19.5938 19.8616 19.677 19.9876 19.8458C20.0996 19.9998 20.1547 20.2588 19.9106 20.503C19.4206 20.9588 18.8335 21.0498 18.2516 21.0498C16.5593 21.0498 15.7963 19.894 15.7963 18.5438Z" fill="white"/>
<path d="M21.875 23.625H5.25V24.5H21.875C22.3563 24.5 22.75 24.1063 22.75 23.625V22.75C22.75 23.2313 22.3563 23.625 21.875 23.625Z" fill="#CAD1D8"/>
</svg>
