<svg width="29" height="28" viewBox="0 0 20 20" fill="none" xmlns="http://www.w3.org/2000/svg">
<path d="M5 0C4.3125 0 3.75 0.5625 3.75 1.25V18.75C3.75 19.4375 4.3125 20 5 20H17.5C18.1875 20 18.75 19.4375 18.75 18.75V5L13.75 0H5Z" fill="#E2E5E7"/>
<path d="M15 5H18.75L13.75 0V3.75C13.75 4.4375 14.3125 5 15 5Z" fill="#B0B7BD"/>
<path d="M18.75 8.75L15 5H18.75V8.75Z" fill="#CAD1D8"/>
<path d="M16.25 16.25C16.25 16.5938 15.9688 16.875 15.625 16.875H1.875C1.53125 16.875 1.25 16.5938 1.25 16.25V10C1.25 9.65625 1.53125 9.375 1.875 9.375H15.625C15.9688 9.375 16.25 9.65625 16.25 10V16.25Z" fill="#A066AA"/>
<path d="M3.62549 11.8417C3.62549 11.6767 3.75486 11.4961 3.96486 11.4961H5.11986C5.76924 11.4961 6.35424 11.9311 6.35424 12.7655C6.35424 13.5555 5.76924 13.9948 5.11986 13.9948H4.28424V14.6548C4.28424 14.8755 4.14549 14.9998 3.96486 14.9998C3.79986 14.9998 3.62549 14.8755 3.62549 14.6548C3.62549 14.6548 3.62549 11.8417 3.62549 11.8417ZM4.28424 12.1261V13.3705H5.11924C5.45361 13.3705 5.71861 13.0755 5.71861 12.7655C5.71861 12.4155 5.45361 12.1261 5.11924 12.1261H4.28424Z" fill="white"/>
<path d="M6.99135 11.8917C6.99135 11.7111 7.03135 11.5367 7.29135 11.5367C7.47072 11.5367 7.51135 11.5817 7.64572 11.7111L9.29947 13.7805V11.8417C9.29947 11.6767 9.44385 11.4961 9.61447 11.4961C9.79447 11.4961 9.96885 11.6767 9.96885 11.8417V14.6548C9.96885 14.8755 9.83385 14.9592 9.70385 14.9998C9.52947 14.9998 9.44385 14.9598 9.29947 14.8255L7.64572 12.7261V14.6555C7.64572 14.8761 7.51072 15.0005 7.33072 15.0005C7.15072 15.0005 6.99072 14.8761 6.99072 14.6555V11.8917H6.99135Z" fill="white"/>
<path d="M13.7278 14.6153C13.3728 14.9097 12.9378 15.0353 12.4985 15.0353C11.4485 15.0353 10.7041 14.4353 10.7041 13.2459C10.7041 12.2365 11.4891 11.4521 12.5428 11.4521C12.9378 11.4521 13.3722 11.5871 13.6822 11.8921C13.9872 12.1915 13.5472 12.6365 13.2478 12.3721C13.0628 12.1915 12.8028 12.0571 12.5428 12.0571C11.9385 12.0571 11.3541 12.5415 11.3541 13.2459C11.3541 13.9859 11.8435 14.4353 12.4985 14.4353C12.8028 14.4353 13.0628 14.3453 13.2478 14.2103V13.5965H12.4985C12.0535 13.5965 12.0985 12.9859 12.4985 12.9859H13.4978C13.6828 12.9859 13.8522 13.1265 13.8522 13.2815V14.3459C13.8522 14.4353 13.8128 14.5197 13.7278 14.6153Z" fill="white"/>
<path d="M15.625 16.875H3.75V17.5H15.625C15.9688 17.5 16.25 17.2188 16.25 16.875V16.25C16.25 16.5938 15.9688 16.875 15.625 16.875Z" fill="#CAD1D8"/>
</svg>
