<svg width="22" height="21" viewBox="0 0 22 21" fill="none" xmlns="http://www.w3.org/2000/svg">
<path fill-rule="evenodd" clip-rule="evenodd" d="M3 2C2.73478 2 2.48043 2.10536 2.29289 2.29289C2.10536 2.48043 2 2.73478 2 3V17C2 17.2652 2.10536 17.5196 2.29289 17.7071C2.48043 17.8946 2.73478 18 3 18H16C16.0432 18 16.0864 18.0028 16.1292 18.0084C16.3267 18.0341 16.5274 18.0003 16.7056 17.9112C16.8645 17.8317 16.999 17.7116 17.0957 17.5635L19.557 11H7.67703L5.92848 15.3714C5.72336 15.8842 5.14139 16.1336 4.62861 15.9285C4.11583 15.7234 3.86641 15.1414 4.07152 14.6286L6.07152 9.62861C6.22339 9.24895 6.5911 9 7 9H18V6C18 5.73478 17.8946 5.48043 17.7071 5.29289C17.5196 5.10536 17.2652 5 17 5H10C9.66565 5 9.35342 4.8329 9.16795 4.5547L7.46482 2H3ZM20 9V6C20 5.20435 19.6839 4.44129 19.1213 3.87868C18.5587 3.31607 17.7957 3 17 3H10.5352L8.83205 0.4453C8.64658 0.167101 8.33435 0 8 0H3C2.20435 0 1.44129 0.31607 0.87868 0.87868C0.31607 1.44129 0 2.20435 0 3V17C0 17.7957 0.31607 18.5587 0.87868 19.1213C1.44129 19.6839 2.20435 20 3 20H15.9417C16.5113 20.0605 17.0868 19.9566 17.6 19.7C18.1345 19.4328 18.577 19.012 18.8708 18.4916C18.8963 18.4466 18.9182 18.3996 18.9363 18.3511L21.9363 10.3511C22.0515 10.044 22.0087 9.69998 21.8219 9.43041C21.6351 9.16083 21.328 9 21 9H20Z" fill="#22242C"/>
</svg>
