<svg width="29" height="28" viewBox="0 0 20 20" fill="none" xmlns="http://www.w3.org/2000/svg">
<path d="M5 0C4.3125 0 3.75 0.5625 3.75 1.25V18.75C3.75 19.4375 4.3125 20 5 20H17.5C18.1875 20 18.75 19.4375 18.75 18.75V5L13.75 0H5Z" fill="#E2E5E7"/>
<path d="M15 5H18.75L13.75 0V3.75C13.75 4.4375 14.3125 5 15 5Z" fill="#B0B7BD"/>
<path d="M18.75 8.75L15 5H18.75V8.75Z" fill="#CAD1D8"/>
<path d="M16.25 16.25C16.25 16.5938 15.9688 16.875 15.625 16.875H1.875C1.53125 16.875 1.25 16.5938 1.25 16.25V10C1.25 9.65625 1.53125 9.375 1.875 9.375H15.625C15.9688 9.375 16.25 9.65625 16.25 10V16.25Z" fill="#04C3C6"/>
<path d="M5.54539 11.8423C5.54539 11.4223 6.20539 11.4223 6.20539 11.8423V13.8161C6.20539 14.6011 5.83039 15.0761 4.96601 15.0761C4.54101 15.0761 4.18664 14.9605 3.87664 14.5611C3.62164 14.2561 4.10164 13.8167 4.36164 14.1361C4.57164 14.3961 4.79664 14.4561 5.01601 14.4461C5.29539 14.4361 5.54101 14.3105 5.54601 13.8161V11.8423H5.54539Z" fill="white"/>
<path d="M7.0835 11.8421C7.0835 11.6771 7.2135 11.4971 7.4235 11.4971H8.57787C9.22787 11.4971 9.81287 11.9321 9.81287 12.7658C9.81287 13.5558 9.22787 13.9958 8.57787 13.9958H7.7435V14.6558C7.7435 14.8758 7.6035 15.0002 7.4235 15.0002C7.2585 15.0002 7.0835 14.8758 7.0835 14.6558V11.8421ZM7.7435 12.1264V13.3714H8.57787C8.91287 13.3714 9.17787 13.0758 9.17787 12.7658C9.17787 12.4164 8.91287 12.1264 8.57787 12.1264H7.7435Z" fill="white"/>
<path d="M13.3817 14.6156C13.0267 14.9106 12.5917 15.0356 12.1523 15.0356C11.1023 15.0356 10.3579 14.4363 10.3579 13.2463C10.3579 12.2375 11.1429 11.4531 12.1967 11.4531C12.5917 11.4531 13.026 11.5875 13.336 11.8925C13.6404 12.1919 13.201 12.6369 12.9017 12.3725C12.7167 12.1925 12.4567 12.0575 12.1967 12.0575C11.5923 12.0575 11.0079 12.5419 11.0079 13.2463C11.0079 13.9863 11.4973 14.4363 12.1523 14.4363C12.4567 14.4363 12.7167 14.3456 12.9017 14.2113V13.5969H12.1523C11.7073 13.5969 11.7523 12.9869 12.1523 12.9869H13.1517C13.3367 12.9869 13.506 13.1269 13.506 13.2819V14.3463C13.506 14.4363 13.4667 14.52 13.3817 14.6156Z" fill="white"/>
<path d="M15.625 16.875H3.75V17.5H15.625C15.9688 17.5 16.25 17.2188 16.25 16.875V16.25C16.25 16.5938 15.9688 16.875 15.625 16.875Z" fill="#CAD1D8"/>
</svg>
