<svg width="29" height="28" viewBox="0 0 20 20" fill="none" xmlns="http://www.w3.org/2000/svg">
<path d="M1.4 0C0.63 0 0 0.5625 0 1.25V18.75C0 19.4375 0.63 20 1.4 20H15.4C16.17 20 16.8 19.4375 16.8 18.75V5L11.2 0H1.4Z" fill="#E2E5E7"/>
<path d="M12.8 5H17L11.4 0V3.75C11.4 4.4375 12.03 5 12.8 5Z" fill="#B0B7BD"/>
<path d="M17 8.75L12.8 5H17V8.75Z" fill="#CAD1D8"/>
<path d="M16.8 19.4643C16.8 19.7589 16.485 20 16.1 20H0.7C0.315 20 0 19.7589 0 19.4643V14.1071C0 13.8125 0.315 13.5714 0.7 13.5714H16.1C16.485 13.5714 16.8 13.8125 16.8 14.1071V19.4643Z" fill="#1C49E9"/>
<path d="M2.8424 18.5714V15.0464H3.4752L4.9256 17.9614H4.752L6.2024 15.0464H6.8296V18.5714H6.1744V15.9564H6.376L5.0488 18.5714H4.6176L3.2904 15.9564H3.4976V18.5714H2.8424Z" fill="white"/>
<path d="M9.28706 18.6214C8.96972 18.6214 8.67666 18.5864 8.40786 18.5164C8.14279 18.4431 7.91506 18.3431 7.72466 18.2164L7.94866 17.7114C8.07559 17.7914 8.20812 17.8598 8.34626 17.9164C8.48439 17.9698 8.63186 18.0114 8.78866 18.0414C8.94546 18.0681 9.11159 18.0814 9.28706 18.0814C9.58199 18.0814 9.79479 18.0381 9.92546 17.9514C10.0561 17.8648 10.1215 17.7514 10.1215 17.6114C10.1215 17.4881 10.0767 17.3948 9.98706 17.3314C9.89746 17.2648 9.73692 17.2098 9.50546 17.1664L8.87266 17.0514C8.51052 16.9848 8.23986 16.8731 8.06066 16.7164C7.88146 16.5598 7.79186 16.3498 7.79186 16.0864C7.79186 15.8664 7.85719 15.6748 7.98786 15.5114C8.11852 15.3481 8.30146 15.2214 8.53666 15.1314C8.77186 15.0414 9.04626 14.9964 9.35986 14.9964C9.63986 14.9964 9.89932 15.0331 10.1383 15.1064C10.3772 15.1764 10.5769 15.2781 10.7375 15.4114L10.5135 15.8914C10.3529 15.7714 10.1775 15.6831 9.98706 15.6264C9.79666 15.5664 9.58386 15.5364 9.34866 15.5364C9.08359 15.5364 8.87639 15.5831 8.72706 15.6764C8.58146 15.7664 8.50866 15.8914 8.50866 16.0514C8.50866 16.1748 8.55346 16.2731 8.64306 16.3464C8.73639 16.4198 8.89319 16.4764 9.11346 16.5164L9.74066 16.6264C10.114 16.6931 10.3903 16.8031 10.5695 16.9564C10.7487 17.1064 10.8383 17.3098 10.8383 17.5664C10.8383 17.7764 10.7748 17.9614 10.6479 18.1214C10.5209 18.2781 10.3417 18.4014 10.1103 18.4914C9.87879 18.5781 9.60439 18.6214 9.28706 18.6214Z" fill="white"/>
<path d="M13.6228 18.6214C13.1786 18.6214 12.8052 18.5481 12.5028 18.4014C12.2004 18.2548 11.9727 18.0464 11.8196 17.7764C11.6666 17.5064 11.59 17.1864 11.59 16.8164C11.59 16.4431 11.6722 16.1214 11.8364 15.8514C12.0007 15.5781 12.2359 15.3681 12.542 15.2214C12.8519 15.0714 13.2234 14.9964 13.6564 14.9964C13.9439 14.9964 14.1959 15.0314 14.4124 15.1014C14.629 15.1681 14.8194 15.2664 14.9836 15.3964L14.7428 15.8964C14.6234 15.8131 14.5095 15.7464 14.4012 15.6964C14.293 15.6464 14.181 15.6114 14.0652 15.5914C13.9495 15.5681 13.8151 15.5564 13.662 15.5564C13.229 15.5564 12.9004 15.6664 12.6764 15.8864C12.4562 16.1031 12.346 16.4148 12.346 16.8214C12.346 17.2281 12.4506 17.5381 12.6596 17.7514C12.8724 17.9648 13.2047 18.0714 13.6564 18.0714C13.8095 18.0714 13.9626 18.0581 14.1156 18.0314C14.2724 18.0048 14.4255 17.9664 14.5748 17.9164L14.4404 18.1864V17.1314H13.5164V16.6614H15.0396V18.3564C14.8567 18.4398 14.6383 18.5048 14.3844 18.5514C14.1306 18.5981 13.8767 18.6214 13.6228 18.6214Z" fill="white"/>
<g clip-path="url(#clip0_9370_200821)">
<path d="M5.97323 6.33301H11.9466C12.3572 6.33301 12.6932 6.63301 12.6932 6.99967V10.9997C12.6932 11.3663 12.3572 11.6663 11.9466 11.6663H5.97323C5.56256 11.6663 5.22656 11.3663 5.22656 10.9997V6.99967C5.22656 6.63301 5.56256 6.33301 5.97323 6.33301Z" stroke="#1C49E9" stroke-width="0.5" stroke-linecap="round" stroke-linejoin="round"/>
<path d="M12.6932 7L8.9599 9.33333L5.22656 7" stroke="#1C49E9" stroke-width="0.5" stroke-linecap="round" stroke-linejoin="round"/>
</g>
<defs>
<clipPath id="clip0_9370_200821">
<rect width="8.96" height="8" fill="white" transform="translate(4.47998 5)"/>
</clipPath>
</defs>
</svg>
