<svg width="29" height="28" viewBox="0 0 29 28" fill="none" xmlns="http://www.w3.org/2000/svg">
<path d="M7.5 0C6.5375 0 5.75 0.7875 5.75 1.75V26.25C5.75 27.2125 6.5375 28 7.5 28H25C25.9625 28 26.75 27.2125 26.75 26.25V7L19.75 0H7.5Z" fill="#E2E5E7"/>
<path d="M21.5 7H26.75L19.75 0V5.25C19.75 6.2125 20.5375 7 21.5 7Z" fill="#B0B7BD"/>
<path d="M26.75 12.25L21.5 7H26.75V12.25Z" fill="#CAD1D8"/>
<path d="M23.25 22.75C23.25 23.2312 22.8563 23.625 22.375 23.625H3.125C2.64375 23.625 2.25 23.2312 2.25 22.75V14C2.25 13.5187 2.64375 13.125 3.125 13.125H22.375C22.8563 13.125 23.25 13.5187 23.25 14V22.75Z" fill="#F15642"/>
<path d="M6.06396 16.5787C6.06396 16.3477 6.24596 16.0957 6.53909 16.0957H8.15521C9.06521 16.0957 9.88422 16.7047 9.88422 17.872C9.88422 18.978 9.06521 19.594 8.15521 19.594H6.98709V20.518C6.98709 20.826 6.79109 21.0001 6.53909 21.0001C6.30809 21.0001 6.06396 20.826 6.06396 20.518V16.5787ZM6.98709 16.9768V18.7198H8.15521C8.62421 18.7198 8.99521 18.306 8.99521 17.872C8.99521 17.3828 8.62421 16.9768 8.15521 16.9768H6.98709Z" fill="white"/>
<path d="M11.2545 20.9996C11.0235 20.9996 10.7715 20.8736 10.7715 20.5665V16.5922C10.7715 16.3411 11.0235 16.1582 11.2545 16.1582H12.8566C16.0539 16.1582 15.9839 20.9996 12.9196 20.9996H11.2545ZM11.6955 17.0122V20.1465H12.8566C14.7457 20.1465 14.8297 17.0122 12.8566 17.0122H11.6955Z" fill="white"/>
<path d="M17.1179 17.0691V18.1812H18.902C19.154 18.1812 19.406 18.4332 19.406 18.6773C19.406 18.9083 19.154 19.0973 18.902 19.0973H17.1179V20.5664C17.1179 20.8114 16.9438 20.9996 16.6988 20.9996C16.3908 20.9996 16.2026 20.8114 16.2026 20.5664V16.5922C16.2026 16.3411 16.3916 16.1582 16.6988 16.1582H19.1549C19.4629 16.1582 19.6449 16.3411 19.6449 16.5922C19.6449 16.8162 19.4629 17.0682 19.1549 17.0682H17.1179V17.0691Z" fill="white"/>
<path d="M22.375 23.625H5.75V24.5H22.375C22.8563 24.5 23.25 24.1063 23.25 23.625V22.75C23.25 23.2313 22.8563 23.625 22.375 23.625Z" fill="#CAD1D8"/>
</svg>
