<svg width="29" height="28" viewBox="0 0 20 20" fill="none" xmlns="http://www.w3.org/2000/svg">
<path d="M3.85714 0C3.15 0 2.57143 0.5625 2.57143 1.25V18.75C2.57143 19.4375 3.15 20 3.85714 20H16.7143C17.4214 20 18 19.4375 18 18.75V5L12.8571 0H3.85714Z" fill="#E2E5E7"/>
<path d="M14.1429 5H18L12.8571 0V3.75C12.8571 4.4375 13.4357 5 14.1429 5Z" fill="#B0B7BD"/>
<path d="M18 8.75L14.1429 5H18V8.75Z" fill="#CAD1D8"/>
<path d="M15.4286 16.25C15.4286 16.5938 15.1393 16.875 14.7857 16.875H0.642857C0.289286 16.875 0 16.5938 0 16.25V10C0 9.65625 0.289286 9.375 0.642857 9.375H14.7857C15.1393 9.375 15.4286 9.65625 15.4286 10V16.25Z" fill="#FD8538"/>
<path d="M3.64261 15V12.005H2.44432V11.475H5.50432V12.005H4.30604V15H3.64261Z" fill="white"/>
<path d="M5.71443 15L7.20586 13.07V13.345L5.76586 11.475H6.54243L7.58643 12.88H7.37558L8.41443 11.475H9.19615L7.75101 13.345V13.07L9.24758 15H8.46586L7.36529 13.53H7.59158L6.49101 15H5.71443Z" fill="white"/>
<path d="M10.6444 15V12.005H9.44616V11.475H12.5062V12.005H11.3079V15H10.6444Z" fill="white"/>
<path d="M14.7857 16.875H2.57143V17.5H14.7857C15.1393 17.5 15.4286 17.2188 15.4286 16.875V16.25C15.4286 16.5938 15.1393 16.875 14.7857 16.875Z" fill="#CAD1D8"/>
</svg>
