<svg width="28" height="28" viewBox="0 0 28 28" fill="none" xmlns="http://www.w3.org/2000/svg">
<path d="M7 0C6.0375 0 5.25 0.7875 5.25 1.75V26.25C5.25 27.2125 6.0375 28 7 28H24.5C25.4625 28 26.25 27.2125 26.25 26.25V7L19.25 0H7Z" fill="#E2E5E7"/>
<path d="M21 7H26.25L19.25 0V5.25C19.25 6.2125 20.0375 7 21 7Z" fill="#B0B7BD"/>
<path d="M26.25 12.25L21 7H26.25V12.25Z" fill="#CAD1D8"/>
<path d="M22.75 22.75C22.75 23.2312 22.3563 23.625 21.875 23.625H2.625C2.14375 23.625 1.75 23.2312 1.75 22.75V14C1.75 13.5187 2.14375 13.125 2.625 13.125H21.875C22.3563 13.125 22.75 13.5187 22.75 14V22.75Z" fill="#84BD5A"/>
<path d="M7.89336 17.8386L9.11048 16.3135C9.47448 15.8375 10.1815 16.4456 9.78248 16.9006C9.36336 17.3976 8.92236 17.9366 8.50236 18.4887L9.92948 20.2658C10.3145 20.7908 9.54536 21.294 9.16736 20.776L7.87936 19.1248L6.61323 20.8118C6.25623 21.322 5.46523 20.7488 5.86423 20.2728L7.27036 18.4887C6.82936 17.9357 6.40236 17.3976 5.97623 16.9006C5.53611 16.3756 6.35423 15.8375 6.67623 16.3283L7.89336 17.8386Z" fill="white"/>
<path d="M10.7931 16.5786C10.7931 16.3476 10.9891 16.1516 11.2341 16.1516C11.4581 16.1516 11.6471 16.3485 11.6471 16.5786V20.0839H13.5502C14.2353 20.0839 14.2502 21 13.5502 21H11.235C10.99 21 10.794 20.8259 10.794 20.5739V16.5786H10.7931Z" fill="white"/>
<path d="M14.8767 17.2086C15.0377 15.8506 17.087 15.6064 18.053 16.3484C18.529 16.7326 18.025 17.3416 17.605 17.0336C17.087 16.7054 15.9119 16.5514 15.7649 17.2777C15.5759 18.4257 18.6191 17.7686 18.5701 19.6297C18.5211 21.4068 15.9469 21.4479 14.9809 20.6508C14.749 20.4618 14.7569 20.1547 14.8829 19.9648C15.0649 19.7837 15.267 19.7207 15.5059 19.9167C16.079 20.3078 17.556 20.6018 17.6601 19.6078C17.57 18.5736 14.6597 19.1957 14.8767 17.2086Z" fill="white"/>
<path d="M21.875 23.625H5.25V24.5H21.875C22.3563 24.5 22.75 24.1063 22.75 23.625V22.75C22.75 23.2313 22.3563 23.625 21.875 23.625Z" fill="#CAD1D8"/>
</svg>
