<svg width="28" height="28" viewBox="0 0 28 28" fill="none" xmlns="http://www.w3.org/2000/svg">
<path d="M7 0C6.0375 0 5.25 0.7875 5.25 1.75V26.25C5.25 27.2125 6.0375 28 7 28H24.5C25.4625 28 26.25 27.2125 26.25 26.25V7L19.25 0H7Z" fill="#E2E5E7"/>
<path d="M21 7H26.25L19.25 0V5.25C19.25 6.2125 20.0375 7 21 7Z" fill="#B0B7BD"/>
<path d="M26.25 12.25L21 7H26.25V12.25Z" fill="#CAD1D8"/>
<path d="M22.75 22.75C22.75 23.2313 22.3563 23.625 21.875 23.625H2.625C2.14375 23.625 1.75 23.2313 1.75 22.75V14C1.75 13.5187 2.14375 13.125 2.625 13.125H21.875C22.3563 13.125 22.75 13.5187 22.75 14V22.75Z" fill="#BF156C"/>
<path d="M7.308 21V20.517L10.241 16.387V16.618H7.308V16.065H10.864V16.541L7.924 20.678V20.447H10.948V21H7.308ZM11.7924 21V16.065H12.4434V21H11.7924ZM13.6381 21V16.065H15.6821C16.2095 16.065 16.6131 16.191 16.8931 16.443C17.1731 16.695 17.3131 17.0427 17.3131 17.486C17.3131 17.9293 17.1731 18.2793 16.8931 18.536C16.6131 18.788 16.2095 18.914 15.6821 18.914H14.2891V21H13.6381ZM14.2891 18.382H15.6191C15.9645 18.382 16.2258 18.305 16.4031 18.151C16.5805 17.9923 16.6691 17.7707 16.6691 17.486C16.6691 17.2013 16.5805 16.982 16.4031 16.828C16.2258 16.674 15.9645 16.597 15.6191 16.597H14.2891V18.382Z" fill="white"/>
<path d="M7.308 21H7.058C7.058 21.1381 7.16993 21.25 7.308 21.25V21ZM7.308 20.517L7.10417 20.3722C7.07414 20.4145 7.058 20.4651 7.058 20.517H7.308ZM10.241 16.387H10.491C10.491 16.2782 10.4206 16.1819 10.317 16.1488C10.2133 16.1158 10.1002 16.1535 10.0372 16.2422L10.241 16.387ZM10.241 16.618V16.868C10.3791 16.868 10.491 16.7561 10.491 16.618H10.241ZM7.308 16.618H7.058C7.058 16.7561 7.16993 16.868 7.308 16.868V16.618ZM7.308 16.065V15.815C7.16993 15.815 7.058 15.9269 7.058 16.065H7.308ZM10.864 16.065H11.114C11.114 15.9269 11.0021 15.815 10.864 15.815V16.065ZM10.864 16.541L11.0678 16.6858C11.0978 16.6435 11.114 16.5929 11.114 16.541H10.864ZM7.924 20.678H7.674C7.674 20.7868 7.74435 20.8831 7.84799 20.9162C7.95163 20.9492 8.06476 20.9115 8.12778 20.8228L7.924 20.678ZM7.924 20.447V20.197C7.78593 20.197 7.674 20.3089 7.674 20.447H7.924ZM10.948 20.447H11.198C11.198 20.3089 11.0861 20.197 10.948 20.197V20.447ZM10.948 21V21.25C11.0861 21.25 11.198 21.1381 11.198 21H10.948ZM7.558 21V20.517H7.058V21H7.558ZM7.51183 20.6618L10.4448 16.5318L10.0372 16.2422L7.10417 20.3722L7.51183 20.6618ZM9.991 16.387V16.618H10.491V16.387H9.991ZM10.241 16.368H7.308V16.868H10.241V16.368ZM7.558 16.618V16.065H7.058V16.618H7.558ZM7.308 16.315H10.864V15.815H7.308V16.315ZM10.614 16.065V16.541H11.114V16.065H10.614ZM10.6602 16.3962L7.72022 20.5332L8.12778 20.8228L11.0678 16.6858L10.6602 16.3962ZM8.174 20.678V20.447H7.674V20.678H8.174ZM7.924 20.697H10.948V20.197H7.924V20.697ZM10.698 20.447V21H11.198V20.447H10.698ZM10.948 20.75H7.308V21.25H10.948V20.75ZM11.7924 21H11.5424C11.5424 21.1381 11.6544 21.25 11.7924 21.25V21ZM11.7924 16.065V15.815C11.6544 15.815 11.5424 15.9269 11.5424 16.065H11.7924ZM12.4434 16.065H12.6934C12.6934 15.9269 12.5815 15.815 12.4434 15.815V16.065ZM12.4434 21V21.25C12.5815 21.25 12.6934 21.1381 12.6934 21H12.4434ZM12.0424 21V16.065H11.5424V21H12.0424ZM11.7924 16.315H12.4434V15.815H11.7924V16.315ZM12.1934 16.065V21H12.6934V16.065H12.1934ZM12.4434 20.75H11.7924V21.25H12.4434V20.75ZM13.6381 21H13.3881C13.3881 21.1381 13.5001 21.25 13.6381 21.25V21ZM13.6381 16.065V15.815C13.5001 15.815 13.3881 15.9269 13.3881 16.065H13.6381ZM16.8931 16.443L16.7259 16.6288H16.7259L16.8931 16.443ZM16.8931 18.536L17.0604 18.7218L17.0621 18.7203L16.8931 18.536ZM14.2891 18.914V18.664C14.1511 18.664 14.0391 18.7759 14.0391 18.914H14.2891ZM14.2891 21V21.25C14.4272 21.25 14.5391 21.1381 14.5391 21H14.2891ZM14.2891 18.382H14.0391C14.0391 18.5201 14.1511 18.632 14.2891 18.632V18.382ZM16.4031 18.151L16.5671 18.3398L16.5698 18.3373L16.4031 18.151ZM14.2891 16.597V16.347C14.1511 16.347 14.0391 16.4589 14.0391 16.597H14.2891ZM13.8881 21V16.065H13.3881V21H13.8881ZM13.6381 16.315H15.6821V15.815H13.6381V16.315ZM15.6821 16.315C16.1724 16.315 16.5073 16.4321 16.7259 16.6288L17.0604 16.2572C16.7189 15.9499 16.2465 15.815 15.6821 15.815V16.315ZM16.7259 16.6288C16.9438 16.8249 17.0631 17.0998 17.0631 17.486H17.5631C17.5631 16.9855 17.4025 16.5651 17.0604 16.2572L16.7259 16.6288ZM17.0631 17.486C17.0631 17.8721 16.9438 18.1504 16.7242 18.3517L17.0621 18.7203C17.4025 18.4082 17.5631 17.9866 17.5631 17.486H17.0631ZM16.7259 18.3502C16.5073 18.5469 16.1724 18.664 15.6821 18.664V19.164C16.2465 19.164 16.7189 19.0291 17.0604 18.7218L16.7259 18.3502ZM15.6821 18.664H14.2891V19.164H15.6821V18.664ZM14.0391 18.914V21H14.5391V18.914H14.0391ZM14.2891 20.75H13.6381V21.25H14.2891V20.75ZM14.2891 18.632H15.6191V18.132H14.2891V18.632ZM15.6191 18.632C15.9971 18.632 16.327 18.5482 16.5671 18.3398L16.2392 17.9622C16.1246 18.0618 15.9319 18.132 15.6191 18.132V18.632ZM16.5698 18.3373C16.8106 18.1219 16.9191 17.8266 16.9191 17.486H16.4191C16.4191 17.7148 16.3504 17.8627 16.2364 17.9647L16.5698 18.3373ZM16.9191 17.486C16.9191 17.1457 16.8106 16.8507 16.5671 16.6392L16.2392 17.0168C16.3504 17.1133 16.4191 17.257 16.4191 17.486H16.9191ZM16.5671 16.6392C16.327 16.4308 15.9971 16.347 15.6191 16.347V16.847C15.9319 16.847 16.1246 16.9172 16.2392 17.0168L16.5671 16.6392ZM15.6191 16.347H14.2891V16.847H15.6191V16.347ZM14.0391 16.597V18.382H14.5391V16.597H14.0391Z" fill="white"/>
<path d="M21.875 23.625H5.25V24.5H21.875C22.3563 24.5 22.75 24.1063 22.75 23.625V22.75C22.75 23.2313 22.3563 23.625 21.875 23.625Z" fill="#CAD1D8"/>
</svg>
