<svg width="122" height="123" viewBox="0 0 122 123" fill="none" xmlns="http://www.w3.org/2000/svg">
<circle cx="61" cy="61.5" r="61" fill="#00BCD4"/>
<path fill-rule="evenodd" clip-rule="evenodd" d="M57.2297 37.7836C60.095 37.5568 62.9742 37.9859 65.6488 39.0384C68.3234 40.0908 70.723 41.7389 72.6654 43.8574C74.2664 45.6035 75.522 47.6314 76.3714 49.8334H79.2913L79.3182 49.8335C82.0474 49.8703 84.6942 50.7735 86.8766 52.4126C89.059 54.0517 90.6641 56.3419 91.46 58.9527C92.256 61.5634 92.2017 64.3596 91.3049 66.9375C90.4082 69.5153 88.7154 71.7415 86.471 73.2947C85.5627 73.9232 84.3168 73.6964 83.6883 72.7881C83.0598 71.8798 83.2866 70.6339 84.1949 70.0054C85.742 68.9348 86.9088 67.4002 87.527 65.6233C88.1451 63.8463 88.1826 61.9188 87.6339 60.1192C87.0852 58.3196 85.9788 56.7408 84.4745 55.611C82.9735 54.4837 81.1538 53.8614 79.2771 53.8334H74.9413C74.0556 53.8334 73.2754 53.2509 73.0237 52.4018C72.3796 50.2288 71.2487 48.2312 69.7171 46.5606C68.1854 44.89 66.2932 43.5905 64.1842 42.7606C62.0751 41.9307 59.8047 41.5923 57.5453 41.7711C55.2859 41.9499 53.097 42.6413 51.1448 43.7926C49.1925 44.9439 47.5283 46.5249 46.2785 48.4156C45.0287 50.3063 44.2262 52.457 43.9319 54.7043C43.8015 55.6999 42.953 56.4445 41.9488 56.4445C40.6701 56.4445 38.8864 56.6796 37.3146 57.4539C35.8017 58.1992 34.5023 59.4246 33.9291 61.5263C33.3111 63.7924 33.6452 66.0815 34.6929 67.7482C35.7028 69.3549 37.4392 70.5 39.9996 70.5C41.1042 70.5 41.9996 71.3955 41.9996 72.5C41.9996 73.6046 41.1042 74.5 39.9996 74.5C36.0601 74.5 33.0464 72.6452 31.3063 69.8769C29.604 67.1686 29.1881 63.7077 30.0701 60.4738C30.9969 57.0755 33.1976 55.0231 35.5469 53.8657C37.1479 53.077 38.8223 52.6965 40.2557 52.5389C40.7559 50.2875 41.6647 48.1417 42.9416 46.2099C44.5266 43.8122 46.6371 41.8072 49.1128 40.3471C51.5886 38.8871 54.3645 38.0103 57.2297 37.7836Z" fill="white"/>
<path fill-rule="evenodd" clip-rule="evenodd" d="M62.667 85.25C63.7716 85.25 64.667 84.3546 64.667 83.25V61.5C64.667 60.3954 63.7716 59.5 62.667 59.5C61.5624 59.5 60.667 60.3954 60.667 61.5V83.25C60.667 84.3546 61.5624 85.25 62.667 85.25Z" fill="white"/>
<path fill-rule="evenodd" clip-rule="evenodd" d="M51.5858 72.5808C52.3668 73.3619 53.6332 73.3619 54.4142 72.5808L62.6667 64.3284L70.9191 72.5808C71.7002 73.3619 72.9665 73.3619 73.7475 72.5808C74.5286 71.7998 74.5286 70.5335 73.7475 69.7524L64.0809 60.0857C63.7058 59.7107 63.1971 59.5 62.6667 59.5C62.1362 59.5 61.6275 59.7107 61.2525 60.0857L51.5858 69.7524C50.8047 70.5335 50.8047 71.7998 51.5858 72.5808Z" fill="white"/>
</svg>
