<svg width="79" height="72" viewBox="0 0 79 72" fill="none" xmlns="http://www.w3.org/2000/svg">
<path d="M55.2 25.4764C54.7114 25.9749 54.4377 26.645 54.4377 27.343C54.4377 28.0411 54.7114 28.7112 55.2 29.2097L59.4666 33.4764C59.9651 33.965 60.6353 34.2387 61.3333 34.2387C62.0313 34.2387 62.7015 33.965 63.2 33.4764L73.2533 23.423C74.5942 26.3862 75.0002 29.6877 74.4172 32.8874C73.8342 36.0872 72.2899 39.0333 69.9901 41.3331C67.6902 43.6329 64.7441 45.1773 61.5444 45.7603C58.3446 46.3433 55.0432 45.9373 52.08 44.5964L33.6533 63.023C32.5924 64.0839 31.1536 64.6799 29.6533 64.6799C28.153 64.6799 26.7142 64.0839 25.6533 63.023C24.5924 61.9622 23.9965 60.5233 23.9965 59.023C23.9965 57.5227 24.5924 56.0839 25.6533 55.023L44.08 36.5964C42.7391 33.6332 42.3331 30.3318 42.9161 27.132C43.4991 23.9322 45.0434 20.9861 47.3432 18.6863C49.6431 16.3865 52.5892 14.8422 55.7889 14.2592C58.9887 13.6762 62.2901 14.0822 65.2533 15.423L55.2266 25.4497L55.2 25.4764Z" stroke="#00BCD4" stroke-width="6" stroke-linecap="round" stroke-linejoin="round"/>
<path d="M43.7493 54.8694L54.0583 65.3936C54.8208 66.2149 55.8551 66.6763 56.9336 66.6763C58.0121 66.6763 59.0464 66.2149 59.809 65.3936C60.5716 64.5724 61 63.4585 61 62.2971C61 61.1357 60.5716 60.0218 59.809 59.2005L49.5 48.6763" stroke="#00BCD4" stroke-width="6" stroke-linecap="round" stroke-linejoin="round"/>
<path d="M35.2257 45.1765L25.7274 33.4971C23.3448 32.558 21.3665 32.0635 21.3665 32.0635C21.3665 32.0635 19.3885 24.1507 18.8939 21.678C20.3775 21.678 29.2793 23.6562 29.2793 23.6562C29.2793 23.6562 29.9095 26.2573 30.763 28.1071L38.953 37.9814" stroke="#00BCD4" stroke-width="6" stroke-linecap="round" stroke-linejoin="round"/>
</svg>
