<svg width="164" height="135" viewBox="0 0 164 135" fill="none" xmlns="http://www.w3.org/2000/svg">
<circle cx="82" cy="68.5" r="61" fill="#00BCD4"/>
<g clip-path="url(#clip0_16_17)">
<path d="M58.1442 62.4167H57.3468C56.3856 62.4167 55.4638 62.8006 54.7841 63.484C54.1044 64.1673 53.7226 65.0942 53.7226 66.0606V66.3886C53.7219 67.0276 53.5542 67.6552 53.2361 68.2084C52.918 68.7617 52.4609 69.2211 51.9105 69.5406L51.1312 69.9961C50.5803 70.3159 49.9553 70.4843 49.3191 70.4843C48.6829 70.4843 48.058 70.3159 47.507 69.9961L47.2352 69.8503C46.4035 69.368 45.4155 69.2371 44.488 69.4865C43.5605 69.7359 42.7693 70.3451 42.2881 71.1804L41.8894 71.8727C41.4097 72.7089 41.2795 73.7023 41.5276 74.6348C41.7756 75.5674 42.3815 76.3629 43.2123 76.8467L43.4841 77.0289C44.0319 77.3468 44.4873 77.8034 44.8052 78.3531C45.1231 78.9029 45.2924 79.5268 45.2962 80.1627V81.0919C45.2988 81.734 45.1325 82.3653 44.8143 82.9221C44.4961 83.4788 44.0372 83.9411 43.4841 84.2621L43.2123 84.4261C42.3815 84.9099 41.7756 85.7054 41.5276 86.638C41.2795 87.5705 41.4097 88.5639 41.8894 89.4001L42.2881 90.0924C42.7693 90.9277 43.5605 91.5369 44.488 91.7863C45.4155 92.0356 46.4035 91.9048 47.2352 91.4224L47.507 91.2767C48.058 90.9569 48.6829 90.7885 49.3191 90.7885C49.9553 90.7885 50.5803 90.9569 51.1312 91.2767L51.9105 91.7322C52.4609 92.0517 52.918 92.5111 53.2361 93.0643C53.5542 93.6176 53.7219 94.2452 53.7226 94.8842V95.2121C53.7226 96.1786 54.1044 97.1054 54.7841 97.7888C55.4638 98.4722 56.3856 98.8561 57.3468 98.8561H58.1442C59.1054 98.8561 60.0272 98.4722 60.7069 97.7888C61.3866 97.1054 61.7684 96.1786 61.7684 95.2121V94.8842C61.769 94.2452 61.9368 93.6176 62.2549 93.0643C62.5729 92.5111 63.0301 92.0517 63.5805 91.7322L64.3597 91.2767C64.9107 90.9569 65.5357 90.7885 66.1718 90.7885C66.808 90.7885 67.433 90.9569 67.984 91.2767L68.2558 91.4224C69.0874 91.9048 70.0755 92.0356 71.003 91.7863C71.9305 91.5369 72.7217 90.9277 73.2029 90.0924L73.6015 89.3818C74.0813 88.5457 74.2114 87.5523 73.9634 86.6197C73.7154 85.6872 73.1095 84.8917 72.2787 84.4079L72.0069 84.2621C71.4538 83.9411 70.9949 83.4788 70.6767 82.9221C70.3585 82.3653 70.1922 81.734 70.1948 81.0919V80.1809C70.1922 79.5388 70.3585 78.9074 70.6767 78.3507C70.9949 77.794 71.4538 77.3317 72.0069 77.0107L72.2787 76.8467C73.1095 76.3629 73.7154 75.5674 73.9634 74.6348C74.2114 73.7023 74.0813 72.7089 73.6015 71.8727L73.2029 71.1804C72.7217 70.3451 71.9305 69.7359 71.003 69.4865C70.0755 69.2371 69.0874 69.368 68.2558 69.8503L67.984 69.9961C67.433 70.3159 66.808 70.4843 66.1718 70.4843C65.5357 70.4843 64.9107 70.3159 64.3597 69.9961L63.5805 69.5406C63.0301 69.2211 62.5729 68.7617 62.2549 68.2084C61.9368 67.6552 61.769 67.0276 61.7684 66.3886V66.0606C61.7684 65.0942 61.3866 64.1673 60.7069 63.484C60.0272 62.8006 59.1054 62.4167 58.1442 62.4167V62.4167Z" stroke="white" stroke-width="2" stroke-linecap="round" stroke-linejoin="round"/>
<path d="M57.7454 86.1023C60.7479 86.1023 63.1818 83.6551 63.1818 80.6364C63.1818 77.6176 60.7479 75.1705 57.7454 75.1705C54.743 75.1705 52.3091 77.6176 52.3091 80.6364C52.3091 83.6551 54.743 86.1023 57.7454 86.1023Z" stroke="white" stroke-width="2" stroke-linecap="round" stroke-linejoin="round"/>
<path fill-rule="evenodd" clip-rule="evenodd" d="M83.967 37.8609L85.0882 37.4056C86.4399 36.8566 87.953 36.8701 89.2948 37.4429C90.6366 38.0157 91.6972 39.1009 92.2431 40.4599L92.4284 40.9211C92.7903 41.8193 93.3808 42.606 94.1405 43.2023C94.9003 43.7986 95.8027 44.1836 96.7572 44.3185L98.1102 44.5141C99.0656 44.6492 100.04 44.529 100.934 44.1657C101.829 43.8024 102.613 43.2087 103.207 42.4444L103.506 42.0842C104.403 40.931 105.719 40.1827 107.164 40.0037C108.609 39.8247 110.066 40.2295 111.214 41.1293L112.166 41.8752C113.313 42.777 114.057 44.0996 114.235 45.5526C114.413 47.0055 114.011 48.4702 113.116 49.625L112.826 50.0108C112.23 50.7781 111.846 51.6902 111.713 52.6548C111.58 53.6193 111.703 54.6021 112.069 55.5036L112.584 56.7846C112.943 57.689 113.533 58.4818 114.295 59.0829C115.057 59.6841 115.964 60.0721 116.923 60.2077L117.387 60.2574C118.829 60.4633 120.13 61.2359 121.006 62.4056C121.881 63.5753 122.26 65.0465 122.057 66.4963L121.898 67.7232C121.693 69.1726 120.925 70.481 119.761 71.3614C118.598 72.2417 117.135 72.6219 115.693 72.4186L115.228 72.3689C114.273 72.2338 113.299 72.3539 112.404 72.7172C111.51 73.0805 110.726 73.6742 110.132 74.4386L109.294 75.5241C108.7 76.2877 108.317 77.1948 108.182 78.1544C108.047 79.114 108.166 80.0923 108.526 80.9912L108.711 81.4524C109.257 82.8114 109.244 84.3328 108.674 85.6819C108.104 87.031 107.025 88.0972 105.673 88.6462L104.552 89.1015C103.201 89.6504 101.687 89.637 100.346 89.0642C99.0039 88.4914 97.9433 87.4061 97.3974 86.0471L97.2121 85.586C96.8502 84.6878 96.2597 83.9011 95.4999 83.3048C94.7402 82.7084 93.8378 82.3235 92.8833 82.1885L91.5303 81.993C90.5749 81.8579 89.6009 81.9781 88.7063 82.3414C87.8117 82.7047 87.028 83.2984 86.4339 84.0627L86.134 84.4229C85.2371 85.5761 83.9216 86.3243 82.4765 86.5034C81.0314 86.6824 79.5747 86.2776 78.4261 85.3778L77.4744 84.6319C76.3274 83.73 75.5833 82.4075 75.4052 80.9545C75.2271 79.5015 75.6298 78.0369 76.5247 76.8821L76.8143 76.4963C77.4107 75.729 77.7948 74.8169 77.9278 73.8523C78.0607 72.8877 77.9379 71.905 77.5716 71.0035L77.0466 69.6969C76.682 68.8048 76.0916 68.0242 75.334 67.4327C74.5764 66.8412 73.678 66.4593 72.7281 66.325L72.243 66.224C70.8014 66.0181 69.5 65.2455 68.6244 64.0758C67.7489 62.9061 67.3707 61.4349 67.5729 59.9851L67.7424 58.7839C67.9472 57.3345 68.7156 56.026 69.879 55.1457C71.0424 54.2654 72.5056 53.8851 73.9476 54.0885L74.4121 54.1382C75.3676 54.2733 76.3415 54.1532 77.2361 53.7898C78.1307 53.4265 78.9144 52.8329 79.5085 52.0685L80.3469 50.983C80.9404 50.2194 81.3237 49.3123 81.4584 48.3527C81.5932 47.3931 81.4745 46.4148 81.1145 45.5158L80.9292 45.0547C80.3832 43.6957 80.3966 42.1743 80.9663 40.8252C81.536 39.4761 82.6154 38.4098 83.967 37.8609ZM102.465 60.149C104.17 64.3939 102.13 69.225 97.9081 70.9396C93.6861 72.6542 88.8811 70.603 87.1757 66.3581C85.4704 62.1132 87.5105 57.2821 91.7325 55.5675C95.9545 53.8528 100.759 55.9041 102.465 60.149Z" fill="white"/>
</g>
<defs>
<clipPath id="clip0_16_17">
<rect width="92" height="74" fill="white" transform="translate(36 31.5)"/>
</clipPath>
</defs>
</svg>
