<svg width="164" height="135" viewBox="0 0 164 135" fill="none" xmlns="http://www.w3.org/2000/svg">
<circle cx="82" cy="68.5" r="61" fill="#00BCD4"/>
<path d="M81.9993 68.5C83.7022 68.5 85.0827 67.1195 85.0827 65.4166C85.0827 63.7138 83.7022 62.3333 81.9993 62.3333C80.2965 62.3333 78.916 63.7138 78.916 65.4166C78.916 67.1195 80.2965 68.5 81.9993 68.5Z" stroke="white" stroke-width="6" stroke-linecap="round" stroke-linejoin="round"/>
<path d="M97.5087 88.4183C102.442 85.0912 106.175 80.2666 108.157 74.6563C110.139 69.046 110.266 62.947 108.518 57.2594C106.77 51.5717 103.24 46.5966 98.4487 43.068C93.6576 39.5393 87.8593 37.6441 81.9091 37.6619C75.9589 37.6797 70.172 39.6096 65.4022 43.1669C60.6324 46.7242 57.1323 51.7204 55.4184 57.4184C53.7044 63.1164 53.8673 69.2144 55.8831 74.8128C57.8989 80.4112 61.6608 85.2133 66.6137 88.5108" stroke="white" stroke-width="6" stroke-linecap="round" stroke-linejoin="round"/>
<path d="M94.5192 74.3892C96.1932 72.0591 97.1838 69.3082 97.3795 66.4458C97.5752 63.5834 96.9682 60.7232 95.627 58.187C94.2857 55.6508 92.2634 53.5392 89.7874 52.0897C87.3114 50.6402 84.4801 49.9104 81.612 49.9824C78.7438 50.0544 75.9527 50.9253 73.5525 52.4971C71.1524 54.0689 69.2384 56.2793 68.0261 58.8796C66.8137 61.48 66.351 64.367 66.69 67.2159C67.0291 70.0649 68.1564 72.7627 69.9451 75.0059" stroke="white" stroke-width="6" stroke-linecap="round" stroke-linejoin="round"/>
<path d="M79.2554 83.9166C79.1961 83.5218 79.2226 83.1188 79.3333 82.7351C79.4439 82.3515 79.6361 81.9962 79.8966 81.6936C80.1571 81.391 80.4798 81.1482 80.8428 80.9817C81.2057 80.8153 81.6003 80.7291 81.9996 80.7291C82.3989 80.7291 82.7935 80.8153 83.1564 80.9817C83.5194 81.1482 83.8421 81.391 84.1026 81.6936C84.3631 81.9962 84.5553 82.3515 84.6659 82.7351C84.7766 83.1188 84.8031 83.5218 84.7438 83.9166L83.1404 98.3158C83.1404 98.6184 83.0202 98.9086 82.8063 99.1225C82.5924 99.3364 82.3022 99.4566 81.9996 99.4566C81.697 99.4566 81.4069 99.3364 81.1929 99.1225C80.979 98.9086 80.8588 98.6184 80.8588 98.3158L79.2554 83.8858V83.9166Z" stroke="white" stroke-width="6" stroke-linecap="round" stroke-linejoin="round"/>
</svg>
