<svg width="164" height="135" viewBox="0 0 164 135" fill="none" xmlns="http://www.w3.org/2000/svg">
<circle cx="82" cy="68.5" r="61" fill="#00BCD4"/>
<path fill-rule="evenodd" clip-rule="evenodd" d="M69.7526 39.2277C71.2585 37.7257 73.3009 36.8818 75.4305 36.8818H88.5702C90.6998 36.8818 92.7422 37.7257 94.2481 39.2277C95.754 40.7298 96.6 42.767 96.6 44.8912V49.9881H108.28C112.714 49.9881 116.309 53.5741 116.309 57.9976V90.7633C116.309 95.1868 112.714 98.7727 108.28 98.7727H55.7211C51.2863 98.7727 47.6913 95.1868 47.6913 90.7633V57.9976C47.6913 53.5741 51.2863 49.9881 55.7211 49.9881H67.4008V44.8912C67.4008 42.767 68.2468 40.7298 69.7526 39.2277ZM67.4008 52.9007H55.7211C52.899 52.9007 50.6112 55.1826 50.6112 57.9976V90.7633C50.6112 93.5783 52.899 95.8602 55.7211 95.8602H67.4008V52.9007ZM70.3207 95.8602V52.9007H93.6801V95.8602H70.3207ZM96.6 95.8602H108.28C111.102 95.8602 113.39 93.5783 113.39 90.7633V57.9976C113.39 55.1826 111.102 52.9007 108.28 52.9007H96.6V95.8602ZM93.6801 49.9881H70.3207V44.8912C70.3207 43.5395 70.859 42.243 71.8173 41.2872C72.7756 40.3313 74.0753 39.7943 75.4305 39.7943H88.5702C89.9254 39.7943 91.2251 40.3313 92.1834 41.2872C93.1417 42.243 93.6801 43.5395 93.6801 44.8912V49.9881Z" fill="white"/>
<path fill-rule="evenodd" clip-rule="evenodd" d="M69.2775 38.7514C70.9097 37.1234 73.123 36.2091 75.4305 36.2091H88.5702C90.8777 36.2091 93.091 37.1234 94.7232 38.7514C96.3554 40.3795 97.2727 42.588 97.2727 44.8912V49.3154H108.28C113.084 49.3154 116.982 53.2009 116.982 57.9976V90.7633C116.982 95.56 113.084 99.4455 108.28 99.4455H55.7211C50.9164 99.4455 47.0186 95.56 47.0186 90.7633V57.9976C47.0186 53.2009 50.9164 49.3154 55.7211 49.3154H66.728V44.8912C66.728 42.588 67.6453 40.3795 69.2775 38.7514ZM75.4305 37.5546C73.4788 37.5546 71.6073 38.3279 70.2277 39.704C68.8482 41.0801 68.0735 42.946 68.0735 44.8912V49.9881C68.0735 50.3597 67.7723 50.6609 67.4008 50.6609H55.7211C51.6563 50.6609 48.364 53.9472 48.364 57.9976V90.7633C48.364 94.8137 51.6563 98.1 55.7211 98.1H108.28C112.344 98.1 115.637 94.8137 115.637 90.7633V57.9976C115.637 53.9472 112.344 50.6609 108.28 50.6609H96.6C96.2285 50.6609 95.9273 50.3597 95.9273 49.9881V44.8912C95.9273 42.946 95.1526 41.0801 93.773 39.704C92.3934 38.3279 90.522 37.5546 88.5702 37.5546H75.4305ZM75.4305 40.4671C74.2532 40.4671 73.1244 40.9336 72.2924 41.7635C71.4605 42.5933 70.9934 43.7184 70.9934 44.8912V49.3154H93.0073V44.8912C93.0073 43.7184 92.5403 42.5933 91.7083 41.7635C90.8763 40.9336 89.7476 40.4671 88.5702 40.4671H75.4305ZM71.3422 40.8109C72.4268 39.7291 73.8975 39.1216 75.4305 39.1216H88.5702C90.1033 39.1216 91.5739 39.7291 92.6585 40.8109C93.7431 41.8928 94.3528 43.3605 94.3528 44.8912V49.9881C94.3528 50.3597 94.0516 50.6609 93.6801 50.6609H70.3207C69.9491 50.6609 69.648 50.3597 69.648 49.9881V44.8912C69.648 43.3605 70.2576 41.8928 71.3422 40.8109ZM55.7211 53.5734C53.2689 53.5734 51.2839 55.5558 51.2839 57.9976V90.7633C51.2839 93.2051 53.2689 95.1875 55.7211 95.1875H66.728V53.5734H55.7211ZM49.9385 57.9976C49.9385 54.8095 52.529 52.2279 55.7211 52.2279H67.4008C67.7723 52.2279 68.0735 52.5291 68.0735 52.9007V95.8602C68.0735 96.2318 67.7723 96.533 67.4008 96.533H55.7211C52.529 96.533 49.9385 93.9514 49.9385 90.7633V57.9976ZM69.648 52.9007C69.648 52.5291 69.9491 52.2279 70.3207 52.2279H93.6801C94.0516 52.2279 94.3528 52.5291 94.3528 52.9007V95.8602C94.3528 96.2318 94.0516 96.533 93.6801 96.533H70.3207C69.9491 96.533 69.648 96.2318 69.648 95.8602V52.9007ZM70.9934 53.5734V95.1875H93.0073V53.5734H70.9934ZM95.9273 52.9007C95.9273 52.5291 96.2285 52.2279 96.6 52.2279H108.28C111.472 52.2279 114.062 54.8095 114.062 57.9976V90.7633C114.062 93.9514 111.472 96.533 108.28 96.533H96.6C96.2285 96.533 95.9273 96.2318 95.9273 95.8602V52.9007ZM97.2727 53.5734V95.1875H108.28C110.732 95.1875 112.717 93.2051 112.717 90.7633V57.9976C112.717 55.5558 110.732 53.5734 108.28 53.5734H97.2727Z" fill="white"/>
<path fill-rule="evenodd" clip-rule="evenodd" d="M69.7526 39.2277C71.2585 37.7257 73.3009 36.8818 75.4305 36.8818H88.5702C90.6998 36.8818 92.7422 37.7257 94.2481 39.2277C95.754 40.7298 96.6 42.767 96.6 44.8912V49.9881H108.28C112.714 49.9881 116.309 53.5741 116.309 57.9976V90.7633C116.309 95.1868 112.714 98.7727 108.28 98.7727H55.7211C51.2863 98.7727 47.6913 95.1868 47.6913 90.7633V57.9976C47.6913 53.5741 51.2863 49.9881 55.7211 49.9881H67.4008V44.8912C67.4008 42.767 68.2468 40.7298 69.7526 39.2277ZM67.4008 52.9007H55.7211C52.899 52.9007 50.6112 55.1826 50.6112 57.9976V90.7633C50.6112 93.5783 52.899 95.8602 55.7211 95.8602H67.4008V52.9007ZM70.3207 95.8602V52.9007H93.6801V95.8602H70.3207ZM96.6 95.8602H108.28C111.102 95.8602 113.39 93.5783 113.39 90.7633V57.9976C113.39 55.1826 111.102 52.9007 108.28 52.9007H96.6V95.8602ZM93.6801 49.9881H70.3207V44.8912C70.3207 43.5395 70.859 42.243 71.8173 41.2872C72.7756 40.3313 74.0753 39.7943 75.4305 39.7943H88.5702C89.9254 39.7943 91.2251 40.3313 92.1834 41.2872C93.1417 42.243 93.6801 43.5395 93.6801 44.8912V49.9881Z" stroke="white" stroke-linecap="round" stroke-linejoin="round"/>
<path fill-rule="evenodd" clip-rule="evenodd" d="M69.2775 38.7514C70.9097 37.1234 73.123 36.2091 75.4305 36.2091H88.5702C90.8777 36.2091 93.091 37.1234 94.7232 38.7514C96.3554 40.3795 97.2727 42.588 97.2727 44.8912V49.3154H108.28C113.084 49.3154 116.982 53.2009 116.982 57.9976V90.7633C116.982 95.56 113.084 99.4455 108.28 99.4455H55.7211C50.9164 99.4455 47.0186 95.56 47.0186 90.7633V57.9976C47.0186 53.2009 50.9164 49.3154 55.7211 49.3154H66.728V44.8912C66.728 42.588 67.6453 40.3795 69.2775 38.7514ZM75.4305 37.5546C73.4788 37.5546 71.6073 38.3279 70.2277 39.704C68.8482 41.0801 68.0735 42.946 68.0735 44.8912V49.9881C68.0735 50.3597 67.7723 50.6609 67.4008 50.6609H55.7211C51.6563 50.6609 48.364 53.9472 48.364 57.9976V90.7633C48.364 94.8137 51.6563 98.1 55.7211 98.1H108.28C112.344 98.1 115.637 94.8137 115.637 90.7633V57.9976C115.637 53.9472 112.344 50.6609 108.28 50.6609H96.6C96.2285 50.6609 95.9273 50.3597 95.9273 49.9881V44.8912C95.9273 42.946 95.1526 41.0801 93.773 39.704C92.3934 38.3279 90.522 37.5546 88.5702 37.5546H75.4305ZM75.4305 40.4671C74.2532 40.4671 73.1244 40.9336 72.2924 41.7635C71.4605 42.5933 70.9934 43.7184 70.9934 44.8912V49.3154H93.0073V44.8912C93.0073 43.7184 92.5403 42.5933 91.7083 41.7635C90.8763 40.9336 89.7476 40.4671 88.5702 40.4671H75.4305ZM71.3422 40.8109C72.4268 39.7291 73.8975 39.1216 75.4305 39.1216H88.5702C90.1033 39.1216 91.5739 39.7291 92.6585 40.8109C93.7431 41.8928 94.3528 43.3605 94.3528 44.8912V49.9881C94.3528 50.3597 94.0516 50.6609 93.6801 50.6609H70.3207C69.9491 50.6609 69.648 50.3597 69.648 49.9881V44.8912C69.648 43.3605 70.2576 41.8928 71.3422 40.8109ZM55.7211 53.5734C53.2689 53.5734 51.2839 55.5558 51.2839 57.9976V90.7633C51.2839 93.2051 53.2689 95.1875 55.7211 95.1875H66.728V53.5734H55.7211ZM49.9385 57.9976C49.9385 54.8095 52.529 52.2279 55.7211 52.2279H67.4008C67.7723 52.2279 68.0735 52.5291 68.0735 52.9007V95.8602C68.0735 96.2318 67.7723 96.533 67.4008 96.533H55.7211C52.529 96.533 49.9385 93.9514 49.9385 90.7633V57.9976ZM69.648 52.9007C69.648 52.5291 69.9491 52.2279 70.3207 52.2279H93.6801C94.0516 52.2279 94.3528 52.5291 94.3528 52.9007V95.8602C94.3528 96.2318 94.0516 96.533 93.6801 96.533H70.3207C69.9491 96.533 69.648 96.2318 69.648 95.8602V52.9007ZM70.9934 53.5734V95.1875H93.0073V53.5734H70.9934ZM95.9273 52.9007C95.9273 52.5291 96.2285 52.2279 96.6 52.2279H108.28C111.472 52.2279 114.062 54.8095 114.062 57.9976V90.7633C114.062 93.9514 111.472 96.533 108.28 96.533H96.6C96.2285 96.533 95.9273 96.2318 95.9273 95.8602V52.9007ZM97.2727 53.5734V95.1875H108.28C110.732 95.1875 112.717 93.2051 112.717 90.7633V57.9976C112.717 55.5558 110.732 53.5734 108.28 53.5734H97.2727Z" stroke="white" stroke-linecap="round" stroke-linejoin="round"/>
</svg>
