<svg width="164" height="135" viewBox="0 0 164 135" fill="none" xmlns="http://www.w3.org/2000/svg">
<circle cx="82" cy="68.5" r="61" fill="#00BCD4"/>
<path fill-rule="evenodd" clip-rule="evenodd" d="M55.5009 35.7741C57.056 34.2191 59.1651 33.3455 61.3642 33.3455H88.4914C88.8919 33.3455 89.276 33.5046 89.5592 33.7878L109.905 54.1331C110.188 54.4163 110.347 54.8005 110.347 55.201V95.8917C110.347 98.0908 109.473 100.2 107.918 101.755C106.363 103.31 104.254 104.184 102.055 104.184H61.3642C59.1651 104.184 57.056 103.31 55.5009 101.755C53.9459 100.2 53.0723 98.0908 53.0723 95.8917V41.6374C53.0723 39.4383 53.9459 37.3292 55.5009 35.7741ZM61.3642 36.3659C59.9661 36.3659 58.6253 36.9213 57.6367 37.9099C56.6481 38.8985 56.0927 40.2393 56.0927 41.6374V95.8917C56.0927 97.2898 56.6481 98.6306 57.6367 99.6192C58.6253 100.608 59.9661 101.163 61.3642 101.163H102.055C103.453 101.163 104.794 100.608 105.782 99.6192C106.771 98.6306 107.326 97.2898 107.326 95.8917V56.7112L88.4914 56.7112C88.0908 56.7112 87.7067 56.5521 87.4235 56.2689C87.1403 55.9857 86.9811 55.6015 86.9811 55.201L86.9812 36.3659H61.3642ZM90.0016 38.5016L105.191 53.6908L90.0016 53.6908V38.5016ZM66.6358 58.5919C66.6358 57.7578 67.312 57.0817 68.146 57.0817H74.9278C75.7619 57.0817 76.438 57.7578 76.438 58.5919C76.438 59.4259 75.7619 60.1021 74.9278 60.1021H68.146C67.312 60.1021 66.6358 59.4259 66.6358 58.5919ZM66.6358 72.1554C66.6358 71.3214 67.312 70.6452 68.146 70.6452H95.2731C96.1072 70.6452 96.7833 71.3214 96.7833 72.1554C96.7833 72.9895 96.1072 73.6656 95.2731 73.6656H68.146C67.312 73.6656 66.6358 72.9895 66.6358 72.1554ZM66.6358 85.719C66.6358 84.8849 67.312 84.2088 68.146 84.2088H95.2731C96.1072 84.2088 96.7833 84.8849 96.7833 85.719C96.7833 86.5531 96.1072 87.2292 95.2731 87.2292H68.146C67.312 87.2292 66.6358 86.5531 66.6358 85.719Z" fill="white" stroke="white" stroke-linecap="round" stroke-linejoin="round"/>
</svg>
