<svg width="122" height="123" viewBox="0 0 122 123" fill="none" xmlns="http://www.w3.org/2000/svg">
<circle cx="61" cy="61.5" r="61" fill="#00BCD4"/>
<path fill-rule="evenodd" clip-rule="evenodd" d="M42.3571 39.3462C41.4775 39.3462 40.619 39.703 39.9747 40.3623C39.3279 41.024 38.9524 41.9362 38.9524 42.9017V85.0214C38.9524 85.9869 39.3279 86.8991 39.9747 87.5608C40.619 88.2201 41.4776 88.5769 42.3571 88.5769H77.6429C78.5225 88.5769 79.381 88.2201 80.0253 87.5608C80.6721 86.8991 81.0476 85.9869 81.0476 85.0214V42.9017C81.0476 41.9362 80.6721 41.024 80.0253 40.3623C79.381 39.703 78.5225 39.3462 77.6429 39.3462H73C71.6324 39.3462 70.5238 38.2441 70.5238 36.8846C70.5238 35.5251 71.6324 34.4231 73 34.4231H77.6429C79.8827 34.4231 82.0159 35.3341 83.5773 36.9317C85.1363 38.5268 86 40.6756 86 42.9017V85.0214C86 87.2475 85.1363 89.3963 83.5773 90.9914C82.0159 92.589 79.8827 93.5 77.6429 93.5H42.3571C40.1173 93.5 37.9841 92.589 36.4227 90.9914C34.8637 89.3963 34 87.2475 34 85.0214V42.9017C34 40.6756 34.8637 38.5268 36.4227 36.9317C37.9841 35.3341 40.1173 34.4231 42.3571 34.4231H48.2381C49.6057 34.4231 50.7143 35.5251 50.7143 36.8846C50.7143 38.2441 49.6057 39.3462 48.2381 39.3462H42.3571Z" fill="white"/>
<path fill-rule="evenodd" clip-rule="evenodd" d="M51.4214 34.5596C51.3465 34.6301 51.3333 34.6901 51.3333 34.7308V40.2692C51.3333 40.3099 51.3465 40.3699 51.4214 40.4404C51.4985 40.5131 51.626 40.5769 51.7976 40.5769H69.4405C69.6121 40.5769 69.7396 40.5131 69.8167 40.4404C69.8915 40.3699 69.9048 40.3099 69.9048 40.2692V34.7308C69.9048 34.6901 69.8915 34.6301 69.8167 34.5596C69.7396 34.4869 69.6121 34.4231 69.4405 34.4231H51.7976C51.626 34.4231 51.4985 34.4869 51.4214 34.5596ZM46.381 34.7308C46.381 31.7182 48.9339 29.5 51.7976 29.5H69.4405C72.3042 29.5 74.8571 31.7182 74.8571 34.7308V40.2692C74.8571 43.2818 72.3042 45.5 69.4405 45.5H51.7976C48.9339 45.5 46.381 43.2818 46.381 40.2692V34.7308Z" fill="white"/>
<path fill-rule="evenodd" clip-rule="evenodd" d="M53.9157 52.9902C54.3801 52.5286 55.0099 52.2692 55.6667 52.2692H62.4762C63.16 52.2692 63.7143 52.8203 63.7143 53.5C63.7143 54.1797 63.16 54.7308 62.4762 54.7308H55.6667V63.3462H64.3333V59.0385C64.3333 58.3587 64.8876 57.8077 65.5714 57.8077C66.2552 57.8077 66.8095 58.3587 66.8095 59.0385V63.3462C66.8095 63.999 66.5486 64.6251 66.0843 65.0867C65.6199 65.5484 64.9901 65.8077 64.3333 65.8077H55.6667C55.0099 65.8077 54.3801 65.5484 53.9157 65.0867C53.4514 64.6251 53.1905 63.999 53.1905 63.3462V54.7308C53.1905 54.0779 53.4514 53.4518 53.9157 52.9902ZM67.0659 53.2451C67.5494 53.7257 67.5494 54.505 67.0659 54.9857L60.8755 61.1395C60.392 61.6202 59.608 61.6202 59.1245 61.1395L57.2674 59.2934C56.7839 58.8127 56.7839 58.0334 57.2674 57.5528C57.7509 57.0721 58.5348 57.0721 59.0183 57.5528L60 58.5287L65.315 53.2451C65.7985 52.7645 66.5824 52.7645 67.0659 53.2451ZM53.9157 70.8364C54.3801 70.3747 55.0099 70.1154 55.6667 70.1154H62.4762C63.16 70.1154 63.7143 70.6664 63.7143 71.3462C63.7143 72.0259 63.16 72.5769 62.4762 72.5769H55.6667V81.1923H64.3333V76.8846C64.3333 76.2049 64.8876 75.6538 65.5714 75.6538C66.2552 75.6538 66.8095 76.2049 66.8095 76.8846V81.1923C66.8095 81.8451 66.5486 82.4712 66.0843 82.9329C65.6199 83.3945 64.9901 83.6538 64.3333 83.6538H55.6667C55.0099 83.6538 54.3801 83.3945 53.9157 82.9329C53.4514 82.4712 53.1905 81.8451 53.1905 81.1923V72.5769C53.1905 71.9241 53.4514 71.298 53.9157 70.8364ZM67.0659 71.0913C67.5494 71.5719 67.5494 72.3512 67.0659 72.8318L60.8755 78.9857C60.392 79.4663 59.608 79.4663 59.1245 78.9857L57.2674 77.1395C56.7839 76.6589 56.7839 75.8796 57.2674 75.3989C57.7509 74.9183 58.5348 74.9183 59.0183 75.3989L60 76.3748L65.315 71.0913C65.7985 70.6106 66.5824 70.6106 67.0659 71.0913Z" fill="white"/>
</svg>
