<svg width="41" height="41" viewBox="0 0 41 41" fill="none" xmlns="http://www.w3.org/2000/svg">
<path d="M18.8734 41C18.5065 41 18.1948 40.8914 17.938 40.6743C17.7179 40.421 17.6079 40.1133 17.6079 39.7514V9.35143L8.47424 16.3C8.18079 16.5171 7.869 16.6076 7.53886 16.5714C7.20873 16.5352 6.93362 16.3724 6.71354 16.0829L5.28297 14.2914C5.06288 13.9657 4.97118 13.64 5.00786 13.3143C5.08122 12.9886 5.26463 12.7171 5.55808 12.5L17.5528 3.38C17.8096 3.19905 18.048 3.09048 18.2681 3.05429C18.4882 3.0181 18.7266 3 18.9834 3H21.7895C22.1563 3 22.4498 3.12667 22.6699 3.38C22.89 3.59714 23 3.88667 23 4.24857V39.7514C23 40.1133 22.89 40.421 22.6699 40.6743C22.4498 40.8914 22.1563 41 21.7895 41H18.8734Z" fill="#F04148"/>
</svg>
