<svg width="41" height="41" viewBox="0 0 41 41" fill="none" xmlns="http://www.w3.org/2000/svg">
<path d="M19.2168 35.875V28.1106C17.1796 27.8529 15.2665 26.9898 13.7252 25.633C12.1838 24.2762 11.085 22.4881 10.5709 20.5H9.26407C8.43732 20.5001 7.63255 20.2337 6.96921 19.7402C6.30587 19.2468 5.81932 18.5526 5.58176 17.7607L3.74701 11.6466C3.60914 11.1873 3.58061 10.7021 3.66369 10.2298C3.74677 9.75746 3.93916 9.31114 4.2255 8.92645C4.51183 8.54177 4.88417 8.22938 5.31277 8.01426C5.74136 7.79913 6.21433 7.68723 6.69389 7.6875H10.2481V3.84375C10.2481 3.50394 10.3831 3.17805 10.6233 2.93777C10.8636 2.69749 11.1895 2.5625 11.5293 2.5625H29.4668C29.8066 2.5625 30.1325 2.69749 30.3728 2.93777C30.6131 3.17805 30.7481 3.50394 30.7481 3.84375V7.6875H34.3023C34.7818 7.68723 35.2548 7.79913 35.6834 8.01426C36.112 8.22938 36.4843 8.54177 36.7706 8.92645C37.057 9.31114 37.2494 9.75746 37.3325 10.2298C37.4155 10.7021 37.387 11.1873 37.2491 11.6466L35.4118 17.7581C35.1748 18.5501 34.6889 19.2445 34.026 19.7384C33.3631 20.2324 32.5587 20.4994 31.7321 20.5H30.4252C29.9111 22.4881 28.8124 24.2762 27.271 25.633C25.7296 26.9898 23.8166 27.8529 21.7793 28.1106V35.875H26.9043C27.2441 35.875 27.57 36.01 27.8103 36.2503C28.0506 36.4906 28.1856 36.8164 28.1856 37.1562C28.1856 37.4961 28.0506 37.8219 27.8103 38.0622C27.57 38.3025 27.2441 38.4375 26.9043 38.4375H14.0918C13.752 38.4375 13.4261 38.3025 13.1858 38.0622C12.9456 37.8219 12.8106 37.4961 12.8106 37.1562C12.8106 36.8164 12.9456 36.4906 13.1858 36.2503C13.4261 36.01 13.752 35.875 14.0918 35.875H19.2168ZM28.1856 17.9375V5.125H12.8106V17.9375C12.8106 19.9764 13.6205 21.9317 15.0622 23.3734C16.5039 24.8151 18.4592 25.625 20.4981 25.625C22.5369 25.625 24.4923 24.8151 25.934 23.3734C27.3756 21.9317 28.1856 19.9764 28.1856 17.9375ZM30.7481 17.9375H31.7321C32.0075 17.9376 32.2757 17.8489 32.4968 17.6846C32.7179 17.5203 32.8802 17.2891 32.9595 17.0253L34.7943 10.9086C34.817 10.832 34.8216 10.7512 34.8076 10.6726C34.7936 10.594 34.7614 10.5197 34.7136 10.4558C34.6658 10.3918 34.6037 10.3399 34.5323 10.3042C34.4609 10.2684 34.3821 10.2499 34.3023 10.25H30.7481V17.9375ZM10.2481 17.9375V10.25H6.69389C6.61403 10.2499 6.53526 10.2684 6.46384 10.3042C6.39243 10.3399 6.33035 10.3918 6.28256 10.4558C6.23477 10.5197 6.20258 10.594 6.18858 10.6726C6.17457 10.7512 6.17913 10.832 6.20189 10.9086L8.03664 17.0253C8.11597 17.2891 8.27822 17.5203 8.49932 17.6846C8.72042 17.8489 8.9886 17.9376 9.26407 17.9375H10.2481Z" fill="#FFAE34"/>
</svg>
