<svg width="50" height="50" viewBox="0 0 50 50" fill="none" xmlns="http://www.w3.org/2000/svg">
<path d="M12.5013 35.4167L16.668 25H45.8346L39.5846 41.6667C39.1766 42.3894 38.562 42.9738 37.8197 43.345C37.0773 43.7162 36.241 43.8572 35.418 43.75H8.33464C7.22957 43.75 6.16976 43.311 5.38836 42.5296C4.60696 41.7482 4.16797 40.6884 4.16797 39.5833V10.4167C4.16797 9.3116 4.60696 8.25179 5.38836 7.47039C6.16976 6.68899 7.22957 6.25 8.33464 6.25H18.7513L22.918 12.5H37.5013C38.6064 12.5 39.6662 12.939 40.4476 13.7204C41.229 14.5018 41.668 15.5616 41.668 16.6667V25" stroke="#33DD44" stroke-width="4" stroke-linecap="round" stroke-linejoin="round"/>
</svg>
