<svg width="41" height="41" viewBox="0 0 41 41" fill="none" xmlns="http://www.w3.org/2000/svg">
<g clip-path="url(#clip0_224_7461)">
<path d="M30.5804 31.5184L27.6588 18.209L33.3396 12.5282C35.7743 10.0935 36.5858 6.84734 35.7743 5.22425C34.1512 4.41271 30.905 5.22425 28.4703 7.65889L22.7895 13.3397L9.48016 10.4181C8.66861 10.2558 8.01938 10.5805 7.69476 11.2297L7.20783 12.0412C6.88321 12.8528 7.04552 13.6643 7.69476 14.1513L16.2971 19.8321L13.051 24.7014H8.18169L6.55859 26.3245L11.4279 29.5706L14.6741 34.4399L16.2971 32.8168V27.9476L21.1664 24.7014L26.8473 33.3038C27.3342 33.953 28.1457 34.1153 28.9573 33.7907L29.7688 33.4661C30.4181 32.9791 30.7427 32.3299 30.5804 31.5184V31.5184Z" stroke="#F04148" stroke-width="3" stroke-linecap="round" stroke-linejoin="round"/>
<g clip-path="url(#clip1_224_7461)">
<path d="M6.00073 37.7429C5.99653 37.965 5.93826 38.1828 5.83096 38.3773C5.72367 38.5718 5.57058 38.7372 5.38495 38.8592C5.19933 38.9812 4.98676 39.0561 4.76566 39.0774C4.54455 39.0988 4.32158 39.0659 4.11604 38.9817C3.9105 38.8975 3.72859 38.7644 3.58606 38.594C3.44353 38.4236 3.34469 38.2211 3.29807 38.0039C3.25146 37.7867 3.25849 37.5614 3.31855 37.3476C3.37861 37.1337 3.4899 36.9377 3.64277 36.7766L10.4074 30.0119" stroke="#F04148" stroke-width="2" stroke-linecap="round" stroke-linejoin="round"/>
<path d="M10.3304 35.8104C10.3321 35.9913 10.289 36.1698 10.2048 36.33C10.1206 36.4901 9.99805 36.6268 9.84802 36.7279C9.698 36.829 9.52523 36.8913 9.34521 36.9092C9.16519 36.9271 8.98355 36.9 8.81656 36.8304C8.64957 36.7609 8.50245 36.6509 8.3884 36.5105C8.27435 36.3701 8.19692 36.2036 8.16306 36.0259C8.1292 35.8481 8.13997 35.6648 8.19439 35.4923C8.24882 35.3198 8.3452 35.1634 8.4749 35.0373L11.9539 31.5584" stroke="#F04148" stroke-width="2" stroke-linecap="round" stroke-linejoin="round"/>
<path d="M3.45148 31.2489C3.27058 31.2471 3.09207 31.2903 2.93194 31.3744C2.77182 31.4586 2.63508 31.5812 2.53399 31.7312C2.4329 31.8813 2.37062 32.054 2.35273 32.2341C2.33483 32.4141 2.36189 32.5957 2.43147 32.7627C2.50105 32.9297 2.61097 33.0768 2.7514 33.1909C2.89182 33.3049 3.05835 33.3823 3.23606 33.4162C3.41377 33.4501 3.5971 33.4393 3.76963 33.3849C3.94215 33.3305 4.09847 33.2341 4.22458 33.1044L8.8632 28.4657" stroke="#F04148" stroke-width="2" stroke-linecap="round" stroke-linejoin="round"/>
</g>
</g>
<defs>
<clipPath id="clip0_224_7461">
<rect width="41" height="41" fill="white"/>
</clipPath>
<clipPath id="clip1_224_7461">
<rect width="13.12" height="13.12" fill="white" transform="translate(15.8203 33.8774) rotate(135)"/>
</clipPath>
</defs>
</svg>
