<svg width="41" height="41" viewBox="0 0 41 41" fill="none" xmlns="http://www.w3.org/2000/svg">
<g clip-path="url(#clip0_224_7468)">
<path d="M20.6751 0.000933203C21.3465 0.000933203 22.0076 0.0444957 22.6226 0.146996C23.2283 0.226363 23.8259 0.358405 24.4087 0.541621C24.9929 0.718433 25.5644 0.938808 26.1358 1.21556C26.6919 1.4795 27.2633 1.80237 27.8348 2.15343C28.8008 2.76843 29.7515 3.26556 30.7201 3.66275C32.627 4.42594 34.6434 4.88009 36.6933 5.00806C37.7337 5.08237 38.8023 5.12593 39.9144 5.12593V15.3759C39.9144 17.3234 39.6658 19.1684 39.1687 20.9263C38.6912 22.6591 38.0126 24.3301 37.1469 25.9052C36.2848 27.4782 35.2648 28.9593 34.1026 30.3256C32.9227 31.7229 31.645 33.0348 30.2794 34.2513C28.8957 35.4714 27.4383 36.6053 25.9154 37.6466C24.3933 38.7024 22.8558 39.6838 21.3183 40.5756L20.7033 40.942L20.0883 40.5756C18.5078 39.6605 16.9639 38.6834 15.4604 37.6466C13.9291 36.6171 12.4709 35.4826 11.0965 34.2513C9.73169 33.0347 8.45492 31.7229 7.27582 30.3256C6.11678 28.9535 5.0922 27.4732 4.21619 25.9052C3.36527 24.3231 2.68741 22.6538 2.19438 20.9263C1.6941 19.1191 1.44745 17.2511 1.46151 15.3759V5.12593C2.57619 5.12593 3.64476 5.08237 4.68513 5.00806C5.70926 4.93692 6.72676 4.79047 7.72938 4.56987C8.71082 4.3495 9.69226 4.05737 10.6583 3.66275C11.6608 3.25816 12.6219 2.75787 13.5283 2.16881C14.6558 1.43593 15.7987 0.895246 16.9262 0.539058C18.1405 0.166808 19.4052 -0.0147275 20.6751 0.000933203ZM37.3365 7.64487C35.3968 7.55075 33.4751 7.22646 31.6119 6.67881C29.7585 6.12596 27.9932 5.31234 26.369 4.26237C25.5265 3.70937 24.6116 3.27561 23.6502 2.97343C22.6898 2.68319 21.6912 2.53978 20.6879 2.54806C19.6773 2.54152 18.6712 2.68487 17.7026 2.97343C16.7398 3.26579 15.826 3.70022 14.9915 4.26237C13.3645 5.31806 11.5946 6.13525 9.73582 6.68906C7.91901 7.21693 6.01763 7.53981 4.02401 7.65768V15.3887C4.02401 17.0877 4.24438 18.7123 4.68513 20.278C5.13415 21.8301 5.75288 23.3279 6.53013 24.7444C7.31669 26.1757 8.24376 27.5251 9.29763 28.7727C10.3662 30.0309 11.5065 31.2019 12.7365 32.3141C13.9665 33.4287 15.2554 34.4537 16.6033 35.4044C17.964 36.3577 19.3273 37.2212 20.6879 38.0105C22.0812 37.1994 23.4397 36.3299 24.7598 35.4044C26.1165 34.4567 27.4123 33.4246 28.6394 32.3141C29.8694 31.2019 31.0123 30.0309 32.0808 28.7727C33.1348 27.5252 34.0619 26.1758 34.8483 24.7444C35.6221 23.3297 36.2317 21.8312 36.6651 20.278C37.1193 18.6883 37.3453 17.0421 37.3365 15.3887V7.64487Z" fill="#33DD44"/>
<path fill-rule="evenodd" clip-rule="evenodd" d="M30.2292 12.0673L29.1018 11.0986L28.0614 11.1883L16.8889 24.3801L13.0836 18.9476L12.0586 18.7733L10.8721 19.6215L10.6953 20.6465L15.5871 27.6319L16.1432 27.9394L17.3143 28.0111L17.9139 27.7498L30.3036 13.1051L30.2292 12.0673Z" fill="#33DD44"/>
</g>
<defs>
<clipPath id="clip0_224_7468">
<rect width="41" height="41" fill="white"/>
</clipPath>
</defs>
</svg>
