<svg width="50" height="50" viewBox="0 0 50 50" fill="none" xmlns="http://www.w3.org/2000/svg">
<path d="M42.6355 23.1706C44.9928 23.1706 46.9038 21.2596 46.9038 18.9023C46.9038 16.545 44.9928 14.634 42.6355 14.634C40.2782 14.634 38.3672 16.545 38.3672 18.9023C38.3672 21.2596 40.2782 23.1706 42.6355 23.1706Z" stroke="#00BCD4" stroke-width="4" stroke-linecap="round" stroke-linejoin="round"/>
<path d="M23.7335 35.366C26.4276 35.366 28.6116 33.182 28.6116 30.4879C28.6116 27.7938 26.4276 25.6099 23.7335 25.6099C21.0394 25.6099 18.8555 27.7938 18.8555 30.4879C18.8555 33.182 21.0394 35.366 23.7335 35.366Z" stroke="#00BCD4" stroke-width="4" stroke-linecap="round" stroke-linejoin="round"/>
<path d="M42.6355 46.3415C44.9928 46.3415 46.9038 44.4305 46.9038 42.0732C46.9038 39.7159 44.9928 37.8049 42.6355 37.8049C40.2782 37.8049 38.3672 39.7159 38.3672 42.0732C38.3672 44.4305 40.2782 46.3415 42.6355 46.3415Z" stroke="#00BCD4" stroke-width="4" stroke-linecap="round" stroke-linejoin="round"/>
<path d="M28.6094 34.1462L39.585 40.2438" stroke="#00BCD4" stroke-width="4" stroke-linecap="round" stroke-linejoin="round"/>
<path d="M39.585 20.7317L28.6094 26.8293" stroke="#00BCD4" stroke-width="4" stroke-linecap="round" stroke-linejoin="round"/>
<path d="M21.3842 6.01429C19.5712 4.20137 16.6319 4.20137 14.819 6.01429C13.006 7.82722 13.006 10.7665 14.819 12.5795C16.6319 14.3924 19.5712 14.3924 21.3842 12.5795C23.1971 10.7665 23.1971 7.82722 21.3842 6.01429Z" stroke="#00BCD4" stroke-width="4" stroke-linecap="round" stroke-linejoin="round"/>
<path d="M7.19046 22.5381C5.42833 22.8352 4.2407 24.5045 4.53782 26.2667C4.83493 28.0288 6.50428 29.2164 8.26641 28.9193C10.0285 28.6222 11.2162 26.9529 10.9191 25.1907C10.6219 23.4286 8.95259 22.241 7.19046 22.5381Z" stroke="#00BCD4" stroke-width="4" stroke-linecap="round" stroke-linejoin="round"/>
<path d="M8.44369 42.7788C8.13166 44.663 9.40616 46.4434 11.2904 46.7554C13.1746 47.0675 14.955 45.793 15.267 43.9087C15.5791 42.0245 14.3046 40.2441 12.4204 39.9321C10.5361 39.62 8.75573 40.8945 8.44369 42.7788Z" stroke="#00BCD4" stroke-width="4" stroke-linecap="round" stroke-linejoin="round"/>
<path d="M22.3906 25.6006L19.2722 13.7723" stroke="#00BCD4" stroke-width="4" stroke-linecap="round" stroke-linejoin="round"/>
<path d="M18.7227 29.8799L10.745 26.8718" stroke="#00BCD4" stroke-width="4" stroke-linecap="round" stroke-linejoin="round"/>
<path d="M19.8711 33.6763L14.0586 40.694" stroke="#00BCD4" stroke-width="4" stroke-linecap="round" stroke-linejoin="round"/>
</svg>
