<svg width="55" height="55" viewBox="0 0 55 55" fill="none" xmlns="http://www.w3.org/2000/svg">
<path d="M30.5503 33.8824V30.2624C30.5503 28.8351 29.4008 27.6739 27.988 27.6739C26.5751 27.6739 25.4257 28.8351 25.4257 30.2624V33.5308C25.4257 37.4695 23.9894 41.251 21.3812 44.1786L17.7852 48.2152C17.483 48.5543 17.5103 49.0767 17.846 49.382C18.1816 49.6872 18.6987 49.6597 19.0009 49.3206L22.5969 45.284C25.4757 42.0523 27.0612 37.8784 27.0612 33.5308V30.2624C27.0612 29.7461 27.4769 29.3261 27.988 29.3261C28.499 29.3261 28.9148 29.7461 28.9148 30.2624V33.8824C28.9148 38.7294 27.1374 43.3738 23.91 46.9603L20.4047 50.8557C20.1009 51.1932 20.1256 51.7159 20.4598 52.0228C20.6164 52.1668 20.8133 52.2376 21.0095 52.2376C21.2319 52.2376 21.4535 52.1465 21.6149 51.9672L25.1201 48.0718C28.6218 44.1805 30.5503 39.1413 30.5503 33.8824Z" fill="white"/>
<path d="M34.0393 30.2624C34.0393 26.8915 31.3247 24.149 27.988 24.149C24.6512 24.149 21.9366 26.8915 21.9366 30.2624V33.5308C21.9366 36.5973 20.8184 39.5413 18.7878 41.8206L16.2313 44.6904C15.9292 45.0295 15.9565 45.5518 16.2922 45.8572C16.6279 46.1624 17.1448 46.1347 17.4471 45.7957L20.0036 42.9259C22.3048 40.3428 23.5722 37.0062 23.5722 33.5308V30.2624C23.5722 27.8025 25.5532 25.8013 27.9881 25.8013C30.423 25.8013 32.4039 27.8025 32.4039 30.2624V33.8824C32.4039 39.608 30.3044 45.0946 26.4918 49.3314L23.5343 52.6182C23.2304 52.9557 23.2551 53.4783 23.5892 53.7852C23.7459 53.9292 23.9427 54 24.139 54C24.3614 54 24.583 53.9089 24.7443 53.7296L27.702 50.4428C31.7887 45.9012 34.0393 40.0201 34.0393 33.8824V30.2624Z" fill="white"/>
<path d="M37.5284 30.2624C37.5284 24.9478 33.2486 20.6242 27.988 20.6242C22.7273 20.6242 18.4476 24.9478 18.4476 30.2624V33.5308C18.4476 35.725 17.6474 37.8317 16.1944 39.4626L13.8925 42.0465C13.5903 42.3857 13.6176 42.908 13.9533 43.2133C14.2889 43.5186 14.8061 43.4908 15.1082 43.1519L17.4101 40.5679C19.1338 38.6331 20.0831 36.1339 20.0831 33.5308V30.2624C20.0831 25.8589 23.6292 22.2765 27.988 22.2765C32.3468 22.2765 35.8929 25.8589 35.8929 30.2624V33.8824C35.8929 40.4869 33.4711 46.8155 29.0734 51.7024L28.2549 52.612C27.9511 52.9496 27.9758 53.4722 28.31 53.779C28.4666 53.9229 28.6636 53.9938 28.8597 53.9938C29.0821 53.9938 29.3037 53.9027 29.4651 53.7234L30.2835 52.8138C34.9553 47.622 37.5283 40.8988 37.5283 33.8824V30.2624H37.5284Z" fill="white"/>
<path d="M14.9585 30.2624C14.9585 30.7188 15.3246 31.0886 15.7762 31.0886C16.2279 31.0886 16.594 30.7188 16.594 30.2624C16.594 27.4806 17.5937 24.7933 19.4091 22.6956C21.2076 20.6174 23.676 19.2583 26.3596 18.8688C26.8066 18.8039 27.1169 18.3851 27.0527 17.9336C26.9885 17.482 26.5736 17.169 26.127 17.2334C23.0566 17.6791 20.2335 19.2326 18.1778 21.6082C16.1018 24.0069 14.9585 27.0805 14.9585 30.2624Z" fill="white"/>
<path d="M16.594 33.5308C16.594 33.0745 16.2278 32.7047 15.7762 32.7047C15.3246 32.7047 14.9585 33.0745 14.9585 33.5308C14.9585 34.8529 14.4764 36.1219 13.6011 37.1045L11.5536 39.403C11.2515 39.742 11.2787 40.2644 11.6144 40.5697C11.7708 40.7118 11.9663 40.7817 12.1612 40.7817C12.385 40.7817 12.6079 40.6894 12.7693 40.5082L14.8168 38.2098C15.9628 36.9234 16.594 35.2617 16.594 33.5308Z" fill="white"/>
<path d="M39.4124 40.9056C38.9753 40.7906 38.5287 41.0544 38.4142 41.4956C38.1123 42.6609 37.7368 43.8194 37.2977 44.9387C37.1313 45.3629 37.3368 45.8431 37.7567 46.0111C37.8556 46.0506 37.9575 46.0693 38.0578 46.0693C38.3832 46.0693 38.691 45.8716 38.8183 45.5473C39.2816 44.366 39.6779 43.1436 39.9965 41.9139C40.1108 41.4726 39.8492 41.0211 39.4124 40.9056Z" fill="white"/>
<path d="M36.6905 20.4735C36.3546 20.1683 35.8375 20.1963 35.5356 20.5355C35.2337 20.8748 35.2612 21.3971 35.597 21.7021C38.0024 23.8866 39.3819 27.0067 39.3819 30.2624V33.8824C39.3819 35.2563 39.2881 36.6408 39.1031 37.9976C39.0415 38.4496 39.3542 38.8664 39.8015 38.9287C39.8394 38.934 39.877 38.9365 39.9142 38.9365C40.3163 38.9365 40.6668 38.6367 40.7232 38.2229C40.9184 36.7917 41.0174 35.3314 41.0174 33.8823V30.2624C41.0175 26.5388 39.4403 22.9709 36.6905 20.4735Z" fill="white"/>
<path d="M32.8676 19.8615C32.9811 19.9161 33.1007 19.9419 33.2185 19.9419C33.5242 19.9419 33.8173 19.768 33.9575 19.4707C34.1516 19.0588 33.9784 18.5658 33.5707 18.3697C32.3925 17.803 31.1402 17.4207 29.8487 17.2333C29.4011 17.1689 28.9873 17.482 28.9231 17.9335C28.8588 18.385 29.1691 18.8038 29.6162 18.8687C30.7445 19.0325 31.8383 19.3665 32.8676 19.8615Z" fill="white"/>
<path d="M27.988 13.5745C27.682 13.5745 27.3726 13.5831 27.0681 13.6001C26.6171 13.6252 26.2717 14.0149 26.2965 14.4704C26.3215 14.926 26.7068 15.2768 27.1581 15.2497C27.4328 15.2344 27.7119 15.2267 27.9879 15.2267C36.1944 15.2267 42.8709 21.9716 42.8709 30.2623V33.8823C42.8709 34.3387 43.2371 34.7085 43.6887 34.7085C44.1403 34.7085 44.5064 34.3387 44.5064 33.8823V30.2624C44.5065 21.0607 37.0963 13.5745 27.988 13.5745Z" fill="white"/>
<path d="M19.0468 18.0569C19.2078 18.0569 19.3706 18.0089 19.5129 17.909C20.8734 16.9532 22.3676 16.2396 23.9542 15.7877C24.3889 15.6639 24.642 15.2074 24.5194 14.7683C24.3969 14.3293 23.9449 14.0739 23.5104 14.1973C21.7484 14.6992 20.0894 15.4915 18.5793 16.5522C18.2084 16.8127 18.1169 17.3276 18.3747 17.7021C18.5336 17.9332 18.7881 18.0569 19.0468 18.0569Z" fill="white"/>
<path d="M13.1049 33.5308V30.2624C13.1049 26.4192 14.5456 22.7591 17.1615 19.9561C17.4713 19.6241 17.4561 19.1013 17.1275 18.7883C16.7989 18.4752 16.2813 18.4908 15.9715 18.8227C13.0683 21.9334 11.4694 25.9963 11.4694 30.2624V33.5308C11.4694 33.9806 11.3054 34.4123 11.0078 34.7463L9.99942 35.8781C9.69729 36.2173 9.72455 36.7396 10.0603 37.0449C10.2165 37.1871 10.4121 37.257 10.6071 37.257C10.8308 37.257 11.0537 37.1648 11.2151 36.9836L12.2235 35.8518C12.7919 35.2136 13.1049 34.3893 13.1049 33.5308Z" fill="white"/>
<path d="M46.9571 23.83C46.0602 21.1373 44.6348 18.7046 42.7205 16.5995C42.4149 16.2635 41.8976 16.2413 41.565 16.55C41.2325 16.8588 41.2106 17.3813 41.5161 17.7174C43.2745 19.651 44.5836 21.8849 45.4071 24.3569C45.522 24.702 45.8406 24.9198 46.182 24.9198C46.2684 24.9198 46.3564 24.9058 46.4429 24.8764C46.8708 24.7308 47.1011 24.2624 46.9571 23.83Z" fill="white"/>
<path d="M34.4505 11.1316C34.0234 10.9839 33.5583 11.214 33.4121 11.6458C33.2659 12.0774 33.4937 12.5471 33.921 12.6947C35.7242 13.3181 37.4172 14.2211 38.9529 15.379C39.0998 15.4897 39.2713 15.543 39.4414 15.543C39.6907 15.543 39.9369 15.4284 40.0975 15.2109C40.3676 14.8453 40.2931 14.3276 39.9312 14.0548C38.2589 12.7942 36.415 11.8106 34.4505 11.1316Z" fill="white"/>
<path d="M15.2819 16.8689C18.7218 13.537 23.2342 11.7019 27.988 11.7019C28.8707 11.7019 29.7584 11.7662 30.6262 11.8926C31.0735 11.9585 31.4878 11.6446 31.5524 11.1929C31.6169 10.7413 31.307 10.3225 30.8599 10.2573C29.9148 10.1196 28.9486 10.0497 27.988 10.0497C22.8103 10.0497 17.8958 12.0479 14.15 15.6763C10.4158 19.2935 8.23199 24.1475 8.00084 29.3443C7.98056 29.8001 8.3299 30.1863 8.78097 30.2067C8.79351 30.2073 8.80594 30.2076 8.81837 30.2076C9.25309 30.2076 9.61497 29.8617 9.63471 29.4186C9.84678 24.6477 11.8523 20.1909 15.2819 16.8689Z" fill="white"/>
<path d="M27.988 6.52484C26.1593 6.52484 24.337 6.73897 22.5719 7.16129C22.1323 7.26638 21.8605 7.71161 21.9645 8.15552C22.0687 8.59943 22.5094 8.87414 22.9488 8.76895C24.5906 8.37637 26.286 8.17711 27.988 8.17711C33.9844 8.17711 39.5817 10.5906 43.7488 14.9729C43.9094 15.1417 44.1237 15.2268 44.3386 15.2268C44.5424 15.2268 44.7465 15.1503 44.9051 14.9965C45.2308 14.6803 45.2412 14.1573 44.9283 13.8284C42.7571 11.5451 40.2067 9.74885 37.3481 8.48993C34.3872 7.18597 31.2379 6.52484 27.988 6.52484Z" fill="white"/>
<path d="M9.61922 16.8134C9.76882 16.9317 9.94643 16.9891 10.1228 16.9891C10.3657 16.9891 10.606 16.8804 10.7672 16.6723C13.0978 13.6649 16.166 11.3061 19.6401 9.85041C20.0572 9.6756 20.2552 9.19226 20.0822 8.77082C19.9091 8.34938 19.4305 8.14913 19.0135 8.32416C15.2801 9.88841 11.9833 12.4229 9.47955 15.6535C9.20108 16.0129 9.26367 16.5322 9.61922 16.8134Z" fill="white"/>
<path d="M16.6493 7.2656C16.7685 7.2656 16.8897 7.23917 17.0042 7.18321C20.4472 5.50374 24.1427 4.65227 27.988 4.65227C29.9918 4.65227 31.9875 4.89041 33.9195 5.3601C34.3584 5.46651 34.8002 5.19377 34.9058 4.75019C35.0115 4.30661 34.7412 3.86039 34.302 3.75365C32.245 3.25357 30.1206 3 27.988 3C23.8944 3 19.9597 3.90676 16.2932 5.69529C15.8865 5.89367 15.7159 6.38759 15.9123 6.79845C16.0533 7.09355 16.3453 7.2656 16.6493 7.2656Z" fill="white"/>
<path d="M37.3374 6.45687C38.1804 6.79603 39.0149 7.18597 39.8175 7.61566C39.9395 7.6811 40.0705 7.71205 40.1996 7.71205C40.4927 7.71205 40.7761 7.55244 40.9228 7.27254C41.1343 6.86939 40.9823 6.36941 40.5832 6.15572C39.7287 5.69826 38.8402 5.2831 37.9424 4.92192C37.5227 4.75306 37.0472 4.95992 36.8801 5.38367C36.7131 5.80753 36.9178 6.28812 37.3374 6.45687Z" fill="white"/>
</svg>
