<svg width="55" height="55" viewBox="0 0 55 55" fill="none" xmlns="http://www.w3.org/2000/svg">
<path fill-rule="evenodd" clip-rule="evenodd" d="M7.88366 4.32617C5.91891 4.32617 4.32617 5.91891 4.32617 7.88366V46.786C4.32617 48.7508 5.91891 50.3435 7.88366 50.3435H46.786C48.7508 50.3435 50.3435 48.7508 50.3435 46.786V7.88366C50.3435 5.91891 48.7508 4.32617 46.786 4.32617H7.88366ZM0.326172 7.88366C0.326172 3.70977 3.70977 0.326172 7.88366 0.326172H46.786C50.9599 0.326172 54.3435 3.70977 54.3435 7.88366V46.786C54.3435 50.9599 50.9599 54.3435 46.786 54.3435H7.88366C3.70977 54.3435 0.326172 50.9599 0.326172 46.786V7.88366Z" fill="white"/>
<path fill-rule="evenodd" clip-rule="evenodd" d="M0.326172 19.7741C0.326172 18.6695 1.2216 17.7741 2.32617 17.7741H52.3435C53.4481 17.7741 54.3435 18.6695 54.3435 19.7741C54.3435 20.8787 53.4481 21.7741 52.3435 21.7741H2.32617C1.2216 21.7741 0.326172 20.8787 0.326172 19.7741Z" fill="white"/>
<path fill-rule="evenodd" clip-rule="evenodd" d="M19.7741 17.7741C20.8787 17.7741 21.7741 18.6695 21.7741 19.7741V52.3435C21.7741 53.4481 20.8787 54.3435 19.7741 54.3435C18.6695 54.3435 17.7741 53.4481 17.7741 52.3435V19.7741C17.7741 18.6695 18.6695 17.7741 19.7741 17.7741Z" fill="white"/>
<path fill-rule="evenodd" clip-rule="evenodd" d="M7.88366 4.32617C5.91891 4.32617 4.32617 5.91891 4.32617 7.88366V46.786C4.32617 48.7508 5.91891 50.3435 7.88366 50.3435H46.786C48.7508 50.3435 50.3435 48.7508 50.3435 46.786V7.88366C50.3435 5.91891 48.7508 4.32617 46.786 4.32617H7.88366ZM0.326172 7.88366C0.326172 3.70977 3.70977 0.326172 7.88366 0.326172H46.786C50.9599 0.326172 54.3435 3.70977 54.3435 7.88366V46.786C54.3435 50.9599 50.9599 54.3435 46.786 54.3435H7.88366C3.70977 54.3435 0.326172 50.9599 0.326172 46.786V7.88366Z" stroke="white" stroke-linecap="round" stroke-linejoin="round"/>
<path fill-rule="evenodd" clip-rule="evenodd" d="M0.326172 19.7741C0.326172 18.6695 1.2216 17.7741 2.32617 17.7741H52.3435C53.4481 17.7741 54.3435 18.6695 54.3435 19.7741C54.3435 20.8787 53.4481 21.7741 52.3435 21.7741H2.32617C1.2216 21.7741 0.326172 20.8787 0.326172 19.7741Z" stroke="white" stroke-linecap="round" stroke-linejoin="round"/>
<path fill-rule="evenodd" clip-rule="evenodd" d="M19.7741 17.7741C20.8787 17.7741 21.7741 18.6695 21.7741 19.7741V52.3435C21.7741 53.4481 20.8787 54.3435 19.7741 54.3435C18.6695 54.3435 17.7741 53.4481 17.7741 52.3435V19.7741C17.7741 18.6695 18.6695 17.7741 19.7741 17.7741Z" stroke="white" stroke-linecap="round" stroke-linejoin="round"/>
</svg>
