<svg width="72" height="72" viewBox="0 0 72 72" fill="none" xmlns="http://www.w3.org/2000/svg">
<path fill-rule="evenodd" clip-rule="evenodd" d="M12 11C10.9391 11 9.92172 11.4214 9.17157 12.1716C8.42143 12.9217 8 13.9391 8 15V45C8 46.0609 8.42143 47.0783 9.17157 47.8284C9.92172 48.5786 10.9391 49 12 49H28.08C29.1846 49 30.08 49.8954 30.08 51C30.08 52.1046 29.1846 53 28.08 53H12C9.87827 53 7.84344 52.1571 6.34315 50.6569C4.84286 49.1566 4 47.1217 4 45V15C4 12.8783 4.84285 10.8434 6.34315 9.34315C7.84344 7.84285 9.87827 7 12 7H60C62.1217 7 64.1566 7.84285 65.6569 9.34315C67.1571 10.8434 68 12.8783 68 15V41.76C68 42.8646 67.1046 43.76 66 43.76C64.8954 43.76 64 42.8646 64 41.76V15C64 13.9391 63.5786 12.9217 62.8284 12.1716C62.0783 11.4214 61.0609 11 60 11H12Z" fill="white" stroke="white" stroke-width="2" stroke-linecap="round" stroke-linejoin="round"/>
<g clip-path="url(#clip0_213_4493)">
<path fill-rule="evenodd" clip-rule="evenodd" d="M40.0497 36.7883C39.5468 36.7883 39.1391 37.2087 39.1391 37.7273V62.3127C39.1391 62.8313 39.5468 63.2517 40.0497 63.2517H54.9503C55.4532 63.2517 55.8609 62.8313 55.8609 62.3127V37.7273C55.8609 37.2087 55.4532 36.7883 54.9503 36.7883H40.0497ZM35 37.7273C35 34.8514 37.2608 32.52 40.0497 32.52H54.9503C57.7392 32.52 60 34.8514 60 37.7273V62.3127C60 65.1886 57.7392 67.52 54.9503 67.52H40.0497C37.2608 67.52 35 65.1886 35 62.3127V37.7273Z" fill="white" stroke="white" stroke-width="2" stroke-linecap="round" stroke-linejoin="round"/>
<path fill-rule="evenodd" clip-rule="evenodd" d="M45.52 57.56C45.52 56.4554 46.4154 55.56 47.52 55.56H47.5344C48.639 55.56 49.5344 56.4554 49.5344 57.56C49.5344 58.6646 48.639 59.56 47.5344 59.56H47.52C46.4154 59.56 45.52 58.6646 45.52 57.56Z" fill="white" stroke="white" stroke-width="2" stroke-linecap="round" stroke-linejoin="round"/>
</g>
<defs>
<clipPath id="clip0_213_4493">
<rect width="34.56" height="34.56" fill="white" transform="translate(30.24 33)"/>
</clipPath>
</defs>
</svg>
