<svg width="55" height="55" viewBox="0 0 55 55" fill="none" xmlns="http://www.w3.org/2000/svg">
<path d="M29.4098 42.5549L42.555 29.4097L48.1887 35.0433L35.0435 48.1886L29.4098 42.5549Z" fill="white"/>
<path d="M11.1543 12.7993L17.2035 37.8603L31.2877 40.6772L40.6772 31.2877L37.8603 17.2035L12.7993 11.1543L25.6991 24.0541C25.742 24.097 25.7809 24.1425 25.8157 24.19C26.3301 23.9253 26.9136 23.7759 27.5319 23.7759C29.6061 23.7759 31.2877 25.4574 31.2877 27.5317C31.2877 29.6059 29.6061 31.2875 27.5319 31.2875C25.4576 31.2875 23.7761 29.6059 23.7761 27.5317C23.7761 26.9135 23.9255 26.3301 24.1901 25.8158C24.1425 25.781 24.0971 25.7421 24.0541 25.6991L11.1543 12.7993Z" fill="white"/>
<path d="M8 3H47V-3H8V3ZM52 8V47H58V8H52ZM47 52H8V58H47V52ZM3 47V8H-3V47H3ZM8 52C5.23858 52 3 49.7614 3 47H-3C-3 53.0751 1.92487 58 8 58V52ZM52 47C52 49.7614 49.7614 52 47 52V58C53.0751 58 58 53.0751 58 47H52ZM47 3C49.7614 3 52 5.23858 52 8H58C58 1.92487 53.0751 -3 47 -3V3ZM8 -3C1.92487 -3 -3 1.92487 -3 8H3C3 5.23858 5.23858 3 8 3V-3Z" fill="white"/>
</svg>
