<svg width="60" height="67" viewBox="0 0 60 67" fill="none" xmlns="http://www.w3.org/2000/svg">
<path fill-rule="evenodd" clip-rule="evenodd" d="M8.53086 6.16361C8.01144 6.16361 7.36067 6.41696 6.77792 7.14342C6.18304 7.885 5.78177 8.99215 5.78177 10.2363V30.3091C5.78177 38.6514 8.44495 46.566 13.0661 52.3267C15.349 55.1727 18.0282 57.3916 20.9314 58.8907C23.8312 60.3881 26.9106 61.1454 30 61.1454C36.2133 61.1454 42.3248 58.0723 46.9338 52.3267C51.555 46.566 54.2181 38.6514 54.2181 30.3091V10.2363C54.2181 8.99216 53.8169 7.885 53.222 7.14342C52.6392 6.41695 51.9885 6.16361 51.469 6.16361H8.53086ZM8.53086 0.927246H51.469C53.7966 0.927246 55.8762 2.08377 57.3066 3.86688C58.7248 5.63487 59.4545 7.93144 59.4545 10.2363V30.3091C59.4545 39.7121 56.4629 48.8161 51.0184 55.6033C45.5618 62.4055 38.0215 66.3818 30 66.3818C26.0409 66.3818 22.1409 65.4085 18.5289 63.5434C14.9202 61.68 11.6825 58.9704 8.98149 55.6033C3.53701 48.8161 0.54541 39.7121 0.54541 30.3091V10.2363C0.54541 7.93144 1.2751 5.63487 2.69334 3.86688C4.12371 2.08377 6.20331 0.927246 8.53086 0.927246Z" fill="white"/>
<path fill-rule="evenodd" clip-rule="evenodd" d="M30.6545 14.6727C32.462 14.6727 33.9272 16.1379 33.9272 17.9454V44.1272C33.9272 45.9347 32.462 47.4 30.6545 47.4C28.847 47.4 27.3818 45.9347 27.3818 44.1272V17.9454C27.3818 16.1379 28.847 14.6727 30.6545 14.6727Z" fill="white"/>
<path fill-rule="evenodd" clip-rule="evenodd" d="M14.2909 31.0363C14.2909 29.2289 15.7561 27.7636 17.5636 27.7636H43.7454C45.5529 27.7636 47.0181 29.2289 47.0181 31.0363C47.0181 32.8438 45.5529 34.3091 43.7454 34.3091H17.5636C15.7561 34.3091 14.2909 32.8438 14.2909 31.0363Z" fill="white"/>
<path fill-rule="evenodd" clip-rule="evenodd" d="M8.53086 6.16361C8.01144 6.16361 7.36067 6.41696 6.77792 7.14342C6.18304 7.885 5.78177 8.99215 5.78177 10.2363V30.3091C5.78177 38.6514 8.44495 46.566 13.0661 52.3267C15.349 55.1727 18.0282 57.3916 20.9314 58.8907C23.8312 60.3881 26.9106 61.1454 30 61.1454C36.2133 61.1454 42.3248 58.0723 46.9338 52.3267C51.555 46.566 54.2181 38.6514 54.2181 30.3091V10.2363C54.2181 8.99216 53.8169 7.885 53.222 7.14342C52.6392 6.41695 51.9885 6.16361 51.469 6.16361H8.53086ZM8.53086 0.927246H51.469C53.7966 0.927246 55.8762 2.08377 57.3066 3.86688C58.7248 5.63487 59.4545 7.93144 59.4545 10.2363V30.3091C59.4545 39.7121 56.4629 48.8161 51.0184 55.6033C45.5618 62.4055 38.0215 66.3818 30 66.3818C26.0409 66.3818 22.1409 65.4085 18.5289 63.5434C14.9202 61.68 11.6825 58.9704 8.98149 55.6033C3.53701 48.8161 0.54541 39.7121 0.54541 30.3091V10.2363C0.54541 7.93144 1.2751 5.63487 2.69334 3.86688C4.12371 2.08377 6.20331 0.927246 8.53086 0.927246Z" stroke="white" stroke-linecap="round" stroke-linejoin="round"/>
<path fill-rule="evenodd" clip-rule="evenodd" d="M30.6545 14.6727C32.462 14.6727 33.9272 16.1379 33.9272 17.9454V44.1272C33.9272 45.9347 32.462 47.4 30.6545 47.4C28.847 47.4 27.3818 45.9347 27.3818 44.1272V17.9454C27.3818 16.1379 28.847 14.6727 30.6545 14.6727Z" stroke="white" stroke-linecap="round" stroke-linejoin="round"/>
<path fill-rule="evenodd" clip-rule="evenodd" d="M14.2909 31.0363C14.2909 29.2289 15.7561 27.7636 17.5636 27.7636H43.7454C45.5529 27.7636 47.0181 29.2289 47.0181 31.0363C47.0181 32.8438 45.5529 34.3091 43.7454 34.3091H17.5636C15.7561 34.3091 14.2909 32.8438 14.2909 31.0363Z" stroke="white" stroke-linecap="round" stroke-linejoin="round"/>
</svg>
