<svg width="55" height="55" viewBox="0 0 55 55" fill="none" xmlns="http://www.w3.org/2000/svg">
<mask id="path-1-inside-1_147_190" fill="white">
<path fill-rule="evenodd" clip-rule="evenodd" d="M13 28.5C14.1046 28.5 15 29.3954 15 30.5V36.25C15 37.3546 14.1046 38.25 13 38.25C11.8954 38.25 11 37.3546 11 36.25V30.5C11 29.3954 11.8954 28.5 13 28.5Z"/>
<path fill-rule="evenodd" clip-rule="evenodd" d="M4 30.5C4 29.3954 4.89543 28.5 6 28.5H49.5C50.6046 28.5 51.5 29.3954 51.5 30.5C51.5 31.6046 50.6046 32.5 49.5 32.5H6C4.89543 32.5 4 31.6046 4 30.5Z"/>
<path fill-rule="evenodd" clip-rule="evenodd" d="M28 28.5C29.1046 28.5 30 29.3954 30 30.5V36.25C30 37.3546 29.1046 38.25 28 38.25C26.8954 38.25 26 37.3546 26 36.25V30.5C26 29.3954 26.8954 28.5 28 28.5Z"/>
<path fill-rule="evenodd" clip-rule="evenodd" d="M42 28.5C43.1046 28.5 44 29.3954 44 30.5V36.25C44 37.3546 43.1046 38.25 42 38.25C40.8954 38.25 40 37.3546 40 36.25V30.5C40 29.3954 40.8954 28.5 42 28.5Z"/>
<path fill-rule="evenodd" clip-rule="evenodd" d="M17.0643 17.6873C18.386 16.3525 20.1787 15.6027 22.0479 15.6027H32.9521C34.8213 15.6027 36.614 16.3525 37.9357 17.6873C39.2575 19.0221 40 20.8325 40 22.7202V25.4732C40 26.3632 39.2856 27.0847 38.4043 27.0847C37.5229 27.0847 36.8085 26.3632 36.8085 25.4732V22.7202C36.8085 21.6873 36.4022 20.6967 35.679 19.9663C34.9558 19.236 33.9749 18.8257 32.9521 18.8257H22.0479C21.0251 18.8257 20.0442 19.236 19.321 19.9663C18.5978 20.6967 18.1915 21.6873 18.1915 22.7202V25.4732C18.1915 26.3632 17.4771 27.0847 16.5957 27.0847C15.7144 27.0847 15 26.3632 15 25.4732V22.7202C15 20.8325 15.7425 19.0221 17.0643 17.6873Z"/>
<path fill-rule="evenodd" clip-rule="evenodd" d="M27.5 4.22302C25.3702 4.22302 23.6436 5.96664 23.6436 8.11751C23.6436 10.2684 25.3702 12.012 27.5 12.012C29.6298 12.012 31.3564 10.2684 31.3564 8.11751C31.3564 5.96664 29.6298 4.22302 27.5 4.22302ZM20.4521 8.11751C20.4521 4.18662 23.6076 1 27.5 1C31.3924 1 34.5479 4.18662 34.5479 8.11751C34.5479 12.0484 31.3924 15.235 27.5 15.235C23.6076 15.235 20.4521 12.0484 20.4521 8.11751Z"/>
<path fill-rule="evenodd" clip-rule="evenodd" d="M12 42C12 42.5523 12.4477 43 13 43C13.5523 43 14 42.5523 14 42C14 41.4477 13.5523 41 13 41C12.4477 41 12 41.4477 12 42ZM13 39C11.3431 39 10 40.3431 10 42C10 43.6569 11.3431 45 13 45C14.6569 45 16 43.6569 16 42C16 40.3431 14.6569 39 13 39Z"/>
<path fill-rule="evenodd" clip-rule="evenodd" d="M27 42C27 42.5523 27.4477 43 28 43C28.5523 43 29 42.5523 29 42C29 41.4477 28.5523 41 28 41C27.4477 41 27 41.4477 27 42ZM28 39C26.3431 39 25 40.3431 25 42C25 43.6569 26.3431 45 28 45C29.6569 45 31 43.6569 31 42C31 40.3431 29.6569 39 28 39Z"/>
<path fill-rule="evenodd" clip-rule="evenodd" d="M41 42C41 42.5523 41.4477 43 42 43C42.5523 43 43 42.5523 43 42C43 41.4477 42.5523 41 42 41C41.4477 41 41 41.4477 41 42ZM42 39C40.3431 39 39 40.3431 39 42C39 43.6569 40.3431 45 42 45C43.6569 45 45 43.6569 45 42C45 40.3431 43.6569 39 42 39Z"/>
</mask>
<path fill-rule="evenodd" clip-rule="evenodd" d="M13 28.5C14.1046 28.5 15 29.3954 15 30.5V36.25C15 37.3546 14.1046 38.25 13 38.25C11.8954 38.25 11 37.3546 11 36.25V30.5C11 29.3954 11.8954 28.5 13 28.5Z" fill="white"/>
<path fill-rule="evenodd" clip-rule="evenodd" d="M4 30.5C4 29.3954 4.89543 28.5 6 28.5H49.5C50.6046 28.5 51.5 29.3954 51.5 30.5C51.5 31.6046 50.6046 32.5 49.5 32.5H6C4.89543 32.5 4 31.6046 4 30.5Z" fill="white"/>
<path fill-rule="evenodd" clip-rule="evenodd" d="M28 28.5C29.1046 28.5 30 29.3954 30 30.5V36.25C30 37.3546 29.1046 38.25 28 38.25C26.8954 38.25 26 37.3546 26 36.25V30.5C26 29.3954 26.8954 28.5 28 28.5Z" fill="white"/>
<path fill-rule="evenodd" clip-rule="evenodd" d="M42 28.5C43.1046 28.5 44 29.3954 44 30.5V36.25C44 37.3546 43.1046 38.25 42 38.25C40.8954 38.25 40 37.3546 40 36.25V30.5C40 29.3954 40.8954 28.5 42 28.5Z" fill="white"/>
<path fill-rule="evenodd" clip-rule="evenodd" d="M17.0643 17.6873C18.386 16.3525 20.1787 15.6027 22.0479 15.6027H32.9521C34.8213 15.6027 36.614 16.3525 37.9357 17.6873C39.2575 19.0221 40 20.8325 40 22.7202V25.4732C40 26.3632 39.2856 27.0847 38.4043 27.0847C37.5229 27.0847 36.8085 26.3632 36.8085 25.4732V22.7202C36.8085 21.6873 36.4022 20.6967 35.679 19.9663C34.9558 19.236 33.9749 18.8257 32.9521 18.8257H22.0479C21.0251 18.8257 20.0442 19.236 19.321 19.9663C18.5978 20.6967 18.1915 21.6873 18.1915 22.7202V25.4732C18.1915 26.3632 17.4771 27.0847 16.5957 27.0847C15.7144 27.0847 15 26.3632 15 25.4732V22.7202C15 20.8325 15.7425 19.0221 17.0643 17.6873Z" fill="white"/>
<path fill-rule="evenodd" clip-rule="evenodd" d="M27.5 4.22302C25.3702 4.22302 23.6436 5.96664 23.6436 8.11751C23.6436 10.2684 25.3702 12.012 27.5 12.012C29.6298 12.012 31.3564 10.2684 31.3564 8.11751C31.3564 5.96664 29.6298 4.22302 27.5 4.22302ZM20.4521 8.11751C20.4521 4.18662 23.6076 1 27.5 1C31.3924 1 34.5479 4.18662 34.5479 8.11751C34.5479 12.0484 31.3924 15.235 27.5 15.235C23.6076 15.235 20.4521 12.0484 20.4521 8.11751Z" fill="white"/>
<path fill-rule="evenodd" clip-rule="evenodd" d="M12 42C12 42.5523 12.4477 43 13 43C13.5523 43 14 42.5523 14 42C14 41.4477 13.5523 41 13 41C12.4477 41 12 41.4477 12 42ZM13 39C11.3431 39 10 40.3431 10 42C10 43.6569 11.3431 45 13 45C14.6569 45 16 43.6569 16 42C16 40.3431 14.6569 39 13 39Z" fill="white"/>
<path fill-rule="evenodd" clip-rule="evenodd" d="M27 42C27 42.5523 27.4477 43 28 43C28.5523 43 29 42.5523 29 42C29 41.4477 28.5523 41 28 41C27.4477 41 27 41.4477 27 42ZM28 39C26.3431 39 25 40.3431 25 42C25 43.6569 26.3431 45 28 45C29.6569 45 31 43.6569 31 42C31 40.3431 29.6569 39 28 39Z" fill="white"/>
<path fill-rule="evenodd" clip-rule="evenodd" d="M41 42C41 42.5523 41.4477 43 42 43C42.5523 43 43 42.5523 43 42C43 41.4477 42.5523 41 42 41C41.4477 41 41 41.4477 41 42ZM42 39C40.3431 39 39 40.3431 39 42C39 43.6569 40.3431 45 42 45C43.6569 45 45 43.6569 45 42C45 40.3431 43.6569 39 42 39Z" fill="white"/>
<path d="M17.0643 17.6873L17.7748 18.3909L17.0643 17.6873ZM37.9357 17.6873L37.2251 18.3909L37.9357 17.6873ZM35.679 19.9663L36.3896 19.2627V19.2627L35.679 19.9663ZM19.321 19.9663L20.0316 20.67L19.321 19.9663ZM16 30.5C16 28.8431 14.6569 27.5 13 27.5V29.5C13.5523 29.5 14 29.9477 14 30.5H16ZM16 36.25V30.5H14V36.25H16ZM13 39.25C14.6569 39.25 16 37.9069 16 36.25H14C14 36.8023 13.5523 37.25 13 37.25V39.25ZM10 36.25C10 37.9069 11.3431 39.25 13 39.25V37.25C12.4477 37.25 12 36.8023 12 36.25H10ZM10 30.5V36.25H12V30.5H10ZM13 27.5C11.3431 27.5 10 28.8431 10 30.5H12C12 29.9477 12.4477 29.5 13 29.5V27.5ZM6 27.5C4.34315 27.5 3 28.8431 3 30.5H5C5 29.9477 5.44772 29.5 6 29.5V27.5ZM49.5 27.5H6V29.5H49.5V27.5ZM52.5 30.5C52.5 28.8431 51.1569 27.5 49.5 27.5V29.5C50.0523 29.5 50.5 29.9477 50.5 30.5H52.5ZM49.5 33.5C51.1569 33.5 52.5 32.1569 52.5 30.5H50.5C50.5 31.0523 50.0523 31.5 49.5 31.5V33.5ZM6 33.5H49.5V31.5H6V33.5ZM3 30.5C3 32.1569 4.34315 33.5 6 33.5V31.5C5.44772 31.5 5 31.0523 5 30.5H3ZM31 30.5C31 28.8431 29.6569 27.5 28 27.5V29.5C28.5523 29.5 29 29.9477 29 30.5H31ZM31 36.25V30.5H29V36.25H31ZM28 39.25C29.6569 39.25 31 37.9069 31 36.25H29C29 36.8023 28.5523 37.25 28 37.25V39.25ZM25 36.25C25 37.9069 26.3431 39.25 28 39.25V37.25C27.4477 37.25 27 36.8023 27 36.25H25ZM25 30.5V36.25H27V30.5H25ZM28 27.5C26.3431 27.5 25 28.8431 25 30.5H27C27 29.9477 27.4477 29.5 28 29.5V27.5ZM45 30.5C45 28.8431 43.6569 27.5 42 27.5V29.5C42.5523 29.5 43 29.9477 43 30.5H45ZM45 36.25V30.5H43V36.25H45ZM42 39.25C43.6569 39.25 45 37.9069 45 36.25H43C43 36.8023 42.5523 37.25 42 37.25V39.25ZM39 36.25C39 37.9069 40.3431 39.25 42 39.25V37.25C41.4477 37.25 41 36.8023 41 36.25H39ZM39 30.5V36.25H41V30.5H39ZM42 27.5C40.3431 27.5 39 28.8431 39 30.5H41C41 29.9477 41.4477 29.5 42 29.5V27.5ZM22.0479 14.6027C19.9103 14.6027 17.8622 15.4603 16.3537 16.9837L17.7748 18.3909C18.9098 17.2448 20.4471 16.6027 22.0479 16.6027V14.6027ZM32.9521 14.6027H22.0479V16.6027H32.9521V14.6027ZM38.6463 16.9837C37.1378 15.4603 35.0897 14.6027 32.9521 14.6027V16.6027C34.5529 16.6027 36.0902 17.2448 37.2251 18.3909L38.6463 16.9837ZM41 22.7202C41 20.5704 40.1545 18.5068 38.6463 16.9837L37.2251 18.3909C38.3604 19.5375 39 21.0945 39 22.7202H41ZM41 25.4732V22.7202H39V25.4732H41ZM38.4043 28.0847C39.8471 28.0847 41 26.9062 41 25.4732H39C39 25.8202 38.724 26.0847 38.4043 26.0847V28.0847ZM35.8085 25.4732C35.8085 26.9062 36.9614 28.0847 38.4043 28.0847V26.0847C38.0845 26.0847 37.8085 25.8202 37.8085 25.4732H35.8085ZM35.8085 22.7202V25.4732H37.8085V22.7202H35.8085ZM34.9684 20.67C35.5052 21.2121 35.8085 21.9493 35.8085 22.7202H37.8085C37.8085 21.4252 37.2992 20.1814 36.3896 19.2627L34.9684 20.67ZM32.9521 19.8257C33.7065 19.8257 34.432 20.1282 34.9684 20.67L36.3896 19.2627C35.4796 18.3438 34.2433 17.8257 32.9521 17.8257V19.8257ZM22.0479 19.8257H32.9521V17.8257H22.0479V19.8257ZM20.0316 20.67C20.568 20.1282 21.2935 19.8257 22.0479 19.8257V17.8257C20.7567 17.8257 19.5204 18.3438 18.6104 19.2627L20.0316 20.67ZM19.1915 22.7202C19.1915 21.9493 19.4948 21.2121 20.0316 20.67L18.6104 19.2627C17.7008 20.1814 17.1915 21.4252 17.1915 22.7202H19.1915ZM19.1915 25.4732V22.7202H17.1915V25.4732H19.1915ZM16.5957 28.0847C18.0386 28.0847 19.1915 26.9062 19.1915 25.4732H17.1915C17.1915 25.8202 16.9155 26.0847 16.5957 26.0847V28.0847ZM14 25.4732C14 26.9062 15.1529 28.0847 16.5957 28.0847V26.0847C16.276 26.0847 16 25.8202 16 25.4732H14ZM14 22.7202V25.4732H16V22.7202H14ZM16.3537 16.9837C14.8455 18.5068 14 20.5704 14 22.7202H16C16 21.0945 16.6395 19.5375 17.7748 18.3909L16.3537 16.9837ZM24.6436 8.11751C24.6436 6.50963 25.9317 5.22302 27.5 5.22302V3.22302C24.8086 3.22302 22.6436 5.42365 22.6436 8.11751H24.6436ZM27.5 11.012C25.9317 11.012 24.6436 9.72538 24.6436 8.11751H22.6436C22.6436 10.8114 24.8086 13.012 27.5 13.012V11.012ZM30.3564 8.11751C30.3564 9.72538 29.0683 11.012 27.5 11.012V13.012C30.1914 13.012 32.3564 10.8114 32.3564 8.11751H30.3564ZM27.5 5.22302C29.0683 5.22302 30.3564 6.50963 30.3564 8.11751H32.3564C32.3564 5.42365 30.1914 3.22302 27.5 3.22302V5.22302ZM27.5 0C23.046 0 19.4521 3.64362 19.4521 8.11751H21.4521C21.4521 4.72961 24.1691 2 27.5 2V0ZM35.5479 8.11751C35.5479 3.64362 31.954 0 27.5 0V2C30.8309 2 33.5479 4.72961 33.5479 8.11751H35.5479ZM27.5 16.235C31.954 16.235 35.5479 12.5914 35.5479 8.11751H33.5479C33.5479 11.5054 30.8309 14.235 27.5 14.235V16.235ZM19.4521 8.11751C19.4521 12.5914 23.046 16.235 27.5 16.235V14.235C24.1691 14.235 21.4521 11.5054 21.4521 8.11751H19.4521ZM13 42H11C11 43.1046 11.8954 44 13 44V42ZM13 42V44C14.1046 44 15 43.1046 15 42H13ZM13 42H15C15 40.8954 14.1046 40 13 40V42ZM13 42V40C11.8954 40 11 40.8954 11 42H13ZM11 42C11 40.8954 11.8954 40 13 40V38C10.7909 38 9 39.7909 9 42H11ZM13 44C11.8954 44 11 43.1046 11 42H9C9 44.2091 10.7909 46 13 46V44ZM15 42C15 43.1046 14.1046 44 13 44V46C15.2091 46 17 44.2091 17 42H15ZM13 40C14.1046 40 15 40.8954 15 42H17C17 39.7909 15.2091 38 13 38V40ZM28 42H26C26 43.1046 26.8954 44 28 44V42ZM28 42V44C29.1046 44 30 43.1046 30 42H28ZM28 42H30C30 40.8954 29.1046 40 28 40V42ZM28 42V40C26.8954 40 26 40.8954 26 42H28ZM26 42C26 40.8954 26.8954 40 28 40V38C25.7909 38 24 39.7909 24 42H26ZM28 44C26.8954 44 26 43.1046 26 42H24C24 44.2091 25.7909 46 28 46V44ZM30 42C30 43.1046 29.1046 44 28 44V46C30.2091 46 32 44.2091 32 42H30ZM28 40C29.1046 40 30 40.8954 30 42H32C32 39.7909 30.2091 38 28 38V40ZM42 42H40C40 43.1046 40.8954 44 42 44V42ZM42 42V44C43.1046 44 44 43.1046 44 42H42ZM42 42H44C44 40.8954 43.1046 40 42 40V42ZM42 42V40C40.8954 40 40 40.8954 40 42H42ZM40 42C40 40.8954 40.8954 40 42 40V38C39.7909 38 38 39.7909 38 42H40ZM42 44C40.8954 44 40 43.1046 40 42H38C38 44.2091 39.7909 46 42 46V44ZM44 42C44 43.1046 43.1046 44 42 44V46C44.2091 46 46 44.2091 46 42H44ZM42 40C43.1046 40 44 40.8954 44 42H46C46 39.7909 44.2091 38 42 38V40Z" fill="white" mask="url(#path-1-inside-1_147_190)"/>
</svg>
