<svg width="55" height="55" viewBox="0 0 55 55" fill="none" xmlns="http://www.w3.org/2000/svg">
<path fill-rule="evenodd" clip-rule="evenodd" d="M53.4184 5.58996C54.1971 6.37331 54.1934 7.63964 53.41 8.41838L27.2562 34.4184C26.4761 35.1939 25.2162 35.1939 24.4361 34.4184L16.59 26.6184C15.8066 25.8396 15.8029 24.5733 16.5816 23.79C17.3604 23.0066 18.6267 23.0029 19.41 23.7816L25.8462 30.1799L50.59 5.58162C51.3733 4.80288 52.6396 4.80662 53.4184 5.58996Z" fill="white"/>
<path fill-rule="evenodd" clip-rule="evenodd" d="M8.22222 7C7.36764 7 6.54805 7.33948 5.94377 7.94377C5.33948 8.54805 5 9.36764 5 10.2222V46.7778C5 47.6324 5.33948 48.452 5.94377 49.0562C6.54805 49.6605 7.36764 50 8.22222 50H44.7778C45.6324 50 46.4519 49.6605 47.0562 49.0562C47.6605 48.4519 48 47.6324 48 46.7778V28.5C48 27.3954 48.8954 26.5 50 26.5C51.1046 26.5 52 27.3954 52 28.5V46.7778C52 48.6932 51.2391 50.5302 49.8847 51.8847C48.5302 53.2391 46.6932 54 44.7778 54H8.22222C6.30677 54 4.46977 53.2391 3.11534 51.8847C1.76091 50.5302 1 48.6932 1 46.7778V10.2222C1 8.30677 1.76091 6.46977 3.11534 5.11534C4.46977 3.76091 6.30677 3 8.22222 3H36.9444C38.049 3 38.9444 3.89543 38.9444 5C38.9444 6.10457 38.049 7 36.9444 7H8.22222Z" fill="white"/>
<path fill-rule="evenodd" clip-rule="evenodd" d="M53.4184 5.58996C54.1971 6.37331 54.1934 7.63964 53.41 8.41838L27.2562 34.4184C26.4761 35.1939 25.2162 35.1939 24.4361 34.4184L16.59 26.6184C15.8066 25.8396 15.8029 24.5733 16.5816 23.79C17.3604 23.0066 18.6267 23.0029 19.41 23.7816L25.8462 30.1799L50.59 5.58162C51.3733 4.80288 52.6396 4.80662 53.4184 5.58996Z" stroke="white" stroke-linecap="round" stroke-linejoin="round"/>
<path fill-rule="evenodd" clip-rule="evenodd" d="M8.22222 7C7.36764 7 6.54805 7.33948 5.94377 7.94377C5.33948 8.54805 5 9.36764 5 10.2222V46.7778C5 47.6324 5.33948 48.452 5.94377 49.0562C6.54805 49.6605 7.36764 50 8.22222 50H44.7778C45.6324 50 46.4519 49.6605 47.0562 49.0562C47.6605 48.4519 48 47.6324 48 46.7778V28.5C48 27.3954 48.8954 26.5 50 26.5C51.1046 26.5 52 27.3954 52 28.5V46.7778C52 48.6932 51.2391 50.5302 49.8847 51.8847C48.5302 53.2391 46.6932 54 44.7778 54H8.22222C6.30677 54 4.46977 53.2391 3.11534 51.8847C1.76091 50.5302 1 48.6932 1 46.7778V10.2222C1 8.30677 1.76091 6.46977 3.11534 5.11534C4.46977 3.76091 6.30677 3 8.22222 3H36.9444C38.049 3 38.9444 3.89543 38.9444 5C38.9444 6.10457 38.049 7 36.9444 7H8.22222Z" stroke="white" stroke-linecap="round" stroke-linejoin="round"/>
</svg>
