<svg width="55" height="55" viewBox="0 0 55 55" fill="none" xmlns="http://www.w3.org/2000/svg">
<g clip-path="url(#clip0_207_1271)">
<path fill-rule="evenodd" clip-rule="evenodd" d="M17.5451 0C18.4749 0 19.2287 0.753806 19.2287 1.68367V5.14456H36.4396V1.68367C36.4396 0.753806 37.1934 0 38.1233 0C39.0532 0 39.807 0.753806 39.807 1.68367V5.14456H45.8401C49.6113 5.14456 52.6684 8.20166 52.6684 11.9728V47.9847C52.6684 51.7558 49.6113 54.8129 45.8401 54.8129H9.82823C6.05711 54.8129 3 51.7558 3 47.9847V11.9728C3 8.20166 6.0571 5.14456 9.82823 5.14456H15.8614V1.68367C15.8614 0.753806 16.6152 0 17.5451 0ZM15.8614 8.51191H9.82823C7.91684 8.51191 6.36735 10.0614 6.36735 11.9728V20.5782H49.301V11.9728C49.301 10.0614 47.7515 8.51191 45.8401 8.51191H39.807V11.9728C39.807 12.9027 39.0532 13.6565 38.1233 13.6565C37.1934 13.6565 36.4396 12.9027 36.4396 11.9728V8.51191H19.2287V11.9728C19.2287 12.9027 18.4749 13.6565 17.5451 13.6565C16.6152 13.6565 15.8614 12.9027 15.8614 11.9728V8.51191ZM49.301 23.9456H6.36735V47.9847C6.36735 49.8961 7.91684 51.4456 9.82823 51.4456H45.8401C47.7515 51.4456 49.301 49.8961 49.301 47.9847V23.9456Z" fill="white" stroke="white" stroke-linecap="round" stroke-linejoin="round"/>
</g>
<defs>
<clipPath id="clip0_207_1271">
<path d="M0 8C0 3.58172 3.58172 0 8 0H47C51.4183 0 55 3.58172 55 8V47C55 51.4183 51.4183 55 47 55H8C3.58172 55 0 51.4183 0 47V8Z" fill="white"/>
</clipPath>
</defs>
</svg>
