<svg width="47" height="41" viewBox="0 0 47 41" fill="none" xmlns="http://www.w3.org/2000/svg">
<path fill-rule="evenodd" clip-rule="evenodd" d="M39.2425 15.2452H7.75751C5.51827 15.2452 3.703 17.0515 3.703 19.2797V31.5326H43.297V19.2797C43.297 17.0515 41.4817 15.2452 39.2425 15.2452ZM7.75751 12.5556C4.02544 12.5556 1 15.5661 1 19.2797V31.5326C1 33.018 2.21018 34.2222 3.703 34.2222H43.297C44.7898 34.2222 46 33.018 46 31.5326V19.2797C46 15.5661 42.9746 12.5556 39.2425 12.5556H7.75751Z" fill="white"/>
<path fill-rule="evenodd" clip-rule="evenodd" d="M32.1966 3.68966H15.2495C13.3168 3.68966 11.6528 5.04709 11.2737 6.93291L10.1036 12.7548L37.0549 12.7548L36.2063 7.12566C35.9086 5.1507 34.2036 3.68966 32.1966 3.68966ZM15.2495 1C12.0283 1 9.25495 3.2624 8.62322 6.40542L7.45307 12.2273C7.11855 13.8916 8.39786 15.4444 10.1036 15.4444H37.0549C38.7074 15.4444 39.9731 13.982 39.7279 12.3558L38.8794 6.72668C38.3832 3.43508 35.5416 1 32.1966 1H15.2495Z" fill="white"/>
<path d="M7.69615 34.9677C7.69615 33.5781 8.82825 32.4516 10.2248 32.4516C11.6213 32.4516 12.7534 33.5781 12.7534 34.9677V37.4839C12.7534 38.8735 11.6213 40 10.2248 40C8.82825 40 7.69615 38.8735 7.69615 37.4839V34.9677Z" fill="white"/>
<path d="M11.1613 24.1111C11.1613 22.5156 12.4611 21.2222 14.0645 21.2222C15.6679 21.2222 16.9677 22.5156 16.9677 24.1111C16.9677 25.7066 15.6679 27 14.0645 27C12.4611 27 11.1613 25.7066 11.1613 24.1111Z" fill="white"/>
<path d="M30.0323 24.1111C30.0323 22.5156 31.3321 21.2222 32.9355 21.2222C34.5389 21.2222 35.8387 22.5156 35.8387 24.1111C35.8387 25.7066 34.5389 27 32.9355 27C31.3321 27 30.0323 25.7066 30.0323 24.1111Z" fill="white"/>
<path d="M34.2466 34.9677C34.2466 33.5781 35.3787 32.4516 36.7752 32.4516C38.1717 32.4516 39.3038 33.5781 39.3038 34.9677V37.4839C39.3038 38.8735 38.1717 40 36.7752 40C35.3787 40 34.2466 38.8735 34.2466 37.4839V34.9677Z" fill="white"/>
<path fill-rule="evenodd" clip-rule="evenodd" d="M2.703 32.5326V19.2797C2.703 16.8357 4.44916 14.8043 6.76003 14.3433C6.65959 14.1344 6.57845 13.9152 6.51874 13.6883C3.93153 14.252 2 16.5447 2 19.2797V31.5326C2 32.4611 2.75779 33.2222 3.703 33.2222H7.16078C7.30514 32.9712 7.47966 32.7397 7.67937 32.5326H2.703ZM43.297 31.5326V19.2797C43.297 17.225 41.7534 15.529 39.7571 15.2774C39.5886 15.2562 39.4168 15.2452 39.2425 15.2452H38.0791C37.7645 15.3734 37.4191 15.4444 37.0549 15.4444H10.1036C9.73854 15.4444 9.39302 15.3733 9.07868 15.2452H7.75751C7.63252 15.2452 7.50885 15.2508 7.38674 15.2619C5.32127 15.4482 3.703 17.1759 3.703 19.2797V31.5326H43.297ZM40.3834 14.3741C42.6227 14.889 44.297 16.8865 44.297 19.2797V32.5326H39.3206C39.5203 32.7397 39.6949 32.9712 39.8392 33.2222H43.297C44.2422 33.2222 45 32.4611 45 31.5326V19.2797C45 16.5974 43.1422 14.3406 40.6302 13.7228C40.5684 13.9488 40.4855 14.1667 40.3834 14.3741ZM39.7279 12.3558C39.739 12.429 39.747 12.5019 39.752 12.5744C40.0953 12.5998 40.4314 12.6508 40.7585 12.7254C43.7606 13.4102 46 16.0847 46 19.2797V31.5326C46 33.018 44.7898 34.2222 43.297 34.2222H39.191C39.2644 34.4578 39.3038 34.7082 39.3038 34.9677V37.4839C39.3038 38.8735 38.1717 40 36.7752 40C35.3787 40 34.2466 38.8735 34.2466 37.4839V34.9677C34.2466 34.7082 34.2861 34.4578 34.3595 34.2222H12.6405C12.7139 34.4578 12.7534 34.7082 12.7534 34.9677V37.4839C12.7534 38.8735 11.6213 40 10.2248 40C8.82825 40 7.69615 38.8735 7.69615 37.4839V34.9677C7.69615 34.7082 7.73565 34.4578 7.80899 34.2222H3.703C2.21018 34.2222 1 33.018 1 31.5326V19.2797C1 16.0288 3.31849 13.3167 6.39991 12.6913C6.72756 12.6248 7.06384 12.5819 7.40687 12.5645C7.41507 12.4529 7.43035 12.3404 7.45307 12.2273L8.62322 6.40542C9.25495 3.2624 12.0283 1 15.2495 1H32.1966C35.5416 1 38.3832 3.43508 38.8794 6.72668L39.7279 12.3558ZM8.60808 11.5556L9.60362 6.60247C10.1408 3.92972 12.5013 2 15.2495 2H32.1966C35.0505 2 37.4687 4.07695 37.8906 6.87574L38.596 11.5556H37.8854L37.1951 6.9766C36.8231 4.50883 34.6947 2.68966 32.1966 2.68966H15.2495C12.8438 2.68966 10.7669 4.37977 10.2933 6.73586L9.32462 11.5556H8.60808ZM8.60389 13.5556C8.76153 13.8454 9.00265 14.0873 9.29893 14.2452H37.8591C38.1552 14.0875 38.3967 13.8459 38.5546 13.5556H38.1869L38.2169 13.7548L8.88259 13.7548L8.92263 13.5556H8.60389ZM10.1436 12.5556H37.0248L36.2063 7.12566C35.9086 5.1507 34.2036 3.68966 32.1966 3.68966H15.2495C13.3168 3.68966 11.6528 5.04709 11.2737 6.93291L10.1436 12.5556ZM8.69615 35.2222V37.4839C8.69615 38.3165 9.37586 39 10.2248 39C11.0737 39 11.7534 38.3165 11.7534 37.4839V35.2222H8.69615ZM13.2887 33.2222H33.7113C33.8556 32.9712 34.0301 32.7397 34.2298 32.5326H12.7702C12.9699 32.7397 13.1444 32.9712 13.2887 33.2222ZM35.2466 35.2222V37.4839C35.2466 38.3165 35.9263 39 36.7752 39C37.6241 39 38.3038 38.3165 38.3038 37.4839V35.2222H35.2466ZM12.1613 24.1111C12.1613 25.1497 13.0087 26 14.0645 26C15.1203 26 15.9677 25.1497 15.9677 24.1111C15.9677 23.0726 15.1203 22.2222 14.0645 22.2222C13.0087 22.2222 12.1613 23.0726 12.1613 24.1111ZM31.0323 24.1111C31.0323 25.1497 31.8797 26 32.9355 26C33.9913 26 34.8387 25.1497 34.8387 24.1111C34.8387 23.0726 33.9913 22.2222 32.9355 22.2222C31.8797 22.2222 31.0323 23.0726 31.0323 24.1111ZM14.0645 21.2222C12.4611 21.2222 11.1613 22.5156 11.1613 24.1111C11.1613 25.7066 12.4611 27 14.0645 27C15.6679 27 16.9677 25.7066 16.9677 24.1111C16.9677 22.5156 15.6679 21.2222 14.0645 21.2222ZM30.0323 24.1111C30.0323 22.5156 31.3321 21.2222 32.9355 21.2222C34.5389 21.2222 35.8387 22.5156 35.8387 24.1111C35.8387 25.7066 34.5389 27 32.9355 27C31.3321 27 30.0323 25.7066 30.0323 24.1111Z" fill="white"/>
<path d="M7.75751 15.2452H39.2425M7.75751 15.2452C5.51827 15.2452 3.703 17.0515 3.703 19.2797M7.75751 15.2452H9.07868C9.39302 15.3733 9.73854 15.4444 10.1036 15.4444M7.75751 15.2452C7.63252 15.2452 7.50885 15.2508 7.38674 15.2619C5.32127 15.4482 3.703 17.1759 3.703 19.2797M39.2425 15.2452C41.4817 15.2452 43.297 17.0515 43.297 19.2797M39.2425 15.2452C39.4168 15.2452 39.5886 15.2562 39.7571 15.2774C41.7534 15.529 43.297 17.225 43.297 19.2797M39.2425 15.2452H38.0791C37.7645 15.3734 37.4191 15.4444 37.0549 15.4444M3.703 19.2797V31.5326H43.297V19.2797M1 19.2797C1 15.5661 4.02544 12.5556 7.75751 12.5556H39.2425C42.9746 12.5556 46 15.5661 46 19.2797M1 19.2797V31.5326C1 33.018 2.21018 34.2222 3.703 34.2222M1 19.2797C1 16.0288 3.31849 13.3167 6.39991 12.6913C6.72756 12.6248 7.06384 12.5819 7.40687 12.5645C7.41507 12.4529 7.43035 12.3404 7.45307 12.2273M3.703 34.2222H43.297M3.703 34.2222H7.80899C7.73565 34.4578 7.69615 34.7082 7.69615 34.9677M43.297 34.2222C44.7898 34.2222 46 33.018 46 31.5326V19.2797M43.297 34.2222H39.191C39.2644 34.4578 39.3038 34.7082 39.3038 34.9677M46 19.2797C46 16.0847 43.7606 13.4102 40.7585 12.7254C40.4314 12.6508 40.0953 12.5998 39.752 12.5744C39.747 12.5019 39.739 12.429 39.7279 12.3558M11.2737 6.93291C11.6528 5.04709 13.3168 3.68966 15.2495 3.68966H32.1966C34.2036 3.68966 35.9086 5.1507 36.2063 7.12566M11.2737 6.93291L10.1036 12.7548L37.0549 12.7548L36.2063 7.12566M11.2737 6.93291L10.1436 12.5556H37.0248L36.2063 7.12566M7.45307 12.2273L8.62322 6.40542C9.25495 3.2624 12.0283 1 15.2495 1H32.1966C35.5416 1 38.3832 3.43508 38.8794 6.72668L39.7279 12.3558M7.45307 12.2273C7.11855 13.8916 8.39786 15.4444 10.1036 15.4444M10.1036 15.4444H37.0549M37.0549 15.4444C38.7074 15.4444 39.9731 13.982 39.7279 12.3558M12.7534 34.9677V37.4839C12.7534 38.8735 11.6213 40 10.2248 40C8.82825 40 7.69615 38.8735 7.69615 37.4839V34.9677M12.7534 34.9677C12.7534 33.5781 11.6213 32.4516 10.2248 32.4516C8.82825 32.4516 7.69615 33.5781 7.69615 34.9677M12.7534 34.9677C12.7534 34.7082 12.7139 34.4578 12.6405 34.2222H34.3595C34.2861 34.4578 34.2466 34.7082 34.2466 34.9677M39.3038 34.9677V37.4839C39.3038 38.8735 38.1717 40 36.7752 40C35.3787 40 34.2466 38.8735 34.2466 37.4839V34.9677M39.3038 34.9677C39.3038 33.5781 38.1717 32.4516 36.7752 32.4516C35.3787 32.4516 34.2466 33.5781 34.2466 34.9677M14.0645 27C12.4611 27 11.1613 25.7066 11.1613 24.1111C11.1613 22.5156 12.4611 21.2222 14.0645 21.2222C15.6679 21.2222 16.9677 22.5156 16.9677 24.1111C16.9677 25.7066 15.6679 27 14.0645 27ZM32.9355 27C31.3321 27 30.0323 25.7066 30.0323 24.1111C30.0323 22.5156 31.3321 21.2222 32.9355 21.2222C34.5389 21.2222 35.8387 22.5156 35.8387 24.1111C35.8387 25.7066 34.5389 27 32.9355 27ZM2.703 32.5326V19.2797C2.703 16.8357 4.44916 14.8043 6.76003 14.3433C6.65959 14.1344 6.57845 13.9152 6.51874 13.6883C3.93153 14.252 2 16.5447 2 19.2797V31.5326C2 32.4611 2.75779 33.2222 3.703 33.2222H7.16078C7.30514 32.9712 7.47966 32.7397 7.67937 32.5326H2.703ZM44.297 19.2797C44.297 16.8865 42.6227 14.889 40.3834 14.3741C40.4855 14.1667 40.5684 13.9488 40.6302 13.7228C43.1422 14.3406 45 16.5974 45 19.2797V31.5326C45 32.4611 44.2422 33.2222 43.297 33.2222H39.8392C39.6949 32.9712 39.5203 32.7397 39.3206 32.5326H44.297V19.2797ZM8.60808 11.5556L9.60362 6.60247C10.1408 3.92972 12.5013 2 15.2495 2H32.1966C35.0505 2 37.4687 4.07695 37.8906 6.87574L38.596 11.5556H37.8854L37.1951 6.9766C36.8231 4.50883 34.6947 2.68966 32.1966 2.68966H15.2495C12.8438 2.68966 10.7669 4.37977 10.2933 6.73586L9.32462 11.5556H8.60808ZM9.29893 14.2452C9.00265 14.0873 8.76153 13.8454 8.60389 13.5556H8.92263L8.88259 13.7548L38.2169 13.7548L38.1869 13.5556H38.5546C38.3967 13.8459 38.1552 14.0875 37.8591 14.2452H9.29893ZM8.69615 37.4839V35.2222H11.7534V37.4839C11.7534 38.3165 11.0737 39 10.2248 39C9.37586 39 8.69615 38.3165 8.69615 37.4839ZM33.7113 33.2222H13.2887C13.1444 32.9712 12.9699 32.7397 12.7702 32.5326H34.2298C34.0301 32.7397 33.8556 32.9712 33.7113 33.2222ZM35.2466 37.4839V35.2222H38.3038V37.4839C38.3038 38.3165 37.6241 39 36.7752 39C35.9263 39 35.2466 38.3165 35.2466 37.4839ZM14.0645 26C13.0087 26 12.1613 25.1497 12.1613 24.1111C12.1613 23.0726 13.0087 22.2222 14.0645 22.2222C15.1203 22.2222 15.9677 23.0726 15.9677 24.1111C15.9677 25.1497 15.1203 26 14.0645 26ZM32.9355 26C31.8797 26 31.0323 25.1497 31.0323 24.1111C31.0323 23.0726 31.8797 22.2222 32.9355 22.2222C33.9913 22.2222 34.8387 23.0726 34.8387 24.1111C34.8387 25.1497 33.9913 26 32.9355 26Z" stroke="white"/>
</svg>
