<svg width="49" height="42" viewBox="0 0 49 42" fill="none" xmlns="http://www.w3.org/2000/svg">
<path fill-rule="evenodd" clip-rule="evenodd" d="M1 2.63265C1 1.73096 1.71331 1 2.59322 1H46.4068C47.2867 1 48 1.73096 48 2.63265V12.8367C48 13.7384 47.2867 14.4694 46.4068 14.4694H44.0169V39.3673C44.0169 40.269 43.3036 41 42.4237 41H6.57627C5.69636 41 4.98305 40.269 4.98305 39.3673V14.4694H2.59322C1.71331 14.4694 1 13.7384 1 12.8367V2.63265ZM8.16949 14.4694V37.7347H40.8305V14.4694H8.16949ZM4.18644 11.2041V4.26531H44.8136V11.2041H4.18644ZM18.9237 21C18.9237 20.0983 19.637 19.3673 20.5169 19.3673H28.4831C29.363 19.3673 30.0763 20.0983 30.0763 21C30.0763 21.9017 29.363 22.6327 28.4831 22.6327H20.5169C19.637 22.6327 18.9237 21.9017 18.9237 21Z" fill="white" stroke="white" stroke-linecap="round" stroke-linejoin="round"/>
</svg>
