<svg width="55" height="55" viewBox="0 0 55 55" fill="none" xmlns="http://www.w3.org/2000/svg">
<path fill-rule="evenodd" clip-rule="evenodd" d="M7.73469 3.2449C5.25505 3.2449 3.2449 5.25505 3.2449 7.73469V47.0204C3.2449 49.5001 5.25505 51.5102 7.73469 51.5102H47.0204C49.5001 51.5102 51.5102 49.5001 51.5102 47.0204V7.73469C51.5102 5.25505 49.5001 3.2449 47.0204 3.2449H7.73469ZM1 7.73469C1 4.01522 4.01522 1 7.73469 1H47.0204C50.7399 1 53.7551 4.01522 53.7551 7.73469V47.0204C53.7551 50.7399 50.7399 53.7551 47.0204 53.7551H7.73469C4.01522 53.7551 1 50.7399 1 47.0204V7.73469Z" fill="white"/>
<path fill-rule="evenodd" clip-rule="evenodd" d="M12.2245 13.3469C12.2245 12.727 12.727 12.2245 13.3469 12.2245H21.7653C22.3852 12.2245 22.8878 12.727 22.8878 13.3469V38.602C22.8878 39.222 22.3852 39.7245 21.7653 39.7245H13.3469C12.727 39.7245 12.2245 39.222 12.2245 38.602V13.3469ZM14.4694 14.4694V37.4796H20.6429V14.4694H14.4694Z" fill="white"/>
<path fill-rule="evenodd" clip-rule="evenodd" d="M31.8673 13.3469C31.8673 12.727 32.3699 12.2245 32.9898 12.2245H41.4082C42.0281 12.2245 42.5306 12.727 42.5306 13.3469V27.3776C42.5306 27.9975 42.0281 28.5 41.4082 28.5H32.9898C32.3699 28.5 31.8673 27.9975 31.8673 27.3776V13.3469ZM34.1122 14.4694V26.2551H40.2857V14.4694H34.1122Z" fill="white"/>
<path fill-rule="evenodd" clip-rule="evenodd" d="M7.73469 3.2449C5.25505 3.2449 3.2449 5.25505 3.2449 7.73469V47.0204C3.2449 49.5001 5.25505 51.5102 7.73469 51.5102H47.0204C49.5001 51.5102 51.5102 49.5001 51.5102 47.0204V7.73469C51.5102 5.25505 49.5001 3.2449 47.0204 3.2449H7.73469ZM1 7.73469C1 4.01522 4.01522 1 7.73469 1H47.0204C50.7399 1 53.7551 4.01522 53.7551 7.73469V47.0204C53.7551 50.7399 50.7399 53.7551 47.0204 53.7551H7.73469C4.01522 53.7551 1 50.7399 1 47.0204V7.73469Z" stroke="white" stroke-linecap="round" stroke-linejoin="round"/>
<path fill-rule="evenodd" clip-rule="evenodd" d="M12.2245 13.3469C12.2245 12.727 12.727 12.2245 13.3469 12.2245H21.7653C22.3852 12.2245 22.8878 12.727 22.8878 13.3469V38.602C22.8878 39.222 22.3852 39.7245 21.7653 39.7245H13.3469C12.727 39.7245 12.2245 39.222 12.2245 38.602V13.3469ZM14.4694 14.4694V37.4796H20.6429V14.4694H14.4694Z" stroke="white" stroke-linecap="round" stroke-linejoin="round"/>
<path fill-rule="evenodd" clip-rule="evenodd" d="M31.8673 13.3469C31.8673 12.727 32.3699 12.2245 32.9898 12.2245H41.4082C42.0281 12.2245 42.5306 12.727 42.5306 13.3469V27.3776C42.5306 27.9975 42.0281 28.5 41.4082 28.5H32.9898C32.3699 28.5 31.8673 27.9975 31.8673 27.3776V13.3469ZM34.1122 14.4694V26.2551H40.2857V14.4694H34.1122Z" stroke="white" stroke-linecap="round" stroke-linejoin="round"/>
</svg>
