<svg width="55" height="55" viewBox="0 0 55 55" fill="none" xmlns="http://www.w3.org/2000/svg">
<path fill-rule="evenodd" clip-rule="evenodd" d="M21.746 4.23162C19.4383 4.2256 17.1618 4.76478 15.1019 5.80523L15.0943 5.80906C12.6212 7.04509 10.541 8.94526 9.08679 11.2967C7.63259 13.6482 6.86178 16.3581 6.86071 19.123L6.86071 19.1274C6.85469 21.4351 7.39387 23.7117 8.43432 25.7715C8.67474 26.2475 8.71512 26.7998 8.54649 27.3057L6.03587 34.8376L13.5677 32.327C14.0736 32.1583 14.6259 32.1987 15.1019 32.4391C17.1618 33.4796 19.4383 34.0188 21.746 34.0127L21.7505 34.0127C24.5153 34.0117 27.2252 33.2409 29.5767 31.7867C31.9282 30.3325 33.8283 28.2523 35.0644 25.7791L35.0682 25.7715C36.1087 23.7117 36.6478 21.4351 36.6418 19.1274L36.6418 19.1222V18.1855C36.4284 14.555 34.8902 11.1282 32.3177 8.55574C29.7452 5.98327 26.3185 4.44499 22.688 4.23162H21.7513L21.746 4.23162ZM41.1418 17.9998C38.6418 0.252447 24.4521 0.261282 24.2718 0.26041C24.1001 0.25958 23.8835 0.258529 23.6418 0.257465C23.4599 0.256664 23.2637 0.255855 23.0618 0.255127C22.8702 0.254437 22.6733 0.25382 22.4785 0.253352C22.2276 0.252749 21.9801 0.252393 21.7513 0.252447C21.577 0.252487 21.4136 0.252765 21.2679 0.253352C20.9562 0.254607 20.7253 0.257274 20.6418 0.262054C18.0899 0.408136 15.5911 1.07748 13.3023 2.23293C10.1664 3.80105 7.52888 6.21092 5.68478 9.19286C3.84032 12.1754 2.86248 15.6124 2.86072 19.1192C2.85412 21.7715 3.41324 24.3914 4.49696 26.8052L0.976223 37.3674C0.736666 38.0861 0.923711 38.8784 1.45938 39.4141C1.99504 39.9497 2.78738 40.1368 3.50604 39.8972L14.0682 36.3765C16.1477 37.3101 18.3802 37.8544 20.6546 37.983C24.0179 38.1732 26.1418 38.1323 29.5767 36.9998C39.6418 33.1323 40.6418 22.4998 41.1418 19.1274M42.6621 23.716C42.8032 22.7314 43.6467 21.9999 44.6418 21.9999H47.6418C48.9679 21.9999 50.2397 22.5266 51.1773 23.4643C52.115 24.402 52.6418 25.6738 52.6418 26.9999V50.9999C52.6418 51.8088 52.1545 52.5381 51.4072 52.8476C50.6598 53.1572 49.7996 52.9861 49.2276 52.4141L43.8134 46.9999H26.6418C25.3157 46.9999 24.044 46.4731 23.1063 45.5354C22.1686 44.5977 21.6418 43.3259 21.6418 41.9999C21.6418 41.4633 21.8574 40.9493 22.2401 40.5733C22.6219 40.1981 23.1381 39.9917 23.6733 40.0001C24.2084 40.0085 23.6748 40.0001 23.6748 40.0001L23.6769 40.0002L23.6819 40.0002C23.6851 40.0002 23.6892 40.0002 23.6942 40.0003C23.7044 40.0003 23.7182 40.0003 23.7356 40.0002C23.7872 40.0001 23.8696 39.9992 23.98 39.9963C24.201 39.9905 24.533 39.9764 24.9529 39.9431C25.7948 39.8763 26.9776 39.733 28.3204 39.4286C31.0366 38.813 34.2359 37.5774 36.6586 35.1546C39.2014 32.6119 40.7118 29.7334 41.5865 27.4689C42.0223 26.3407 42.2949 25.3784 42.457 24.7081C42.5379 24.3734 42.591 24.113 42.6228 23.9428C42.6387 23.8578 42.6493 23.7954 42.6555 23.7578L42.6613 23.7211L42.6614 23.7201L42.6621 23.716ZM46.257 25.9999C46.0565 26.7752 45.7565 27.7744 45.3178 28.9101C44.3046 31.5335 42.5305 34.9396 39.4871 37.983C36.751 40.7191 33.377 42.1958 30.5079 42.9999H44.6418C45.1722 42.9999 45.681 43.2106 46.056 43.5856L48.6418 46.1714V26.9999C48.6418 26.7346 48.5365 26.4803 48.3489 26.2928C48.1614 26.1052 47.907 25.9999 47.6418 25.9999H46.257Z" fill="white"/>
</svg>
