<svg width="55" height="55" viewBox="0 0 55 55" fill="none" xmlns="http://www.w3.org/2000/svg">
<mask id="path-2-inside-1_147_86" fill="white">
<path fill-rule="evenodd" clip-rule="evenodd" d="M7.55906 10.4077V47.0968H45.5802L7.55906 10.4077ZM7.11582 5.93592C6.19059 5.04311 4.6416 5.69552 4.6416 6.97803V48.5484C4.6416 49.3501 5.2947 50 6.10033 50H49.1799C50.4904 50 51.1362 48.4141 50.1954 47.5063L7.11582 5.93592ZM16.3114 30.5019V38.3871H24.8956L16.3114 30.5019ZM15.8421 26.1198C14.9077 25.2614 13.394 25.921 13.394 27.1864V39.8387C13.394 40.6404 14.0471 41.2903 14.8527 41.2903H28.6265C29.9544 41.2903 30.5917 39.6683 29.616 38.7721L15.8421 26.1198Z"/>
<path fill-rule="evenodd" clip-rule="evenodd" d="M13.1804 14.6481C13.4652 14.9315 13.4652 15.3911 13.1804 15.6745L10.9923 17.8519C10.7074 18.1354 10.2456 18.1354 9.96078 17.8519C9.67595 17.5685 9.67595 17.1089 9.96078 16.8255L12.1489 14.6481C12.4337 14.3646 12.8955 14.3646 13.1804 14.6481Z"/>
<path fill-rule="evenodd" clip-rule="evenodd" d="M19.0153 20.4545C19.3001 20.738 19.3001 21.1975 19.0153 21.481L16.8272 23.6584C16.5423 23.9418 16.0805 23.9418 15.7957 23.6584C15.5109 23.3749 15.5109 22.9154 15.7957 22.6319L17.9838 20.4545C18.2686 20.1711 18.7304 20.1711 19.0153 20.4545Z"/>
<path fill-rule="evenodd" clip-rule="evenodd" d="M24.8502 26.261C25.135 26.5444 25.135 27.004 24.8502 27.2874L22.6621 29.4648C22.3773 29.7483 21.9155 29.7483 21.6306 29.4648C21.3458 29.1814 21.3458 28.7218 21.6306 28.4384L23.8187 26.261C24.1036 25.9775 24.5654 25.9775 24.8502 26.261Z"/>
<path fill-rule="evenodd" clip-rule="evenodd" d="M30.6851 32.0674C30.97 32.3509 30.97 32.8104 30.6851 33.0939L28.497 35.2713C28.2122 35.5547 27.7504 35.5547 27.4655 35.2713C27.1807 34.9878 27.1807 34.5283 27.4655 34.2448L29.6536 32.0674C29.9385 31.784 30.4003 31.784 30.6851 32.0674Z"/>
<path fill-rule="evenodd" clip-rule="evenodd" d="M36.52 36.4223C36.8049 36.7057 36.8049 37.1653 36.52 37.4487L34.3319 39.6261C34.0471 39.9096 33.5853 39.9096 33.3005 39.6261C33.0156 39.3427 33.0156 38.8831 33.3005 38.5997L35.4886 36.4223C35.7734 36.1388 36.2352 36.1388 36.52 36.4223Z"/>
<path fill-rule="evenodd" clip-rule="evenodd" d="M42.355 42.2287C42.6398 42.5122 42.6398 42.9717 42.355 43.2552L40.1669 45.4326C39.882 45.716 39.4202 45.716 39.1354 45.4326C38.8505 45.1491 38.8505 44.6896 39.1354 44.4061L41.3235 42.2287C41.6083 41.9453 42.0701 41.9453 42.355 42.2287Z"/>
<path fill-rule="evenodd" clip-rule="evenodd" d="M45.486 36.9152C46.107 36.1516 46.6714 35.3406 47.173 34.4886C48.8824 31.5852 49.8622 28.2048 49.8622 24.5968C49.8622 13.7738 41.0454 5 30.1694 5C26.5342 5 23.1291 5.98014 20.2064 7.68934C19.3509 8.18963 18.5367 8.75238 17.7702 9.3713L45.486 36.9152ZM22.3523 9.82192L45.0271 32.356C46.2522 30.0386 46.9448 27.4001 46.9448 24.5968C46.9448 15.3772 39.4342 7.90323 30.1694 7.90323C27.3443 7.90323 24.6858 8.59634 22.3523 9.82192Z"/>
<path fill-rule="evenodd" clip-rule="evenodd" d="M28.9538 16.6184C29.7527 15.9733 30.707 15.5112 31.7522 15.2964C32.1831 15.2078 32.6295 15.1613 33.0868 15.1613C36.7122 15.1613 39.6511 18.0859 39.6511 21.6935C39.6511 22.1456 39.605 22.5869 39.5171 23.0131C39.3026 24.0536 38.8396 25.0038 38.1924 25.7997L28.9538 16.6184ZM36.0228 19.5405L35.2465 18.769C35.5425 18.9859 35.8045 19.2462 36.0228 19.5405Z"/>
</mask>
<path fill-rule="evenodd" clip-rule="evenodd" d="M7.55906 10.4077V47.0968H45.5802L7.55906 10.4077ZM7.11582 5.93592C6.19059 5.04311 4.6416 5.69552 4.6416 6.97803V48.5484C4.6416 49.3501 5.2947 50 6.10033 50H49.1799C50.4904 50 51.1362 48.4141 50.1954 47.5063L7.11582 5.93592ZM16.3114 30.5019V38.3871H24.8956L16.3114 30.5019ZM15.8421 26.1198C14.9077 25.2614 13.394 25.921 13.394 27.1864V39.8387C13.394 40.6404 14.0471 41.2903 14.8527 41.2903H28.6265C29.9544 41.2903 30.5917 39.6683 29.616 38.7721L15.8421 26.1198Z" fill="white"/>
<path fill-rule="evenodd" clip-rule="evenodd" d="M13.1804 14.6481C13.4652 14.9315 13.4652 15.3911 13.1804 15.6745L10.9923 17.8519C10.7074 18.1354 10.2456 18.1354 9.96078 17.8519C9.67595 17.5685 9.67595 17.1089 9.96078 16.8255L12.1489 14.6481C12.4337 14.3646 12.8955 14.3646 13.1804 14.6481Z" fill="white"/>
<path fill-rule="evenodd" clip-rule="evenodd" d="M19.0153 20.4545C19.3001 20.738 19.3001 21.1975 19.0153 21.481L16.8272 23.6584C16.5423 23.9418 16.0805 23.9418 15.7957 23.6584C15.5109 23.3749 15.5109 22.9154 15.7957 22.6319L17.9838 20.4545C18.2686 20.1711 18.7304 20.1711 19.0153 20.4545Z" fill="white"/>
<path fill-rule="evenodd" clip-rule="evenodd" d="M24.8502 26.261C25.135 26.5444 25.135 27.004 24.8502 27.2874L22.6621 29.4648C22.3773 29.7483 21.9155 29.7483 21.6306 29.4648C21.3458 29.1814 21.3458 28.7218 21.6306 28.4384L23.8187 26.261C24.1036 25.9775 24.5654 25.9775 24.8502 26.261Z" fill="white"/>
<path fill-rule="evenodd" clip-rule="evenodd" d="M30.6851 32.0674C30.97 32.3509 30.97 32.8104 30.6851 33.0939L28.497 35.2713C28.2122 35.5547 27.7504 35.5547 27.4655 35.2713C27.1807 34.9878 27.1807 34.5283 27.4655 34.2448L29.6536 32.0674C29.9385 31.784 30.4003 31.784 30.6851 32.0674Z" fill="white"/>
<path fill-rule="evenodd" clip-rule="evenodd" d="M36.52 36.4223C36.8049 36.7057 36.8049 37.1653 36.52 37.4487L34.3319 39.6261C34.0471 39.9096 33.5853 39.9096 33.3005 39.6261C33.0156 39.3427 33.0156 38.8831 33.3005 38.5997L35.4886 36.4223C35.7734 36.1388 36.2352 36.1388 36.52 36.4223Z" fill="white"/>
<path fill-rule="evenodd" clip-rule="evenodd" d="M42.355 42.2287C42.6398 42.5122 42.6398 42.9717 42.355 43.2552L40.1669 45.4326C39.882 45.716 39.4202 45.716 39.1354 45.4326C38.8505 45.1491 38.8505 44.6896 39.1354 44.4061L41.3235 42.2287C41.6083 41.9453 42.0701 41.9453 42.355 42.2287Z" fill="white"/>
<path fill-rule="evenodd" clip-rule="evenodd" d="M45.486 36.9152C46.107 36.1516 46.6714 35.3406 47.173 34.4886C48.8824 31.5852 49.8622 28.2048 49.8622 24.5968C49.8622 13.7738 41.0454 5 30.1694 5C26.5342 5 23.1291 5.98014 20.2064 7.68934C19.3509 8.18963 18.5367 8.75238 17.7702 9.3713L45.486 36.9152ZM22.3523 9.82192L45.0271 32.356C46.2522 30.0386 46.9448 27.4001 46.9448 24.5968C46.9448 15.3772 39.4342 7.90323 30.1694 7.90323C27.3443 7.90323 24.6858 8.59634 22.3523 9.82192Z" fill="white"/>
<path fill-rule="evenodd" clip-rule="evenodd" d="M28.9538 16.6184C29.7527 15.9733 30.707 15.5112 31.7522 15.2964C32.1831 15.2078 32.6295 15.1613 33.0868 15.1613C36.7122 15.1613 39.6511 18.0859 39.6511 21.6935C39.6511 22.1456 39.605 22.5869 39.5171 23.0131C39.3026 24.0536 38.8396 25.0038 38.1924 25.7997L28.9538 16.6184ZM36.0228 19.5405L35.2465 18.769C35.5425 18.9859 35.8045 19.2462 36.0228 19.5405Z" fill="white"/>
<path d="M7.55906 47.0968H6.55906V48.0968H7.55906V47.0968ZM7.55906 10.4077L8.25345 9.68808L6.55906 8.05306V10.4077H7.55906ZM45.5802 47.0968V48.0968H48.0566L46.2746 46.3772L45.5802 47.0968ZM7.11582 5.93592L7.81021 5.21632L7.81021 5.21632L7.11582 5.93592ZM50.1954 47.5063L49.501 48.2259V48.2259L50.1954 47.5063ZM16.3114 38.3871H15.3114V39.3871H16.3114V38.3871ZM16.3114 30.5019L16.9879 29.7654L15.3114 28.2255V30.5019H16.3114ZM24.8956 38.3871V39.3871H27.4625L25.5721 37.6506L24.8956 38.3871ZM15.8421 26.1198L15.1657 26.8562L15.8421 26.1198ZM29.616 38.7721L30.2925 38.0356L29.616 38.7721ZM13.1804 15.6745L13.8857 16.3833L13.1804 15.6745ZM13.1804 14.6481L13.8857 13.9392V13.9392L13.1804 14.6481ZM10.9923 17.8519L11.6976 18.5608L10.9923 17.8519ZM9.96078 17.8519L9.25541 18.5608L9.96078 17.8519ZM9.96078 16.8255L10.6662 17.5343L9.96078 16.8255ZM12.1489 14.6481L11.4435 13.9392L11.4435 13.9392L12.1489 14.6481ZM19.0153 21.481L19.7207 22.1898L19.0153 21.481ZM19.0153 20.4545L19.7207 19.7457L19.0153 20.4545ZM16.8272 23.6584L17.5326 24.3672V24.3672L16.8272 23.6584ZM15.7957 23.6584L15.0903 24.3672V24.3672L15.7957 23.6584ZM15.7957 22.6319L16.5011 23.3408L15.7957 22.6319ZM17.9838 20.4545L17.2784 19.7457L17.9838 20.4545ZM24.8502 27.2874L25.5556 27.9963L24.8502 27.2874ZM24.8502 26.261L25.5556 25.5521L24.8502 26.261ZM22.6621 29.4648L23.3675 30.1737V30.1737L22.6621 29.4648ZM21.6306 29.4648L20.9252 30.1737V30.1737L21.6306 29.4648ZM21.6306 28.4384L20.9252 27.7296L21.6306 28.4384ZM23.8187 26.261L23.1133 25.5521L23.8187 26.261ZM30.6851 33.0939L31.3905 33.8027L30.6851 33.0939ZM30.6851 32.0674L31.3905 31.3586L30.6851 32.0674ZM28.497 35.2713L29.2024 35.9801V35.9801L28.497 35.2713ZM27.4655 35.2713L26.7602 35.9801V35.9801L27.4655 35.2713ZM27.4655 34.2448L26.7602 33.536L27.4655 34.2448ZM29.6536 32.0674L28.9483 31.3586L29.6536 32.0674ZM36.52 37.4487L37.2254 38.1575L36.52 37.4487ZM36.52 36.4223L37.2254 35.7134L36.52 36.4223ZM34.3319 39.6261L35.0373 40.335L34.3319 39.6261ZM33.3005 39.6261L32.5951 40.335L33.3005 39.6261ZM33.3005 38.5997L32.5951 37.8908L33.3005 38.5997ZM35.4886 36.4223L34.7832 35.7134L35.4886 36.4223ZM42.355 43.2552L43.0603 43.964L42.355 43.2552ZM42.355 42.2287L43.0603 41.5199L42.355 42.2287ZM40.1669 45.4326L40.8722 46.1414L40.1669 45.4326ZM39.1354 45.4326L38.43 46.1414L39.1354 45.4326ZM39.1354 44.4061L38.43 43.6973L39.1354 44.4061ZM41.3235 42.2287L40.6181 41.5199L41.3235 42.2287ZM45.486 36.9152L44.7811 37.6245L45.5648 38.4033L46.2619 37.5461L45.486 36.9152ZM47.173 34.4886L46.3113 33.9813V33.9813L47.173 34.4886ZM20.2064 7.68934L20.7112 8.55257L20.2064 7.68934ZM17.7702 9.3713L17.142 8.59327L16.2739 9.29416L17.0653 10.0806L17.7702 9.3713ZM45.0271 32.356L44.3222 33.0653L45.2801 34.0172L45.9112 32.8234L45.0271 32.356ZM22.3523 9.82192L21.8873 8.93659L20.6805 9.57039L21.6474 10.5312L22.3523 9.82192ZM28.9538 16.6184L28.3255 15.8404L27.4575 16.5412L28.2489 17.3277L28.9538 16.6184ZM31.7522 15.2964L31.9535 16.2759L31.7522 15.2964ZM39.5171 23.0131L40.4965 23.215V23.215L39.5171 23.0131ZM38.1924 25.7997L37.4875 26.509L38.2712 27.2878L38.9683 26.4306L38.1924 25.7997ZM36.0228 19.5405L35.3179 20.2498L36.826 18.9448L36.0228 19.5405ZM35.2465 18.769L35.8374 17.9623L34.5416 19.4783L35.2465 18.769ZM8.55906 47.0968V10.4077H6.55906V47.0968H8.55906ZM45.5802 46.0968H7.55906V48.0968H45.5802V46.0968ZM6.86467 11.1273L44.8858 47.8164L46.2746 46.3772L8.25345 9.68808L6.86467 11.1273ZM5.6416 6.97803C5.6416 6.588 6.12383 6.36834 6.42143 6.65552L7.81021 5.21632C6.25736 3.71787 3.6416 4.80305 3.6416 6.97803H5.6416ZM5.6416 48.5484V6.97803H3.6416V48.5484H5.6416ZM6.10033 49C5.84237 49 5.6416 48.7932 5.6416 48.5484H3.6416C3.6416 49.907 4.74703 51 6.10033 51V49ZM49.1799 49H6.10033V51H49.1799V49ZM49.501 48.2259C49.787 48.5018 49.6013 49 49.1799 49V51C51.3795 51 52.4854 48.3263 50.8898 46.7867L49.501 48.2259ZM6.42143 6.65552L49.501 48.2259L50.8898 46.7867L7.81021 5.21632L6.42143 6.65552ZM17.3114 38.3871V30.5019H15.3114V38.3871H17.3114ZM24.8956 37.3871H16.3114V39.3871H24.8956V37.3871ZM15.635 31.2383L24.2191 39.1235L25.5721 37.6506L16.9879 29.7654L15.635 31.2383ZM14.394 27.1864C14.394 26.8016 14.865 26.5801 15.1657 26.8562L16.5186 25.3833C14.9504 23.9428 12.394 25.0404 12.394 27.1864H14.394ZM14.394 39.8387V27.1864H12.394V39.8387H14.394ZM14.8527 40.2903C14.5947 40.2903 14.394 40.0835 14.394 39.8387H12.394C12.394 41.1973 13.4994 42.2903 14.8527 42.2903V40.2903ZM28.6265 40.2903H14.8527V42.2903H28.6265V40.2903ZM28.9395 39.5085C29.2362 39.781 29.0535 40.2903 28.6265 40.2903V42.2903C30.8554 42.2903 31.9473 39.5557 30.2925 38.0356L28.9395 39.5085ZM15.1657 26.8562L28.9395 39.5085L30.2925 38.0356L16.5186 25.3833L15.1657 26.8562ZM13.8857 16.3833C14.5634 15.709 14.5634 14.6136 13.8857 13.9392L12.475 15.3569C12.367 15.2494 12.367 15.0732 12.475 14.9657L13.8857 16.3833ZM11.6976 18.5608L13.8857 16.3833L12.475 14.9657L10.2869 17.1431L11.6976 18.5608ZM9.25541 18.5608C9.93037 19.2324 11.0227 19.2324 11.6976 18.5608L10.2869 17.1431C10.3922 17.0383 10.5609 17.0383 10.6662 17.1431L9.25541 18.5608ZM9.25541 16.1167C8.57774 16.791 8.57774 17.8864 9.25541 18.5608L10.6662 17.1431C10.7742 17.2506 10.7742 17.4269 10.6662 17.5343L9.25541 16.1167ZM11.4435 13.9392L9.25541 16.1167L10.6662 17.5343L12.8543 15.3569L11.4435 13.9392ZM13.8857 13.9392C13.2108 13.2676 12.1185 13.2676 11.4435 13.9392L12.8543 15.3569C12.749 15.4617 12.5803 15.4617 12.475 15.3569L13.8857 13.9392ZM19.7207 22.1898C20.3983 21.5154 20.3983 20.42 19.7207 19.7457L18.3099 21.1634C18.2019 21.0559 18.2019 20.8796 18.3099 20.7721L19.7207 22.1898ZM17.5326 24.3672L19.7207 22.1898L18.3099 20.7721L16.1218 22.9496L17.5326 24.3672ZM15.0903 24.3672C15.7653 25.0389 16.8576 25.0389 17.5326 24.3672L16.1218 22.9496C16.2271 22.8448 16.3958 22.8448 16.5011 22.9496L15.0903 24.3672ZM15.0903 21.9231C14.4127 22.5975 14.4127 23.6929 15.0903 24.3672L16.5011 22.9496C16.6091 23.057 16.6091 23.2333 16.5011 23.3408L15.0903 21.9231ZM17.2784 19.7457L15.0903 21.9231L16.5011 23.3408L18.6892 21.1634L17.2784 19.7457ZM19.7207 19.7457C19.0457 19.074 17.9534 19.074 17.2784 19.7457L18.6892 21.1634C18.5839 21.2681 18.4152 21.2681 18.3099 21.1634L19.7207 19.7457ZM25.5556 27.9963C26.2332 27.3219 26.2332 26.2265 25.5556 25.5521L24.1448 26.9698C24.0368 26.8623 24.0368 26.6861 24.1448 26.5786L25.5556 27.9963ZM23.3675 30.1737L25.5556 27.9963L24.1448 26.5786L21.9567 28.756L23.3675 30.1737ZM20.9252 30.1737C21.6002 30.8453 22.6925 30.8453 23.3675 30.1737L21.9567 28.756C22.062 28.6512 22.2307 28.6512 22.336 28.756L20.9252 30.1737ZM20.9252 27.7296C20.2476 28.4039 20.2476 29.4993 20.9252 30.1737L22.336 28.756C22.444 28.8635 22.444 29.0398 22.336 29.1472L20.9252 27.7296ZM23.1133 25.5521L20.9252 27.7296L22.336 29.1472L24.5241 26.9698L23.1133 25.5521ZM25.5556 25.5521C24.8806 24.8805 23.7883 24.8805 23.1133 25.5521L24.5241 26.9698C24.4188 27.0746 24.2501 27.0746 24.1448 26.9698L25.5556 25.5521ZM31.3905 33.8027C32.0682 33.1283 32.0682 32.0329 31.3905 31.3586L29.9797 32.7763C29.8717 32.6688 29.8717 32.4925 29.9797 32.385L31.3905 33.8027ZM29.2024 35.9801L31.3905 33.8027L29.9797 32.385L27.7916 34.5625L29.2024 35.9801ZM26.7602 35.9801C27.4351 36.6518 28.5274 36.6518 29.2024 35.9801L27.7916 34.5625C27.8969 34.4577 28.0656 34.4577 28.1709 34.5625L26.7602 35.9801ZM26.7602 33.536C26.0825 34.2104 26.0825 35.3058 26.7602 35.9801L28.1709 34.5625C28.2789 34.6699 28.2789 34.8462 28.1709 34.9537L26.7602 33.536ZM28.9483 31.3586L26.7602 33.536L28.1709 34.9537L30.359 32.7763L28.9483 31.3586ZM31.3905 31.3586C30.7155 30.6869 29.6232 30.6869 28.9483 31.3586L30.359 32.7763C30.2537 32.881 30.085 32.881 29.9797 32.7763L31.3905 31.3586ZM37.2254 38.1575C37.9031 37.4832 37.9031 36.3878 37.2254 35.7134L35.8147 37.1311C35.7067 37.0236 35.7067 36.8473 35.8147 36.7399L37.2254 38.1575ZM35.0373 40.335L37.2254 38.1575L35.8147 36.7399L33.6266 38.9173L35.0373 40.335ZM32.5951 40.335C33.27 41.0066 34.3624 41.0066 35.0373 40.335L33.6266 38.9173C33.7319 38.8125 33.9005 38.8125 34.0058 38.9173L32.5951 40.335ZM32.5951 37.8908C31.9174 38.5652 31.9174 39.6606 32.5951 40.335L34.0058 38.9173C34.1138 39.0248 34.1138 39.201 34.0058 39.3085L32.5951 37.8908ZM34.7832 35.7134L32.5951 37.8908L34.0058 39.3085L36.1939 37.1311L34.7832 35.7134ZM37.2254 35.7134C36.5505 35.0418 35.4581 35.0418 34.7832 35.7134L36.1939 37.1311C36.0886 37.2359 35.92 37.2359 35.8147 37.1311L37.2254 35.7134ZM43.0603 43.964C43.738 43.2896 43.738 42.1942 43.0603 41.5199L41.6496 42.9375C41.5416 42.8301 41.5416 42.6538 41.6496 42.5463L43.0603 43.964ZM40.8722 46.1414L43.0603 43.964L41.6496 42.5463L39.4615 44.7237L40.8722 46.1414ZM38.43 46.1414C39.105 46.8131 40.1973 46.8131 40.8722 46.1414L39.4615 44.7237C39.5668 44.619 39.7355 44.619 39.8408 44.7237L38.43 46.1414ZM38.43 43.6973C37.7523 44.3717 37.7523 45.4671 38.43 46.1414L39.8408 44.7237C39.9488 44.8312 39.9488 45.0075 39.8408 45.115L38.43 43.6973ZM40.6181 41.5199L38.43 43.6973L39.8408 45.115L42.0289 42.9375L40.6181 41.5199ZM43.0603 41.5199C42.3854 40.8482 41.2931 40.8482 40.6181 41.5199L42.0289 42.9375C41.9236 43.0423 41.7549 43.0423 41.6496 42.9375L43.0603 41.5199ZM46.2619 37.5461C46.9143 36.7438 47.5075 35.8915 48.0348 34.996L46.3113 33.9813C45.8353 34.7897 45.2996 35.5594 44.7102 36.2843L46.2619 37.5461ZM48.0348 34.996C49.832 31.9432 50.8622 28.3883 50.8622 24.5968H48.8622C48.8622 28.0214 47.9327 31.2272 46.3113 33.9813L48.0348 34.996ZM50.8622 24.5968C50.8622 13.2169 41.5931 4 30.1694 4V6C40.4978 6 48.8622 14.3307 48.8622 24.5968H50.8622ZM30.1694 4C26.3522 4 22.7735 5.02967 19.7016 6.82611L20.7112 8.55257C23.4847 6.93061 26.7162 6 30.1694 6V4ZM19.7016 6.82611C18.8026 7.35179 17.9472 7.94305 17.142 8.59327L18.3984 10.1493C19.1262 9.56172 19.8991 9.02747 20.7112 8.55257L19.7016 6.82611ZM45.732 31.6467L23.0572 9.11261L21.6474 10.5312L44.3222 33.0653L45.732 31.6467ZM45.9448 24.5968C45.9448 27.2334 45.2938 29.7119 44.143 31.8887L45.9112 32.8234C47.2106 30.3654 47.9448 27.5669 47.9448 24.5968H45.9448ZM30.1694 8.90323C38.8865 8.90323 45.9448 15.9341 45.9448 24.5968H47.9448C47.9448 14.8203 39.9818 6.90323 30.1694 6.90323V8.90323ZM22.8172 10.7072C25.0105 9.55536 27.5098 8.90323 30.1694 8.90323V6.90323C27.1788 6.90323 24.3611 7.63733 21.8873 8.93659L22.8172 10.7072ZM17.0653 10.0806L44.7811 37.6245L46.1909 36.2059L18.4751 8.662L17.0653 10.0806ZM31.5509 14.3169C30.3457 14.5646 29.2457 15.0974 28.3255 15.8404L29.582 17.3964C30.2598 16.8492 31.0684 16.4578 31.9535 16.2759L31.5509 14.3169ZM33.0868 14.1613C32.5615 14.1613 32.0477 14.2148 31.5509 14.3169L31.9535 16.2759C32.3186 16.2009 32.6975 16.1613 33.0868 16.1613V14.1613ZM40.6511 21.6935C40.6511 17.529 37.2599 14.1613 33.0868 14.1613V16.1613C36.1645 16.1613 38.6511 18.6428 38.6511 21.6935H40.6511ZM40.4965 23.215C40.598 22.7228 40.6511 22.2138 40.6511 21.6935H38.6511C38.6511 22.0774 38.612 22.4511 38.5377 22.8112L40.4965 23.215ZM38.9683 26.4306C39.7139 25.5136 40.2487 24.4171 40.4965 23.215L38.5377 22.8112C38.3565 23.6901 37.9652 24.494 37.4165 25.1688L38.9683 26.4306ZM36.7277 18.8312L35.9514 18.0597L34.5416 19.4783L35.3179 20.2498L36.7277 18.8312ZM34.6556 19.5757C34.8708 19.7334 35.0612 19.9226 35.2197 20.1363L36.826 18.9448C36.5478 18.5698 36.2143 18.2383 35.8374 17.9623L34.6556 19.5757ZM28.2489 17.3277L37.4875 26.509L38.8973 25.0904L29.6587 15.9091L28.2489 17.3277Z" fill="white" mask="url(#path-2-inside-1_147_86)"/>
</svg>
