<svg width="48" height="32" viewBox="0 0 48 32" fill="none" xmlns="http://www.w3.org/2000/svg">
<path fill-rule="evenodd" clip-rule="evenodd" d="M6.45763 4.07692C5.16584 4.07692 4.11864 5.11011 4.11864 6.38462V25.6154C4.11864 26.8899 5.16584 27.9231 6.45763 27.9231H27.8983C29.1901 27.9231 30.2373 26.8899 30.2373 25.6154V6.38462C30.2373 5.11011 29.1901 4.07692 27.8983 4.07692H6.45763ZM33.3559 13.0105V6.38462C33.3559 3.41077 30.9125 1 27.8983 1H6.45763C3.44346 1 1 3.41077 1 6.38462V25.6154C1 28.5892 3.44346 31 6.45763 31H27.8983C30.9125 31 33.3559 28.5892 33.3559 25.6154V18.9895L44.5343 26.8673C45.0096 27.2022 45.6348 27.247 46.1542 26.9833C46.6736 26.7196 47 26.1917 47 25.6154V6.38462C47 5.80833 46.6736 5.28036 46.1542 5.01666C45.6348 4.75297 45.0096 4.79776 44.5343 5.13272L33.3559 13.0105ZM34.4794 16L43.8814 22.6259V9.37414L34.4794 16Z" fill="white" stroke="white" stroke-linecap="round" stroke-linejoin="round"/>
</svg>
