<svg width="55" height="55" viewBox="0 0 55 55" fill="none" xmlns="http://www.w3.org/2000/svg">
<path d="M29.4098 42.5549L42.555 29.4097L48.1887 35.0433L35.0435 48.1886L29.4098 42.5549Z" fill="white"/>
<path d="M11.1543 12.7993L17.2035 37.8603L31.2877 40.6772L40.6772 31.2877L37.8603 17.2035L12.7993 11.1543L25.6991 24.0541C25.742 24.097 25.7809 24.1425 25.8157 24.19C26.3301 23.9253 26.9136 23.7759 27.5319 23.7759C29.6061 23.7759 31.2877 25.4574 31.2877 27.5317C31.2877 29.6059 29.6061 31.2875 27.5319 31.2875C25.4576 31.2875 23.7761 29.6059 23.7761 27.5317C23.7761 26.9135 23.9255 26.3301 24.1901 25.8158C24.1425 25.781 24.0971 25.7421 24.0541 25.6991L11.1543 12.7993Z" fill="white"/>
<path d="M10 3H45V-3H10V3ZM52 10V45H58V10H52ZM45 52H10V58H45V52ZM3 45V10H-3V45H3ZM10 52C6.13401 52 3 48.866 3 45H-3C-3 52.1797 2.8203 58 10 58V52ZM52 45C52 48.866 48.866 52 45 52V58C52.1797 58 58 52.1797 58 45H52ZM45 3C48.866 3 52 6.13401 52 10H58C58 2.8203 52.1797 -3 45 -3V3ZM10 -3C2.8203 -3 -3 2.8203 -3 10H3C3 6.13401 6.13401 3 10 3V-3Z" fill="white"/>
</svg>
