<svg width="55" height="55" viewBox="0 0 55 55" fill="none" xmlns="http://www.w3.org/2000/svg">
<path fill-rule="evenodd" clip-rule="evenodd" d="M2.73618 1.23043C3.1938 0.949307 3.76525 0.923751 4.24642 1.16289L12.8657 5.44646L21.4849 1.16289C21.9067 0.953279 22.4014 0.945597 22.8296 1.14201L32.2105 5.4455L40.0627 1.18839C40.5436 0.927641 41.1272 0.938194 41.5983 1.21616C42.0694 1.49412 42.3582 1.99833 42.3582 2.54286H40.806C42.3582 2.54286 42.3582 2.54286 42.3582 2.54286V50.3714C42.3582 50.7915 42.4795 51.0183 42.6048 51.1676C42.7529 51.3444 42.9908 51.5069 43.3228 51.6389C43.6513 51.7696 44.0019 51.842 44.2854 51.8796C44.4231 51.8979 44.5353 51.9066 44.6084 51.9108C44.6447 51.9128 44.6706 51.9137 44.6844 51.9141L44.6908 51.9143L44.6888 51.9143L44.6948 51.9143C45.5483 51.9187 46.2388 52.6078 46.2388 53.4571C46.2388 54.3092 45.5438 55 44.6866 55H9.76119C5.47481 55 2 51.5462 2 47.2857V2.54286C2 2.00814 2.27855 1.51154 2.73618 1.23043ZM39.5129 51.9143C39.3454 51.4501 39.2537 50.935 39.2537 50.3714V5.14187L33.0119 8.5259C32.5809 8.7596 32.064 8.7768 31.6182 8.57228L22.206 4.25446L13.5599 8.5514C13.1229 8.76858 12.6085 8.76858 12.1715 8.5514L5.10448 5.03925V47.2857C5.10448 49.842 7.18936 51.9143 9.76119 51.9143H39.5129Z" fill="white"/>
<path d="M12.0896 15.8396C12.0896 15.3128 12.5293 14.8857 13.0718 14.8857H17.483C18.0255 14.8857 18.4653 15.3128 18.4653 15.8396C18.4653 16.3664 18.0255 16.7935 17.483 16.7935H13.0718C12.5293 16.7935 12.0896 16.3664 12.0896 15.8396Z" fill="white"/>
<path d="M12.0896 24.4066C12.0896 23.8798 12.5293 23.4527 13.0718 23.4527H30.7164C31.2589 23.4527 31.6987 23.8798 31.6987 24.4066C31.6987 24.9334 31.2589 25.3605 30.7164 25.3605H13.0718C12.5293 25.3605 12.0896 24.9334 12.0896 24.4066Z" fill="white"/>
<path fill-rule="evenodd" clip-rule="evenodd" d="M40.0299 31.8571H50.8955C52.6101 31.8571 54 33.2387 54 34.9429V48.8286C54 52.237 51.2202 55 47.791 55H46.2388C42.8097 55 40.0299 52.237 40.0299 48.8286V31.8571ZM43.1343 34.9429V48.8286C43.1343 50.5328 44.5243 51.9143 46.2388 51.9143H47.791C49.5056 51.9143 50.8955 50.5328 50.8955 48.8286V34.9429H43.1343Z" fill="white"/>
<path fill-rule="evenodd" clip-rule="evenodd" d="M17.9288 30.7097C18.4196 30.2553 19.0852 30 19.7792 30H23.2208C23.9148 30 24.5804 30.2553 25.0712 30.7097C25.5619 31.1641 25.8376 31.7805 25.8376 32.4231V33.1868H28.3831C29.8284 33.1868 31 34.2717 31 35.6099V43.5769C31 44.9151 29.8284 46 28.3831 46H14.6169C13.1716 46 12 44.9151 12 43.5769V35.6099C12 34.2717 13.1716 33.1868 14.6169 33.1868H17.1624V32.4231C17.1624 31.7805 17.4381 31.1641 17.9288 30.7097ZM17.1624 34.8463H14.6169C14.1614 34.8463 13.7922 35.1882 13.7922 35.6099V43.5769C13.7922 43.9986 14.1614 44.3405 14.6169 44.3405H17.1624V34.8463ZM18.9545 44.3405V34.8463H24.0455V44.3405H18.9545ZM25.8376 44.3405H28.3831C28.8386 44.3405 29.2078 43.9986 29.2078 43.5769V35.6099C29.2078 35.1882 28.8386 34.8463 28.3831 34.8463H25.8376V44.3405ZM24.0455 33.1868H18.9545V32.4231C18.9545 32.2206 19.0414 32.0264 19.1961 31.8831C19.3507 31.7399 19.5605 31.6595 19.7792 31.6595H23.2208C23.4395 31.6595 23.6493 31.7399 23.8039 31.8831C23.9586 32.0264 24.0455 32.2206 24.0455 32.4231V33.1868Z" fill="white"/>
</svg>
