<svg width="72" height="72" viewBox="0 0 72 72" fill="none" xmlns="http://www.w3.org/2000/svg">
<path fill-rule="evenodd" clip-rule="evenodd" d="M35.9998 9.2725C21.2387 9.2725 9.27251 21.2387 9.27251 35.9998C9.27251 50.7608 21.2387 62.7271 35.9998 62.7271C50.7608 62.7271 62.7271 50.7608 62.7271 35.9998C62.7271 21.2387 50.7608 9.2725 35.9998 9.2725ZM2.72705 35.9998C2.72705 17.6238 17.6238 2.72705 35.9998 2.72705C54.3758 2.72705 69.2725 17.6238 69.2725 35.9998C69.2725 54.3758 54.3758 69.2725 35.9998 69.2725C17.6238 69.2725 2.72705 54.3758 2.72705 35.9998Z" fill="white"/>
<path fill-rule="evenodd" clip-rule="evenodd" d="M2.72705 35.9998C2.72705 34.1923 4.1923 32.727 5.99978 32.727H65.9998C67.8073 32.727 69.2725 34.1923 69.2725 35.9998C69.2725 37.8073 67.8073 39.2725 65.9998 39.2725H5.99978C4.1923 39.2725 2.72705 37.8073 2.72705 35.9998Z" fill="white"/>
<path fill-rule="evenodd" clip-rule="evenodd" d="M27.2733 35.9998C27.4762 45.045 30.5499 53.7574 35.9998 60.9002C41.4496 53.7574 44.5234 45.045 44.7263 35.9998C44.5234 26.9546 41.4496 18.2422 35.9998 11.0993C30.5499 18.2422 27.4762 26.9546 27.2733 35.9998ZM35.9998 5.99978L33.5834 3.79258C25.5445 12.5934 20.976 24.0146 20.7278 35.9316C20.7268 35.9771 20.7268 36.0225 20.7278 36.0679C20.976 47.985 25.5445 59.4062 33.5834 68.207C34.2034 68.8858 35.0804 69.2725 35.9998 69.2725C36.9192 69.2725 37.7961 68.8858 38.4162 68.207C46.4551 59.4062 51.0235 47.985 51.2718 36.0679C51.2727 36.0225 51.2727 35.9771 51.2718 35.9316C51.0235 24.0146 46.4551 12.5934 38.4162 3.79258L35.9998 5.99978Z" fill="white"/>
<path fill-rule="evenodd" clip-rule="evenodd" d="M35.9998 9.2725C21.2387 9.2725 9.27251 21.2387 9.27251 35.9998C9.27251 50.7608 21.2387 62.7271 35.9998 62.7271C50.7608 62.7271 62.7271 50.7608 62.7271 35.9998C62.7271 21.2387 50.7608 9.2725 35.9998 9.2725ZM2.72705 35.9998C2.72705 17.6238 17.6238 2.72705 35.9998 2.72705C54.3758 2.72705 69.2725 17.6238 69.2725 35.9998C69.2725 54.3758 54.3758 69.2725 35.9998 69.2725C17.6238 69.2725 2.72705 54.3758 2.72705 35.9998Z" stroke="white" stroke-linecap="round" stroke-linejoin="round"/>
<path fill-rule="evenodd" clip-rule="evenodd" d="M2.72705 35.9998C2.72705 34.1923 4.1923 32.727 5.99978 32.727H65.9998C67.8073 32.727 69.2725 34.1923 69.2725 35.9998C69.2725 37.8073 67.8073 39.2725 65.9998 39.2725H5.99978C4.1923 39.2725 2.72705 37.8073 2.72705 35.9998Z" stroke="white" stroke-linecap="round" stroke-linejoin="round"/>
<path fill-rule="evenodd" clip-rule="evenodd" d="M27.2733 35.9998C27.4762 45.045 30.5499 53.7574 35.9998 60.9002C41.4496 53.7574 44.5234 45.045 44.7263 35.9998C44.5234 26.9546 41.4496 18.2422 35.9998 11.0993C30.5499 18.2422 27.4762 26.9546 27.2733 35.9998ZM35.9998 5.99978L33.5834 3.79258C25.5445 12.5934 20.976 24.0146 20.7278 35.9316C20.7268 35.9771 20.7268 36.0225 20.7278 36.0679C20.976 47.985 25.5445 59.4062 33.5834 68.207C34.2034 68.8858 35.0804 69.2725 35.9998 69.2725C36.9192 69.2725 37.7961 68.8858 38.4162 68.207C46.4551 59.4062 51.0235 47.985 51.2718 36.0679C51.2727 36.0225 51.2727 35.9771 51.2718 35.9316C51.0235 24.0146 46.4551 12.5934 38.4162 3.79258L35.9998 5.99978Z" stroke="white" stroke-linecap="round" stroke-linejoin="round"/>
</svg>
