<svg width="45" height="55" viewBox="0 0 45 55" fill="none" xmlns="http://www.w3.org/2000/svg">
<path fill-rule="evenodd" clip-rule="evenodd" d="M2.80509 2.80509C3.96087 1.64931 5.52844 1 7.16296 1H27.325C27.6227 1 27.9082 1.11826 28.1187 1.32876L43.2402 16.4503C43.4507 16.6608 43.569 16.9463 43.569 17.244V47.487C43.569 49.1216 42.9197 50.6891 41.7639 51.8449C40.6081 53.0007 39.0405 53.65 37.406 53.65H7.16296C5.52844 53.65 3.96087 53.0007 2.80509 51.8449C1.64931 50.6891 1 49.1216 1 47.487V7.16296C1 5.52844 1.64931 3.96087 2.80509 2.80509ZM7.16296 3.2449C6.12382 3.2449 5.12725 3.65769 4.39247 4.39247C3.65769 5.12725 3.2449 6.12382 3.2449 7.16296V47.487C3.2449 48.5262 3.65769 49.5227 4.39247 50.2575C5.12725 50.9923 6.12382 51.4051 7.16296 51.4051H37.406C38.4452 51.4051 39.4417 50.9923 40.1765 50.2575C40.9113 49.5227 41.3241 48.5262 41.3241 47.487V18.3664L27.325 18.3664C27.0273 18.3664 26.7418 18.2482 26.5313 18.0377C26.3208 17.8272 26.2025 17.5417 26.2025 17.244L26.2025 3.2449H7.16296ZM28.4474 4.83228L39.7367 16.1215L28.4474 16.1215L28.4474 4.83228ZM11.081 19.7642C11.081 19.1443 11.5836 18.6418 12.2035 18.6418H17.244C17.8639 18.6418 18.3664 19.1443 18.3664 19.7642C18.3664 20.3841 17.8639 20.8867 17.244 20.8867H12.2035C11.5836 20.8867 11.081 20.3841 11.081 19.7642ZM11.081 29.8453C11.081 29.2253 11.5836 28.7228 12.2035 28.7228H32.3655C32.9854 28.7228 33.488 29.2253 33.488 29.8453C33.488 30.4652 32.9854 30.9677 32.3655 30.9677H12.2035C11.5836 30.9677 11.081 30.4652 11.081 29.8453ZM11.081 39.9263C11.081 39.3064 11.5836 38.8038 12.2035 38.8038H32.3655C32.9854 38.8038 33.488 39.3064 33.488 39.9263C33.488 40.5462 32.9854 41.0487 32.3655 41.0487H12.2035C11.5836 41.0487 11.081 40.5462 11.081 39.9263Z" fill="white" stroke="white" stroke-linecap="round" stroke-linejoin="round"/>
</svg>
