<svg width="68" height="68" viewBox="0 0 68 68" fill="none" xmlns="http://www.w3.org/2000/svg">
<path fill-rule="evenodd" clip-rule="evenodd" d="M33.9998 7.2725C19.2387 7.2725 7.27251 19.2387 7.27251 33.9998C7.27251 48.7608 19.2387 60.7271 33.9998 60.7271C48.7608 60.7271 60.7271 48.7608 60.7271 33.9998C60.7271 19.2387 48.7608 7.2725 33.9998 7.2725ZM0.727051 33.9998C0.727051 15.6238 15.6238 0.727051 33.9998 0.727051C52.3758 0.727051 67.2725 15.6238 67.2725 33.9998C67.2725 52.3758 52.3758 67.2725 33.9998 67.2725C15.6238 67.2725 0.727051 52.3758 0.727051 33.9998Z" fill="white"/>
<path fill-rule="evenodd" clip-rule="evenodd" d="M0.727051 33.9998C0.727051 32.1923 2.1923 30.727 3.99978 30.727H63.9998C65.8073 30.727 67.2725 32.1923 67.2725 33.9998C67.2725 35.8073 65.8073 37.2725 63.9998 37.2725H3.99978C2.1923 37.2725 0.727051 35.8073 0.727051 33.9998Z" fill="white"/>
<path fill-rule="evenodd" clip-rule="evenodd" d="M25.2733 33.9998C25.4762 43.045 28.5499 51.7574 33.9998 58.9002C39.4496 51.7574 42.5234 43.045 42.7263 33.9998C42.5234 24.9546 39.4496 16.2422 33.9998 9.09935C28.5499 16.2422 25.4762 24.9546 25.2733 33.9998ZM33.9998 3.99978L31.5834 1.79258C23.5445 10.5934 18.976 22.0146 18.7278 33.9316C18.7268 33.9771 18.7268 34.0225 18.7278 34.0679C18.976 45.985 23.5445 57.4062 31.5834 66.207C32.2034 66.8858 33.0804 67.2725 33.9998 67.2725C34.9192 67.2725 35.7961 66.8858 36.4162 66.207C44.4551 57.4062 49.0235 45.985 49.2718 34.0679C49.2727 34.0225 49.2727 33.9771 49.2718 33.9316C49.0235 22.0146 44.4551 10.5934 36.4162 1.79258L33.9998 3.99978Z" fill="white"/>
<path fill-rule="evenodd" clip-rule="evenodd" d="M33.9998 7.2725C19.2387 7.2725 7.27251 19.2387 7.27251 33.9998C7.27251 48.7608 19.2387 60.7271 33.9998 60.7271C48.7608 60.7271 60.7271 48.7608 60.7271 33.9998C60.7271 19.2387 48.7608 7.2725 33.9998 7.2725ZM0.727051 33.9998C0.727051 15.6238 15.6238 0.727051 33.9998 0.727051C52.3758 0.727051 67.2725 15.6238 67.2725 33.9998C67.2725 52.3758 52.3758 67.2725 33.9998 67.2725C15.6238 67.2725 0.727051 52.3758 0.727051 33.9998Z" stroke="white" stroke-linecap="round" stroke-linejoin="round"/>
<path fill-rule="evenodd" clip-rule="evenodd" d="M0.727051 33.9998C0.727051 32.1923 2.1923 30.727 3.99978 30.727H63.9998C65.8073 30.727 67.2725 32.1923 67.2725 33.9998C67.2725 35.8073 65.8073 37.2725 63.9998 37.2725H3.99978C2.1923 37.2725 0.727051 35.8073 0.727051 33.9998Z" stroke="white" stroke-linecap="round" stroke-linejoin="round"/>
<path fill-rule="evenodd" clip-rule="evenodd" d="M25.2733 33.9998C25.4762 43.045 28.5499 51.7574 33.9998 58.9002C39.4496 51.7574 42.5234 43.045 42.7263 33.9998C42.5234 24.9546 39.4496 16.2422 33.9998 9.09935C28.5499 16.2422 25.4762 24.9546 25.2733 33.9998ZM33.9998 3.99978L31.5834 1.79258C23.5445 10.5934 18.976 22.0146 18.7278 33.9316C18.7268 33.9771 18.7268 34.0225 18.7278 34.0679C18.976 45.985 23.5445 57.4062 31.5834 66.207C32.2034 66.8858 33.0804 67.2725 33.9998 67.2725C34.9192 67.2725 35.7961 66.8858 36.4162 66.207C44.4551 57.4062 49.0235 45.985 49.2718 34.0679C49.2727 34.0225 49.2727 33.9771 49.2718 33.9316C49.0235 22.0146 44.4551 10.5934 36.4162 1.79258L33.9998 3.99978Z" stroke="white" stroke-linecap="round" stroke-linejoin="round"/>
</svg>
