<svg width="44" height="53" viewBox="0 0 44 53" fill="none" xmlns="http://www.w3.org/2000/svg">
<path fill-rule="evenodd" clip-rule="evenodd" d="M2.69034 1.97989C3.84612 0.824114 5.41369 0.174805 7.04821 0.174805H27.2103C27.5079 0.174805 27.7934 0.293062 28.0039 0.503562L43.1255 15.6251C43.336 15.8356 43.4542 16.1211 43.4542 16.4188V46.6618C43.4542 48.2964 42.8049 49.8639 41.6491 51.0197C40.4934 52.1755 38.9258 52.8248 37.2913 52.8248H7.04821C5.41369 52.8248 3.84612 52.1755 2.69034 51.0197C1.53456 49.8639 0.885254 48.2964 0.885254 46.6618V6.33776C0.885254 4.70325 1.53456 3.13567 2.69034 1.97989ZM7.04821 2.4197C6.00908 2.4197 5.0125 2.8325 4.27773 3.56728C3.54295 4.30205 3.13015 5.29863 3.13015 6.33776V46.6618C3.13015 47.701 3.54295 48.6975 4.27773 49.4323C5.0125 50.1671 6.00908 50.5799 7.04821 50.5799H37.2913C38.3304 50.5799 39.327 50.1671 40.0618 49.4323C40.7965 48.6975 41.2093 47.701 41.2093 46.6618V17.5412L27.2102 17.5412C26.9126 17.5412 26.6271 17.423 26.4166 17.2125C26.2061 17.002 26.0878 16.7165 26.0878 16.4188L26.0878 2.4197H7.04821ZM28.3327 4.00709L39.6219 15.2963L28.3327 15.2963L28.3327 4.00709ZM21.1449 24.0227C21.5833 23.5843 22.2939 23.5843 22.7323 24.0227L26.0996 27.39C26.4254 27.7157 26.5091 28.1919 26.3507 28.5949L32.822 29.8892C33.2506 29.9749 33.5904 30.3016 33.693 30.7264L37.6216 47.002C37.7133 47.3821 37.6006 47.7825 37.3241 48.059C37.0476 48.3355 36.6472 48.4482 36.2671 48.3564L19.9916 44.4279C19.5667 44.3253 19.24 43.9855 19.1543 43.5569L17.86 37.0856C17.457 37.2439 16.9809 37.1603 16.6551 36.8345L13.2878 33.4672C12.8494 33.0288 12.8494 32.3181 13.2878 31.8798L21.1449 24.0227ZM17.4488 34.4535L23.3898 28.5125C23.3899 28.5123 23.3897 28.5126 23.3898 28.5125L23.7186 28.1837L21.9386 26.4037L15.6688 32.6735L17.4488 34.4535ZM19.7897 35.2873L21.215 42.4138L32.9159 45.2382L27.8802 40.2025C27.4406 40.4128 26.9483 40.5306 26.4284 40.5306C24.5687 40.5306 23.061 39.023 23.061 37.1633C23.061 35.3036 24.5687 33.7959 26.4284 33.7959C28.2881 33.7959 29.7957 35.3036 29.7957 37.1633C29.7957 37.6831 29.6779 38.1755 29.4676 38.6151L34.5033 43.6508L31.6789 31.9499L24.5524 30.5246L19.7897 35.2873ZM27.2359 37.9429C27.4309 37.741 27.5508 37.4661 27.5508 37.1633C27.5508 36.5434 27.0483 36.0408 26.4284 36.0408C25.8085 36.0408 25.3059 36.5434 25.3059 37.1633C25.3059 37.7832 25.8085 38.2857 26.4284 38.2857C26.7313 38.2857 27.0061 38.1658 27.208 37.9708C27.2126 37.9661 27.2172 37.9614 27.2218 37.9567C27.2265 37.9521 27.2312 37.9475 27.2359 37.9429Z" fill="white"/>
</svg>
