<svg width="55" height="55" viewBox="0 0 55 55" fill="none" xmlns="http://www.w3.org/2000/svg">
<path fill-rule="evenodd" clip-rule="evenodd" d="M3.70786 2.22189C4.14789 1.95118 4.69735 1.92658 5.16002 2.15685L13.4478 6.28178L21.7355 2.15685C22.141 1.95501 22.6168 1.94761 23.0284 2.13675L32.0486 6.28085L39.5987 2.18141C40.0612 1.93032 40.6223 1.94048 41.0753 2.20815C41.5283 2.47582 41.806 2.96135 41.806 3.48572H40.3134C41.806 3.48572 41.806 3.48572 41.806 3.48572V49.5429C41.806 49.9474 41.9226 50.1657 42.0431 50.3096C42.1855 50.4798 42.4142 50.6363 42.7334 50.7634C43.0494 50.8892 43.3864 50.959 43.659 50.9952C43.7914 51.0128 43.8993 51.0212 43.9696 51.0252C44.0045 51.0272 44.0294 51.028 44.0427 51.0284L44.0488 51.0286L44.047 51.0286L44.0527 51.0286C44.8734 51.0328 45.5373 51.6964 45.5373 52.5143C45.5373 53.3348 44.8691 54 44.0448 54H10.4627C6.34116 54 3 50.6741 3 46.5714V3.48572C3 2.9708 3.26784 2.4926 3.70786 2.22189ZM39.0701 51.0286C38.909 50.5816 38.8209 50.0856 38.8209 49.5429V5.98846L32.8192 9.24716C32.4047 9.47221 31.9077 9.48877 31.479 9.29183L22.4289 5.13392L14.1152 9.27172C13.6951 9.48086 13.2005 9.48086 12.7803 9.27172L5.98507 5.88965V46.5714C5.98507 49.033 7.98977 51.0286 10.4627 51.0286H39.0701Z" fill="white"/>
<path fill-rule="evenodd" clip-rule="evenodd" d="M39.5672 31.7143H50.0149C51.6635 31.7143 53 33.0446 53 34.6857V48.0571C53 51.3393 50.3271 54 47.0299 54H45.5373C42.2401 54 39.5672 51.3393 39.5672 48.0571V31.7143ZM42.5522 34.6857V48.0571C42.5522 49.6982 43.8887 51.0286 45.5373 51.0286H47.0299C48.6785 51.0286 50.0149 49.6982 50.0149 48.0571V34.6857H42.5522Z" fill="white"/>
<path d="M13 19.0928C13 18.4893 13.3588 18 13.8015 18H17.4007C17.8434 18 18.2022 18.4893 18.2022 19.0928C18.2022 19.6963 17.8434 20.1855 17.4007 20.1855H13.8015C13.3588 20.1855 13 19.6963 13 19.0928Z" fill="white"/>
<path d="M13 28.9072C13 28.3037 13.3588 27.8145 13.8015 27.8145H28.1985C28.6412 27.8145 29 28.3037 29 28.9072C29 29.5107 28.6412 30 28.1985 30H13.8015C13.3588 30 13 29.5107 13 28.9072Z" fill="white"/>
<path d="M13 38.9072C13 38.3037 13.3588 37.8145 13.8015 37.8145H28.1985C28.6412 37.8145 29 38.3037 29 38.9072C29 39.5107 28.6412 40 28.1985 40H13.8015C13.3588 40 13 39.5107 13 38.9072Z" fill="white"/>
<path d="M41.806 3.48572C41.806 2.96135 41.5283 2.47582 41.0753 2.20815C40.6223 1.94048 40.0612 1.93032 39.5987 2.18141L32.0486 6.28085L23.0284 2.13675C22.6168 1.94761 22.141 1.95501 21.7355 2.15685L13.4478 6.28178L5.16002 2.15685C4.69735 1.92658 4.14789 1.95118 3.70786 2.22189C3.26784 2.4926 3 2.9708 3 3.48572V46.5714C3 50.6741 6.34116 54 10.4627 54H44.0448C44.8691 54 45.5373 53.3348 45.5373 52.5143C45.5373 51.6964 44.8734 51.0328 44.0527 51.0286L44.047 51.0286L44.0488 51.0286L44.0427 51.0284C44.0294 51.028 44.0045 51.0272 43.9696 51.0252C43.8993 51.0212 43.7914 51.0128 43.659 50.9952C43.3864 50.959 43.0494 50.8892 42.7334 50.7634C42.4142 50.6363 42.1855 50.4798 42.0431 50.3096C41.9226 50.1657 41.806 49.9474 41.806 49.5429V3.48572ZM41.806 3.48572H40.3134C41.806 3.48572 41.806 3.48572 41.806 3.48572ZM39.0701 51.0286C38.909 50.5816 38.8209 50.0856 38.8209 49.5429V5.98846L32.8192 9.24716C32.4047 9.47221 31.9077 9.48877 31.479 9.29183L22.4289 5.13392L14.1152 9.27172C13.6951 9.48086 13.2005 9.48086 12.7803 9.27172L5.98507 5.88965V46.5714C5.98507 49.033 7.98977 51.0286 10.4627 51.0286H39.0701ZM39.5672 31.7143H50.0149C51.6635 31.7143 53 33.0446 53 34.6857V48.0571C53 51.3393 50.3271 54 47.0299 54H45.5373C42.2401 54 39.5672 51.3393 39.5672 48.0571V31.7143ZM42.5522 34.6857V48.0571C42.5522 49.6982 43.8887 51.0286 45.5373 51.0286H47.0299C48.6785 51.0286 50.0149 49.6982 50.0149 48.0571V34.6857H42.5522ZM13 19.0928C13 18.4892 13.3588 18 13.8015 18H17.4007C17.8434 18 18.2022 18.4892 18.2022 19.0928C18.2022 19.6963 17.8434 20.1855 17.4007 20.1855H13.8015C13.3588 20.1855 13 19.6963 13 19.0928ZM13 28.9072C13 28.3037 13.3588 27.8145 13.8015 27.8145H28.1985C28.6412 27.8145 29 28.3037 29 28.9072C29 29.5107 28.6412 30 28.1985 30H13.8015C13.3588 30 13 29.5107 13 28.9072ZM13 38.9072C13 38.3037 13.3588 37.8145 13.8015 37.8145H28.1985C28.6412 37.8145 29 38.3037 29 38.9072C29 39.5107 28.6412 40 28.1985 40H13.8015C13.3588 40 13 39.5107 13 38.9072Z" stroke="white"/>
</svg>
