<svg width="55" height="55" viewBox="0 0 55 55" fill="none" xmlns="http://www.w3.org/2000/svg">
<path fill-rule="evenodd" clip-rule="evenodd" d="M12.75 9C12.0396 9 11.3461 9.28994 10.8257 9.82561C10.3033 10.3632 10 11.1044 10 11.8889V46.1111C10 46.8956 10.3033 47.6367 10.8257 48.1744C11.3461 48.7101 12.0396 49 12.75 49H41.25C41.9604 49 42.6539 48.7101 43.1743 48.1744C43.6967 47.6367 44 46.8956 44 46.1111V11.8889C44 11.1044 43.6967 10.3633 43.1743 9.82561C42.6539 9.28994 41.9604 9 41.25 9H37.5C36.3954 9 35.5 8.10457 35.5 7C35.5 5.89543 36.3954 5 37.5 5H41.25C43.0591 5 44.7821 5.74022 46.0432 7.03823C47.3024 8.33428 48 10.0801 48 11.8889V46.1111C48 47.9199 47.3024 49.6657 46.0432 50.9618C44.7821 52.2598 43.0591 53 41.25 53H12.75C10.9409 53 9.21794 52.2598 7.9568 50.9618C6.69757 49.6657 6 47.9199 6 46.1111V11.8889C6 10.0801 6.69757 8.33428 7.9568 7.03823C9.21794 5.74022 10.9409 5 12.75 5H17.5C18.6046 5 19.5 5.89543 19.5 7C19.5 8.10457 18.6046 9 17.5 9H12.75Z" fill="white"/>
<path fill-rule="evenodd" clip-rule="evenodd" d="M20.0711 5.11092C20.0107 5.16817 20 5.217 20 5.25V9.75C20 9.783 20.0107 9.83183 20.0711 9.88908C20.1334 9.94812 20.2364 10 20.375 10H34.625C34.7636 10 34.8666 9.94812 34.9289 9.88908C34.9893 9.83183 35 9.783 35 9.75V5.25C35 5.217 34.9893 5.16817 34.9289 5.11092C34.8666 5.05188 34.7636 5 34.625 5H20.375C20.2364 5 20.1334 5.05188 20.0711 5.11092ZM16 5.25C16 2.80228 18.062 1 20.375 1H34.625C36.938 1 39 2.80228 39 5.25V9.75C39 12.1977 36.938 14 34.625 14H20.375C18.062 14 16 12.1977 16 9.75V5.25Z" fill="white"/>
<path fill-rule="evenodd" clip-rule="evenodd" d="M22.0858 20.0858C22.4609 19.7107 22.9696 19.5 23.5 19.5H29C29.5523 19.5 30 19.9477 30 20.5C30 21.0523 29.5523 21.5 29 21.5H23.5V28.5H30.5V25C30.5 24.4477 30.9477 24 31.5 24C32.0523 24 32.5 24.4477 32.5 25V28.5C32.5 29.0304 32.2893 29.5391 31.9142 29.9142C31.5391 30.2893 31.0304 30.5 30.5 30.5H23.5C22.9696 30.5 22.4609 30.2893 22.0858 29.9142C21.7107 29.5391 21.5 29.0304 21.5 28.5V21.5C21.5 20.9696 21.7107 20.4609 22.0858 20.0858ZM32.7071 20.2929C33.0976 20.6834 33.0976 21.3166 32.7071 21.7071L27.7071 26.7071C27.3166 27.0976 26.6834 27.0976 26.2929 26.7071L24.7929 25.2071C24.4024 24.8166 24.4024 24.1834 24.7929 23.7929C25.1834 23.4024 25.8166 23.4024 26.2071 23.7929L27 24.5858L31.2929 20.2929C31.6834 19.9024 32.3166 19.9024 32.7071 20.2929ZM22.0858 34.5858C22.4609 34.2107 22.9696 34 23.5 34H29C29.5523 34 30 34.4477 30 35C30 35.5523 29.5523 36 29 36H23.5V43H30.5V39.5C30.5 38.9477 30.9477 38.5 31.5 38.5C32.0523 38.5 32.5 38.9477 32.5 39.5V43C32.5 43.5304 32.2893 44.0391 31.9142 44.4142C31.5391 44.7893 31.0304 45 30.5 45H23.5C22.9696 45 22.4609 44.7893 22.0858 44.4142C21.7107 44.0391 21.5 43.5304 21.5 43V36C21.5 35.4696 21.7107 34.9609 22.0858 34.5858ZM32.7071 34.7929C33.0976 35.1834 33.0976 35.8166 32.7071 36.2071L27.7071 41.2071C27.3166 41.5976 26.6834 41.5976 26.2929 41.2071L24.7929 39.7071C24.4024 39.3166 24.4024 38.6834 24.7929 38.2929C25.1834 37.9024 25.8166 37.9024 26.2071 38.2929L27 39.0858L31.2929 34.7929C31.6834 34.4024 32.3166 34.4024 32.7071 34.7929Z" fill="white"/>
</svg>
