<svg width="55" height="55" viewBox="0 0 55 55" fill="none" xmlns="http://www.w3.org/2000/svg">
<path fill-rule="evenodd" clip-rule="evenodd" d="M19.7906 4.88356C20.3055 6.06071 19.7686 7.43238 18.5915 7.94727C15.4048 9.34114 12.6068 11.4965 10.4423 14.2254C8.27773 16.9543 6.81273 20.1736 6.17582 23.602C5.5389 27.0303 5.74955 30.5629 6.78928 33.8906C7.829 37.2184 9.666 40.2396 12.1392 42.6905C14.6123 45.1413 17.6463 46.9471 20.9757 47.9505C24.305 48.9539 27.8288 49.1246 31.239 48.4476C34.6492 47.7705 37.8426 46.2664 40.5397 44.0662C43.2369 41.8659 45.3557 39.0364 46.7106 35.8248C47.21 34.641 48.5745 34.0862 49.7583 34.5856C50.9421 35.085 51.4969 36.4495 50.9975 37.6333C49.3478 41.5439 46.7672 44.9905 43.4808 47.6715C40.1945 50.3524 36.3025 52.1859 32.145 53.0113C27.9875 53.8366 23.6916 53.6286 19.633 52.4054C15.5745 51.1822 11.8771 48.9812 8.86412 45.9954C5.85112 43.0096 3.61413 39.3299 2.34822 35.2782C1.08232 31.2266 0.825906 26.9259 1.60131 22.7521C2.37672 18.5783 4.16044 14.658 6.79698 11.334C9.43354 8.00997 12.8428 5.38341 16.7269 3.68446C17.904 3.16956 19.2757 3.70642 19.7906 4.88356Z" fill="white"/>
<path fill-rule="evenodd" clip-rule="evenodd" d="M26.2716 1.84447C26.7078 1.40819 27.2996 1.16309 27.9166 1.16309C31.2933 1.16309 34.6341 1.8616 37.7471 3.21552C40.8598 4.56931 43.6805 6.55031 46.0512 9.0396C48.4218 11.5286 50.2965 14.4775 51.5737 17.715C52.8508 20.9524 53.5068 24.4186 53.5068 27.9166C53.5068 29.2014 52.4653 30.2429 51.1805 30.2429H27.9166C26.6317 30.2429 25.5902 29.2014 25.5902 27.9166V3.48948C25.5902 2.87248 25.8353 2.28075 26.2716 1.84447ZM30.2429 5.95275V25.5902H48.7377C48.5252 23.472 48.0234 21.3944 47.2455 19.4224C46.1844 16.7327 44.632 14.2959 42.682 12.2484C40.7322 10.2012 38.4237 8.58359 35.8914 7.48223C34.0806 6.69468 32.1791 6.18131 30.2429 5.95275Z" fill="white"/>
<path fill-rule="evenodd" clip-rule="evenodd" d="M19.7906 4.88356C20.3055 6.06071 19.7686 7.43238 18.5915 7.94727C15.4048 9.34114 12.6068 11.4965 10.4423 14.2254C8.27773 16.9543 6.81273 20.1736 6.17582 23.602C5.5389 27.0303 5.74955 30.5629 6.78928 33.8906C7.829 37.2184 9.666 40.2396 12.1392 42.6905C14.6123 45.1413 17.6463 46.9471 20.9757 47.9505C24.305 48.9539 27.8288 49.1246 31.239 48.4476C34.6492 47.7705 37.8426 46.2664 40.5397 44.0662C43.2369 41.8659 45.3557 39.0364 46.7106 35.8248C47.21 34.641 48.5745 34.0862 49.7583 34.5856C50.9421 35.085 51.4969 36.4495 50.9975 37.6333C49.3478 41.5439 46.7672 44.9905 43.4808 47.6715C40.1945 50.3524 36.3025 52.1859 32.145 53.0113C27.9875 53.8366 23.6916 53.6286 19.633 52.4054C15.5745 51.1822 11.8771 48.9812 8.86412 45.9954C5.85112 43.0096 3.61413 39.3299 2.34822 35.2782C1.08232 31.2266 0.825906 26.9259 1.60131 22.7521C2.37672 18.5783 4.16044 14.658 6.79698 11.334C9.43354 8.00997 12.8428 5.38341 16.7269 3.68446C17.904 3.16956 19.2757 3.70642 19.7906 4.88356Z" stroke="white" stroke-linecap="round" stroke-linejoin="round"/>
<path fill-rule="evenodd" clip-rule="evenodd" d="M26.2716 1.84447C26.7078 1.40819 27.2996 1.16309 27.9166 1.16309C31.2933 1.16309 34.6341 1.8616 37.7471 3.21552C40.8598 4.56931 43.6805 6.55031 46.0512 9.0396C48.4218 11.5286 50.2965 14.4775 51.5737 17.715C52.8508 20.9524 53.5068 24.4186 53.5068 27.9166C53.5068 29.2014 52.4653 30.2429 51.1805 30.2429H27.9166C26.6317 30.2429 25.5902 29.2014 25.5902 27.9166V3.48948C25.5902 2.87248 25.8353 2.28075 26.2716 1.84447ZM30.2429 5.95275V25.5902H48.7377C48.5252 23.472 48.0234 21.3944 47.2455 19.4224C46.1844 16.7327 44.632 14.2959 42.682 12.2484C40.7322 10.2012 38.4237 8.58359 35.8914 7.48223C34.0806 6.69468 32.1791 6.18131 30.2429 5.95275Z" stroke="white" stroke-linecap="round" stroke-linejoin="round"/>
</svg>
