<svg width="72" height="72" viewBox="0 0 72 72" fill="none" xmlns="http://www.w3.org/2000/svg">
<path fill-rule="evenodd" clip-rule="evenodd" d="M34.9902 14.3059C31.8955 14.2979 28.8426 15.0168 26.0803 16.4042L26.0702 16.4093C22.7537 18.0574 19.9641 20.5912 18.014 23.7267C16.0639 26.8622 15.0303 30.4756 15.0288 34.1623L15.0288 34.1682C15.0208 37.2454 15.7438 40.2809 17.1391 43.0276C17.4615 43.6623 17.5156 44.3988 17.2895 45.0733L13.9227 55.1165L24.023 51.7687C24.7014 51.5439 25.442 51.5977 26.0803 51.9183C28.8426 53.3057 31.8955 54.0246 34.9902 54.0166L34.9961 54.0166C38.7038 54.0152 42.3378 52.9874 45.4911 51.0483C48.6445 49.1092 51.1926 46.3355 52.8501 43.0378L52.8553 43.0276C54.2505 40.2809 54.9736 37.2454 54.9655 34.1682L54.9655 34.1613V32.9122C54.6793 28.0712 52.6165 23.5019 49.1668 20.0718C45.7171 16.6416 41.1218 14.5904 36.2533 14.3059H34.9972L34.9902 14.3059ZM61 32.6647C57.6475 9.00001 38.619 9.01179 38.3773 9.01063C38.1469 9.00952 37.8564 9.00812 37.5324 9.0067C37.2884 9.00563 37.0253 9.00455 36.7546 9.00358C36.4976 9.00266 36.2337 9.00184 35.9725 9.00121C35.636 9.00041 35.304 8.99994 34.9972 9.00001C34.7635 9.00006 34.5444 9.00043 34.3489 9.00121C33.9309 9.00289 33.6213 9.00644 33.5094 9.01282C30.0873 9.20761 26.7363 10.1001 23.667 11.6408C19.4619 13.7318 15.9249 16.9451 13.4519 20.9213C10.9785 24.8983 9.66719 29.4813 9.66482 34.1573C9.65597 37.6939 10.4058 41.1874 11.859 44.4059L7.1377 58.4898C6.81646 59.448 7.06729 60.5046 7.78562 61.2188C8.50395 61.9331 9.56647 62.1825 10.5302 61.8631L24.6942 57.1685C27.4828 58.4134 30.4765 59.1391 33.5265 59.3107C38.0367 59.5643 40.8849 59.5097 45.4911 57.9997C58.9885 52.8426 60.3295 38.6651 61 34.1682" fill="white"/>
<path d="M34.3489 9.00121C33.9309 9.00289 33.6213 9.00644 33.5094 9.01282C30.0873 9.20761 26.7363 10.1001 23.667 11.6408C19.4619 13.7318 15.9249 16.9451 13.4519 20.9213C10.9785 24.8983 9.66719 29.4813 9.66482 34.1573C9.65597 37.6939 10.4058 41.1874 11.859 44.4059L7.1377 58.4898C6.81646 59.448 7.06729 60.5046 7.78562 61.2188C8.50395 61.9331 9.56647 62.1825 10.5302 61.8631L24.6942 57.1685C27.4828 58.4134 30.4765 59.1391 33.5265 59.3107C38.0367 59.5643 40.8849 59.5097 45.4911 57.9997C58.9885 52.8426 60.3295 38.6651 61 34.1682V32.6647C57.6475 9.00001 38.619 9.01179 38.3773 9.01063M34.3489 9.00121C34.5444 9.00043 34.7635 9.00006 34.9972 9.00001M34.3489 9.00121L34.9972 9.00001M34.9972 9.00001C35.304 8.99994 35.636 9.00041 35.9725 9.00121M35.9725 9.00121C36.2337 9.00184 36.4976 9.00266 36.7546 9.00358M35.9725 9.00121L36.7546 9.00358M36.7546 9.00358C37.0253 9.00455 37.2884 9.00563 37.5324 9.0067M37.5324 9.0067C37.8564 9.00812 38.1469 9.00952 38.3773 9.01063M37.5324 9.0067L38.3773 9.01063M26.0803 16.4042C28.8426 15.0168 31.8955 14.2979 34.9902 14.3059L34.9972 14.3059H36.2533C41.1218 14.5904 45.7171 16.6416 49.1668 20.0718C52.6165 23.5019 54.6793 28.0712 54.9655 32.9122V34.1613L54.9655 34.1682C54.9736 37.2454 54.2505 40.2809 52.8553 43.0276L52.8501 43.0378C51.1926 46.3355 48.6445 49.1092 45.4911 51.0483C42.3378 52.9874 38.7038 54.0152 34.9961 54.0166L34.9902 54.0166C31.8955 54.0246 28.8426 53.3057 26.0803 51.9183C25.442 51.5977 24.7014 51.5439 24.023 51.7687L13.9227 55.1165L17.2895 45.0733C17.5156 44.3988 17.4615 43.6623 17.1391 43.0276C15.7438 40.2809 15.0208 37.2454 15.0288 34.1682L15.0288 34.1623C15.0303 30.4756 16.0639 26.8622 18.014 23.7267C19.9641 20.5912 22.7537 18.0574 26.0702 16.4093L26.0803 16.4042Z" stroke="white" stroke-linecap="round" stroke-linejoin="round"/>
</svg>
