<svg width="52" height="55" viewBox="0 0 52 55" fill="none" xmlns="http://www.w3.org/2000/svg">
<path fill-rule="evenodd" clip-rule="evenodd" d="M15.5451 0C16.4749 0 17.2287 0.753806 17.2287 1.68367V5.14456H34.4396V1.68367C34.4396 0.753806 35.1934 0 36.1233 0C37.0532 0 37.807 0.753806 37.807 1.68367V5.14456H43.8401C47.6113 5.14456 50.6684 8.20166 50.6684 11.9728V47.9847C50.6684 51.7558 47.6113 54.8129 43.8401 54.8129H7.82823C4.05711 54.8129 1 51.7558 1 47.9847V11.9728C1 8.20166 4.0571 5.14456 7.82823 5.14456H13.8614V1.68367C13.8614 0.753806 14.6152 0 15.5451 0ZM13.8614 8.51191H7.82823C5.91684 8.51191 4.36735 10.0614 4.36735 11.9728V20.5782H47.301V11.9728C47.301 10.0614 45.7515 8.51191 43.8401 8.51191H37.807V11.9728C37.807 12.9027 37.0532 13.6565 36.1233 13.6565C35.1934 13.6565 34.4396 12.9027 34.4396 11.9728V8.51191H17.2287V11.9728C17.2287 12.9027 16.4749 13.6565 15.5451 13.6565C14.6152 13.6565 13.8614 12.9027 13.8614 11.9728V8.51191ZM47.301 23.9456H4.36735V47.9847C4.36735 49.8961 5.91684 51.4456 7.82823 51.4456H43.8401C45.7515 51.4456 47.301 49.8961 47.301 47.9847V23.9456Z" fill="white" stroke="white" stroke-linecap="round" stroke-linejoin="round"/>
</svg>
