<svg width="55" height="55" viewBox="0 0 55 55" fill="none" xmlns="http://www.w3.org/2000/svg">
<path fill-rule="evenodd" clip-rule="evenodd" d="M17.5451 0C18.4749 0 19.2287 0.753806 19.2287 1.68367V5.14456H36.4396V1.68367C36.4396 0.753806 37.1934 0 38.1233 0C39.0532 0 39.807 0.753806 39.807 1.68367V5.14456H45.8401C49.6113 5.14456 52.6684 8.20166 52.6684 11.9728V47.9847C52.6684 51.7558 49.6113 54.8129 45.8401 54.8129H9.82823C6.05711 54.8129 3 51.7558 3 47.9847V11.9728C3 8.20166 6.0571 5.14456 9.82823 5.14456H15.8614V1.68367C15.8614 0.753806 16.6152 0 17.5451 0ZM15.8614 8.5119H9.82823C7.91684 8.5119 6.36735 10.0614 6.36735 11.9728V20.5782H49.301V11.9728C49.301 10.0614 47.7515 8.5119 45.8401 8.5119H39.807V11.9728C39.807 12.9027 39.0532 13.6565 38.1233 13.6565C37.1934 13.6565 36.4396 12.9027 36.4396 11.9728V8.5119H19.2287V11.9728C19.2287 12.9027 18.4749 13.6565 17.5451 13.6565C16.6152 13.6565 15.8614 12.9027 15.8614 11.9728V8.5119ZM49.301 23.9456H6.36735V47.9847C6.36735 49.8961 7.91684 51.4456 9.82823 51.4456H45.8401C47.7515 51.4456 49.301 49.8961 49.301 47.9847V23.9456Z" fill="white"/>
<path fill-rule="evenodd" clip-rule="evenodd" d="M23.5877 27.8986C24.2025 27.2838 25.0362 26.9385 25.9056 26.9385H30.2166C31.086 26.9385 31.9197 27.2838 32.5345 27.8986C33.1492 28.5133 33.4945 29.3471 33.4945 30.2164V31.2495H36.6831C38.4935 31.2495 39.961 32.7171 39.961 34.5274V45.3049C39.961 47.1153 38.4935 48.5829 36.6831 48.5829H19.4391C17.6287 48.5829 16.1611 47.1153 16.1611 45.3049V34.5274C16.1611 32.7171 17.6287 31.2495 19.4391 31.2495H22.6276V30.2164C22.6276 29.3471 22.973 28.5133 23.5877 27.8986ZM22.6276 33.4944H19.4391C18.8685 33.4944 18.406 33.9569 18.406 34.5274V45.3049C18.406 45.8755 18.8685 46.338 19.4391 46.338H22.6276V33.4944ZM24.8725 46.338V33.4944H31.2496V46.338H24.8725ZM33.4945 46.338H36.6831C37.2536 46.338 37.7161 45.8755 37.7161 45.3049V34.5274C37.7161 33.9569 37.2536 33.4944 36.6831 33.4944H33.4945V46.338ZM31.2496 31.2495H24.8725V30.2164C24.8725 29.9424 24.9814 29.6797 25.1751 29.4859C25.3688 29.2922 25.6316 29.1834 25.9056 29.1834H30.2166C30.4906 29.1834 30.7533 29.2922 30.9471 29.4859C31.1408 29.6797 31.2496 29.9424 31.2496 30.2164V31.2495Z" fill="white"/>
</svg>
