<svg width="46" height="70" viewBox="0 0 46 70" fill="none" xmlns="http://www.w3.org/2000/svg">
<path fill-rule="evenodd" clip-rule="evenodd" d="M23.0002 7.50932C14.428 7.50932 7.29106 14.7301 7.29106 23.873C7.29106 33.0158 14.428 40.2366 23.0002 40.2366C31.5723 40.2366 38.7092 33.0158 38.7092 23.873C38.7092 14.7301 31.5723 7.50932 23.0002 7.50932ZM0.745605 23.873C0.745605 11.3261 10.6056 0.963867 23.0002 0.963867C35.3947 0.963867 45.2547 11.3261 45.2547 23.873C45.2547 36.4198 35.3947 46.782 23.0002 46.782C10.6056 46.782 0.745605 36.4198 0.745605 23.873Z" fill="white"/>
<path fill-rule="evenodd" clip-rule="evenodd" d="M32.9854 37.6473C34.7769 37.4077 36.4235 38.6658 36.6631 40.4573L39.9895 65.33C40.1558 66.5741 39.596 67.8038 38.5485 68.4952C37.5009 69.1867 36.1502 69.2181 35.0717 68.5761L23.0002 61.3907L10.9286 68.5761C9.85001 69.2181 8.49919 69.1867 7.45162 68.4951C6.40406 67.8035 5.84434 66.5737 6.01091 65.3296L9.33731 40.4841C9.57716 38.6926 11.2239 37.4348 13.0154 37.6746C14.8069 37.9145 16.0647 39.5612 15.8249 41.3527L13.3966 59.4898L21.3262 54.7698C22.3577 54.1558 23.6426 54.1558 24.6741 54.7698L32.6048 59.4904L30.1754 41.325C29.9358 39.5334 31.1939 37.8869 32.9854 37.6473Z" fill="white"/>
<path fill-rule="evenodd" clip-rule="evenodd" d="M23.0002 7.50932C14.428 7.50932 7.29106 14.7301 7.29106 23.873C7.29106 33.0158 14.428 40.2366 23.0002 40.2366C31.5723 40.2366 38.7092 33.0158 38.7092 23.873C38.7092 14.7301 31.5723 7.50932 23.0002 7.50932ZM0.745605 23.873C0.745605 11.3261 10.6056 0.963867 23.0002 0.963867C35.3947 0.963867 45.2547 11.3261 45.2547 23.873C45.2547 36.4198 35.3947 46.782 23.0002 46.782C10.6056 46.782 0.745605 36.4198 0.745605 23.873Z" stroke="white" stroke-linecap="round" stroke-linejoin="round"/>
<path fill-rule="evenodd" clip-rule="evenodd" d="M32.9854 37.6473C34.7769 37.4077 36.4235 38.6658 36.6631 40.4573L39.9895 65.33C40.1558 66.5741 39.596 67.8038 38.5485 68.4952C37.5009 69.1867 36.1502 69.2181 35.0717 68.5761L23.0002 61.3907L10.9286 68.5761C9.85001 69.2181 8.49919 69.1867 7.45162 68.4951C6.40406 67.8035 5.84434 66.5737 6.01091 65.3296L9.33731 40.4841C9.57716 38.6926 11.2239 37.4348 13.0154 37.6746C14.8069 37.9145 16.0647 39.5612 15.8249 41.3527L13.3966 59.4898L21.3262 54.7698C22.3577 54.1558 23.6426 54.1558 24.6741 54.7698L32.6048 59.4904L30.1754 41.325C29.9358 39.5334 31.1939 37.8869 32.9854 37.6473Z" stroke="white" stroke-linecap="round" stroke-linejoin="round"/>
</svg>
