<svg width="55" height="55" viewBox="0 0 55 55" fill="none" xmlns="http://www.w3.org/2000/svg">
<path d="M45.9086 1.16309H8.76137C4.57166 1.16309 1.16309 4.57166 1.16309 8.76137V45.9086C1.16309 50.0983 4.57166 53.5068 8.76137 53.5068H45.9086C50.0983 53.5068 53.5068 50.0983 53.5068 45.9086V8.76137C53.5068 4.57166 50.0983 1.16309 45.9086 1.16309ZM51.8183 45.9086C51.8183 49.1672 49.1672 51.8183 45.9086 51.8183H8.76137C5.50276 51.8183 2.85159 49.1672 2.85159 45.9086V8.76137C2.85159 5.50276 5.50276 2.85159 8.76137 2.85159H45.9086C49.1672 2.85159 51.8183 5.50276 51.8183 8.76137V45.9086Z" fill="white"/>
<path d="M49.2856 26.4907H28.1792V5.38435C28.1792 4.91811 27.8012 4.5401 27.335 4.5401C26.8687 4.5401 26.4907 4.91811 26.4907 5.38435V26.4907H5.38435C4.91811 26.4907 4.5401 26.8687 4.5401 27.335C4.5401 27.8012 4.91811 28.1792 5.38435 28.1792H26.4907V49.2856C26.4907 49.7518 26.8687 50.1298 27.335 50.1298C27.8012 50.1298 28.1792 49.7518 28.1792 49.2856V28.1792H49.2856C49.7518 28.1792 50.1298 27.8012 50.1298 27.335C50.1298 26.8687 49.7518 26.4907 49.2856 26.4907Z" fill="white"/>
<path d="M7.91711 15.5154H13.8269V21.4252C13.8269 21.8914 14.2049 22.2694 14.6711 22.2694C15.1374 22.2694 15.5154 21.8914 15.5154 21.4252V15.5154H21.4252C21.8914 15.5154 22.2694 15.1374 22.2694 14.6711C22.2694 14.2049 21.8914 13.8269 21.4252 13.8269H15.5154V7.91711C15.5154 7.45087 15.1374 7.07286 14.6711 7.07286C14.2049 7.07286 13.8269 7.45087 13.8269 7.91711V13.8269H7.91711C7.45087 13.8269 7.07286 14.2049 7.07286 14.6711C7.07286 15.1374 7.45087 15.5154 7.91711 15.5154Z" fill="white"/>
<path d="M33.2447 15.5154H46.7528C47.2191 15.5154 47.5971 15.1374 47.5971 14.6712C47.5971 14.2049 47.2191 13.8269 46.7528 13.8269H33.2447C32.7785 13.8269 32.4005 14.2049 32.4005 14.6712C32.4005 15.1374 32.7785 15.5154 33.2447 15.5154Z" fill="white"/>
<path d="M46.7528 39.1545H33.2447C32.7785 39.1545 32.4005 39.5325 32.4005 39.9988C32.4005 40.465 32.7785 40.843 33.2447 40.843H46.7528C47.2191 40.843 47.5971 40.465 47.5971 39.9988C47.5971 39.5325 47.2191 39.1545 46.7528 39.1545Z" fill="white"/>
<path d="M20.3336 34.3363C20.004 34.0066 19.4694 34.0066 19.1398 34.3363L14.6711 38.8049L10.2026 34.3364C9.87291 34.0067 9.3384 34.0067 9.00871 34.3364C8.67893 34.6661 8.67893 35.2006 9.00871 35.5303L13.4772 39.9988L9.00871 44.4673C8.67893 44.797 8.67893 45.3315 9.00871 45.6612C9.17345 45.8262 9.38958 45.9086 9.6056 45.9086C9.82163 45.9086 10.0378 45.8262 10.2026 45.6613L14.6711 41.1927L19.1397 45.6612C19.3045 45.8261 19.5205 45.9085 19.7367 45.9085C19.9528 45.9085 20.1688 45.8261 20.3336 45.6612C20.6634 45.3315 20.6634 44.797 20.3336 44.4673L15.865 39.9988L20.3335 35.5303C20.6633 35.2006 20.6633 34.666 20.3336 34.3363Z" fill="white"/>
<path d="M42.5315 33.5911C42.5315 32.1945 41.3954 31.0583 39.9988 31.0583C38.6021 31.0583 37.466 32.1945 37.466 33.5911C37.466 34.9877 38.6021 36.1239 39.9988 36.1239C41.3954 36.1239 42.5315 34.9877 42.5315 33.5911ZM39.1545 33.5911C39.1545 33.1256 39.5333 32.7469 39.9988 32.7469C40.4643 32.7469 40.843 33.1256 40.843 33.5911C40.843 34.0566 40.4643 34.4354 39.9988 34.4354C39.5333 34.4354 39.1545 34.0566 39.1545 33.5911Z" fill="white"/>
<path d="M39.9988 43.8737C38.6021 43.8737 37.466 45.0098 37.466 46.4065C37.466 47.8031 38.6021 48.9392 39.9988 48.9392C41.3954 48.9392 42.5315 47.8031 42.5315 46.4065C42.5315 45.0098 41.3954 43.8737 39.9988 43.8737ZM39.9988 47.2507C39.5333 47.2507 39.1545 46.872 39.1545 46.4065C39.1545 45.941 39.5333 45.5622 39.9988 45.5622C40.4643 45.5622 40.843 45.941 40.843 46.4065C40.843 46.872 40.4643 47.2507 39.9988 47.2507Z" fill="white"/>
<path d="M45.9086 1.16309H8.76137C4.57166 1.16309 1.16309 4.57166 1.16309 8.76137V45.9086C1.16309 50.0983 4.57166 53.5068 8.76137 53.5068H45.9086C50.0983 53.5068 53.5068 50.0983 53.5068 45.9086V8.76137C53.5068 4.57166 50.0983 1.16309 45.9086 1.16309ZM51.8183 45.9086C51.8183 49.1672 49.1672 51.8183 45.9086 51.8183H8.76137C5.50276 51.8183 2.85159 49.1672 2.85159 45.9086V8.76137C2.85159 5.50276 5.50276 2.85159 8.76137 2.85159H45.9086C49.1672 2.85159 51.8183 5.50276 51.8183 8.76137V45.9086Z" stroke="white"/>
<path d="M49.2856 26.4907H28.1792V5.38435C28.1792 4.91811 27.8012 4.5401 27.335 4.5401C26.8687 4.5401 26.4907 4.91811 26.4907 5.38435V26.4907H5.38435C4.91811 26.4907 4.5401 26.8687 4.5401 27.335C4.5401 27.8012 4.91811 28.1792 5.38435 28.1792H26.4907V49.2856C26.4907 49.7518 26.8687 50.1298 27.335 50.1298C27.8012 50.1298 28.1792 49.7518 28.1792 49.2856V28.1792H49.2856C49.7518 28.1792 50.1298 27.8012 50.1298 27.335C50.1298 26.8687 49.7518 26.4907 49.2856 26.4907Z" stroke="white"/>
<path d="M7.91711 15.5154H13.8269V21.4252C13.8269 21.8914 14.2049 22.2694 14.6711 22.2694C15.1374 22.2694 15.5154 21.8914 15.5154 21.4252V15.5154H21.4252C21.8914 15.5154 22.2694 15.1374 22.2694 14.6711C22.2694 14.2049 21.8914 13.8269 21.4252 13.8269H15.5154V7.91711C15.5154 7.45087 15.1374 7.07286 14.6711 7.07286C14.2049 7.07286 13.8269 7.45087 13.8269 7.91711V13.8269H7.91711C7.45087 13.8269 7.07286 14.2049 7.07286 14.6711C7.07286 15.1374 7.45087 15.5154 7.91711 15.5154Z" stroke="white"/>
<path d="M33.2447 15.5154H46.7528C47.2191 15.5154 47.5971 15.1374 47.5971 14.6712C47.5971 14.2049 47.2191 13.8269 46.7528 13.8269H33.2447C32.7785 13.8269 32.4005 14.2049 32.4005 14.6712C32.4005 15.1374 32.7785 15.5154 33.2447 15.5154Z" stroke="white"/>
<path d="M46.7528 39.1545H33.2447C32.7785 39.1545 32.4005 39.5325 32.4005 39.9988C32.4005 40.465 32.7785 40.843 33.2447 40.843H46.7528C47.2191 40.843 47.5971 40.465 47.5971 39.9988C47.5971 39.5325 47.2191 39.1545 46.7528 39.1545Z" stroke="white"/>
<path d="M20.3336 34.3363C20.004 34.0066 19.4694 34.0066 19.1398 34.3363L14.6711 38.8049L10.2026 34.3364C9.87291 34.0067 9.3384 34.0067 9.00871 34.3364C8.67893 34.6661 8.67893 35.2006 9.00871 35.5303L13.4772 39.9988L9.00871 44.4673C8.67893 44.797 8.67893 45.3315 9.00871 45.6612C9.17345 45.8262 9.38958 45.9086 9.6056 45.9086C9.82163 45.9086 10.0378 45.8262 10.2026 45.6613L14.6711 41.1927L19.1397 45.6612C19.3045 45.8261 19.5205 45.9085 19.7367 45.9085C19.9528 45.9085 20.1688 45.8261 20.3336 45.6612C20.6634 45.3315 20.6634 44.797 20.3336 44.4673L15.865 39.9988L20.3335 35.5303C20.6633 35.2006 20.6633 34.666 20.3336 34.3363Z" stroke="white"/>
<path d="M42.5315 33.5911C42.5315 32.1945 41.3954 31.0583 39.9988 31.0583C38.6021 31.0583 37.466 32.1945 37.466 33.5911C37.466 34.9877 38.6021 36.1239 39.9988 36.1239C41.3954 36.1239 42.5315 34.9877 42.5315 33.5911ZM39.1545 33.5911C39.1545 33.1256 39.5333 32.7469 39.9988 32.7469C40.4643 32.7469 40.843 33.1256 40.843 33.5911C40.843 34.0566 40.4643 34.4354 39.9988 34.4354C39.5333 34.4354 39.1545 34.0566 39.1545 33.5911Z" stroke="white"/>
<path d="M39.9988 43.8737C38.6021 43.8737 37.466 45.0098 37.466 46.4065C37.466 47.8031 38.6021 48.9392 39.9988 48.9392C41.3954 48.9392 42.5315 47.8031 42.5315 46.4065C42.5315 45.0098 41.3954 43.8737 39.9988 43.8737ZM39.9988 47.2507C39.5333 47.2507 39.1545 46.872 39.1545 46.4065C39.1545 45.941 39.5333 45.5622 39.9988 45.5622C40.4643 45.5622 40.843 45.941 40.843 46.4065C40.843 46.872 40.4643 47.2507 39.9988 47.2507Z" stroke="white"/>
</svg>
