<svg width="55" height="55" viewBox="0 0 55 55" fill="none" xmlns="http://www.w3.org/2000/svg">
<g clip-path="url(#clip0_147_652)">
<path fill-rule="evenodd" clip-rule="evenodd" d="M10 28.5C11.1046 28.5 12 29.3954 12 30.5V46.25C12 47.3546 11.1046 48.25 10 48.25C8.89543 48.25 8 47.3546 8 46.25V30.5C8 29.3954 8.89543 28.5 10 28.5Z" fill="white"/>
<path fill-rule="evenodd" clip-rule="evenodd" d="M10 3.75C11.1046 3.75 12 4.64543 12 5.75V21.5C12 22.6046 11.1046 23.5 10 23.5C8.89543 23.5 8 22.6046 8 21.5V5.75C8 4.64543 8.89543 3.75 10 3.75Z" fill="white"/>
<path fill-rule="evenodd" clip-rule="evenodd" d="M28 24C29.1046 24 30 24.8954 30 26V46.25C30 47.3546 29.1046 48.25 28 48.25C26.8954 48.25 26 47.3546 26 46.25V26C26 24.8954 26.8954 24 28 24Z" fill="white"/>
<path fill-rule="evenodd" clip-rule="evenodd" d="M28 3.75C29.1046 3.75 30 4.64543 30 5.75V17C30 18.1046 29.1046 19 28 19C26.8954 19 26 18.1046 26 17V5.75C26 4.64543 26.8954 3.75 28 3.75Z" fill="white"/>
<path fill-rule="evenodd" clip-rule="evenodd" d="M46 33C47.1046 33 48 33.8954 48 35V46.25C48 47.3546 47.1046 48.25 46 48.25C44.8954 48.25 44 47.3546 44 46.25V35C44 33.8954 44.8954 33 46 33Z" fill="white"/>
<path fill-rule="evenodd" clip-rule="evenodd" d="M46 3.75C47.1046 3.75 48 4.64543 48 5.75V26C48 27.1046 47.1046 28 46 28C44.8954 28 44 27.1046 44 26V5.75C44 4.64543 44.8954 3.75 46 3.75Z" fill="white"/>
<path fill-rule="evenodd" clip-rule="evenodd" d="M1.25 30.5C1.25 29.3954 2.14543 28.5 3.25 28.5H16.75C17.8546 28.5 18.75 29.3954 18.75 30.5C18.75 31.6046 17.8546 32.5 16.75 32.5H3.25C2.14543 32.5 1.25 31.6046 1.25 30.5Z" fill="white"/>
<path fill-rule="evenodd" clip-rule="evenodd" d="M19.25 17C19.25 15.8954 20.1454 15 21.25 15H34.75C35.8546 15 36.75 15.8954 36.75 17C36.75 18.1046 35.8546 19 34.75 19H21.25C20.1454 19 19.25 18.1046 19.25 17Z" fill="white"/>
<path fill-rule="evenodd" clip-rule="evenodd" d="M37.25 35C37.25 33.8954 38.1454 33 39.25 33H52.75C53.8546 33 54.75 33.8954 54.75 35C54.75 36.1046 53.8546 37 52.75 37H39.25C38.1454 37 37.25 36.1046 37.25 35Z" fill="white"/>
<path fill-rule="evenodd" clip-rule="evenodd" d="M10 28.5C11.1046 28.5 12 29.3954 12 30.5V46.25C12 47.3546 11.1046 48.25 10 48.25C8.89543 48.25 8 47.3546 8 46.25V30.5C8 29.3954 8.89543 28.5 10 28.5Z" stroke="white" stroke-linecap="round" stroke-linejoin="round"/>
<path fill-rule="evenodd" clip-rule="evenodd" d="M10 3.75C11.1046 3.75 12 4.64543 12 5.75V21.5C12 22.6046 11.1046 23.5 10 23.5C8.89543 23.5 8 22.6046 8 21.5V5.75C8 4.64543 8.89543 3.75 10 3.75Z" stroke="white" stroke-linecap="round" stroke-linejoin="round"/>
<path fill-rule="evenodd" clip-rule="evenodd" d="M28 24C29.1046 24 30 24.8954 30 26V46.25C30 47.3546 29.1046 48.25 28 48.25C26.8954 48.25 26 47.3546 26 46.25V26C26 24.8954 26.8954 24 28 24Z" stroke="white" stroke-linecap="round" stroke-linejoin="round"/>
<path fill-rule="evenodd" clip-rule="evenodd" d="M28 3.75C29.1046 3.75 30 4.64543 30 5.75V17C30 18.1046 29.1046 19 28 19C26.8954 19 26 18.1046 26 17V5.75C26 4.64543 26.8954 3.75 28 3.75Z" stroke="white" stroke-linecap="round" stroke-linejoin="round"/>
<path fill-rule="evenodd" clip-rule="evenodd" d="M46 33C47.1046 33 48 33.8954 48 35V46.25C48 47.3546 47.1046 48.25 46 48.25C44.8954 48.25 44 47.3546 44 46.25V35C44 33.8954 44.8954 33 46 33Z" stroke="white" stroke-linecap="round" stroke-linejoin="round"/>
<path fill-rule="evenodd" clip-rule="evenodd" d="M46 3.75C47.1046 3.75 48 4.64543 48 5.75V26C48 27.1046 47.1046 28 46 28C44.8954 28 44 27.1046 44 26V5.75C44 4.64543 44.8954 3.75 46 3.75Z" stroke="white" stroke-linecap="round" stroke-linejoin="round"/>
<path fill-rule="evenodd" clip-rule="evenodd" d="M1.25 30.5C1.25 29.3954 2.14543 28.5 3.25 28.5H16.75C17.8546 28.5 18.75 29.3954 18.75 30.5C18.75 31.6046 17.8546 32.5 16.75 32.5H3.25C2.14543 32.5 1.25 31.6046 1.25 30.5Z" stroke="white" stroke-linecap="round" stroke-linejoin="round"/>
<path fill-rule="evenodd" clip-rule="evenodd" d="M19.25 17C19.25 15.8954 20.1454 15 21.25 15H34.75C35.8546 15 36.75 15.8954 36.75 17C36.75 18.1046 35.8546 19 34.75 19H21.25C20.1454 19 19.25 18.1046 19.25 17Z" stroke="white" stroke-linecap="round" stroke-linejoin="round"/>
<path fill-rule="evenodd" clip-rule="evenodd" d="M37.25 35C37.25 33.8954 38.1454 33 39.25 33H52.75C53.8546 33 54.75 33.8954 54.75 35C54.75 36.1046 53.8546 37 52.75 37H39.25C38.1454 37 37.25 36.1046 37.25 35Z" stroke="white" stroke-linecap="round" stroke-linejoin="round"/>
</g>
<defs>
<clipPath id="clip0_147_652">
<rect width="55" height="55" fill="white"/>
</clipPath>
</defs>
</svg>
