<svg width="53" height="48" viewBox="0 0 53 48" fill="none" xmlns="http://www.w3.org/2000/svg">
<path fill-rule="evenodd" clip-rule="evenodd" d="M17.3969 2.74358C18.5162 1.62718 20.0342 1 21.617 1H31.383C32.9658 1 34.4838 1.62718 35.6031 2.74358C36.7223 3.85997 37.3511 5.37412 37.3511 6.95294V10.7412H46.0319C49.328 10.7412 52 13.4064 52 16.6941V41.0471C52 44.3348 49.328 47 46.0319 47H6.96809C3.672 47 1 44.3348 1 41.0471V16.6941C1 13.4064 3.672 10.7412 6.96809 10.7412H15.6489V6.95294C15.6489 5.37412 16.2777 3.85997 17.3969 2.74358ZM15.6489 12.9059H6.96809C4.87058 12.9059 3.17021 14.6019 3.17021 16.6941V41.0471C3.17021 43.1392 4.87058 44.8353 6.96809 44.8353H15.6489V12.9059ZM17.8192 44.8353V12.9059H35.1809V44.8353H17.8192ZM37.3511 44.8353H46.0319C48.1294 44.8353 49.8298 43.1392 49.8298 41.0471V16.6941C49.8298 14.6019 48.1294 12.9059 46.0319 12.9059H37.3511V44.8353ZM35.1809 10.7412H17.8192V6.95294C17.8192 5.94824 18.2193 4.98469 18.9315 4.27425C19.6438 3.56382 20.6098 3.16471 21.617 3.16471H31.383C32.3902 3.16471 33.3562 3.56382 34.0685 4.27425C34.7807 4.98469 35.1809 5.94824 35.1809 6.95294V10.7412Z" fill="white"/>
<path fill-rule="evenodd" clip-rule="evenodd" d="M17.0438 2.38957C18.2569 1.17955 19.902 0.5 21.617 0.5H31.383C33.098 0.5 34.7431 1.17955 35.9562 2.38957C37.1693 3.59964 37.8511 5.2411 37.8511 6.95294V10.2412H46.0319C49.6029 10.2412 52.5 13.1291 52.5 16.6941V41.0471C52.5 44.6121 49.6029 47.5 46.0319 47.5H6.96809C3.39706 47.5 0.5 44.6121 0.5 41.0471V16.6941C0.5 13.1291 3.39706 10.2412 6.96809 10.2412H15.1489V6.95294C15.1489 5.2411 15.8307 3.59964 17.0438 2.38957ZM21.617 1.5C20.1664 1.5 18.7754 2.07481 17.7501 3.09758C16.7247 4.1203 16.1489 5.50714 16.1489 6.95294V10.7412C16.1489 11.0173 15.9251 11.2412 15.6489 11.2412H6.96809C3.94695 11.2412 1.5 13.6837 1.5 16.6941V41.0471C1.5 44.0574 3.94695 46.5 6.96809 46.5H46.0319C49.0531 46.5 51.5 44.0574 51.5 41.0471V16.6941C51.5 13.6837 49.0531 11.2412 46.0319 11.2412H37.3511C37.0749 11.2412 36.8511 11.0173 36.8511 10.7412V6.95294C36.8511 5.50714 36.2753 4.1203 35.25 3.09758C34.2246 2.07481 32.8336 1.5 31.383 1.5H21.617ZM21.617 3.66471C20.742 3.66471 19.903 4.01145 19.2846 4.62826C18.6663 5.24502 18.3192 6.08126 18.3192 6.95294V10.2412H34.6809V6.95294C34.6809 6.08126 34.3337 5.24502 33.7154 4.62826C33.097 4.01145 32.258 3.66471 31.383 3.66471H21.617ZM18.5784 3.92025C19.3845 3.11619 20.4776 2.66471 21.617 2.66471H31.383C32.5224 2.66471 33.6155 3.11619 34.4216 3.92025C35.2277 4.72435 35.6809 5.81522 35.6809 6.95294V10.7412C35.6809 11.0173 35.457 11.2412 35.1809 11.2412H17.8192C17.543 11.2412 17.3192 11.0173 17.3192 10.7412V6.95294C17.3192 5.81522 17.7723 4.72435 18.5784 3.92025ZM6.96809 13.4059C5.14552 13.4059 3.67021 14.8793 3.67021 16.6941V41.0471C3.67021 42.8619 5.14552 44.3353 6.96809 44.3353H15.1489V13.4059H6.96809ZM2.67021 16.6941C2.67021 14.3246 4.59563 12.4059 6.96809 12.4059H15.6489C15.9251 12.4059 16.1489 12.6297 16.1489 12.9059V44.8353C16.1489 45.1114 15.9251 45.3353 15.6489 45.3353H6.96809C4.59563 45.3353 2.67021 43.4166 2.67021 41.0471V16.6941ZM17.3192 12.9059C17.3192 12.6297 17.543 12.4059 17.8192 12.4059H35.1809C35.457 12.4059 35.6809 12.6297 35.6809 12.9059V44.8353C35.6809 45.1114 35.457 45.3353 35.1809 45.3353H17.8192C17.543 45.3353 17.3192 45.1114 17.3192 44.8353V12.9059ZM18.3192 13.4059V44.3353H34.6809V13.4059H18.3192ZM36.8511 12.9059C36.8511 12.6297 37.0749 12.4059 37.3511 12.4059H46.0319C48.4044 12.4059 50.3298 14.3246 50.3298 16.6941V41.0471C50.3298 43.4166 48.4044 45.3353 46.0319 45.3353H37.3511C37.0749 45.3353 36.8511 45.1114 36.8511 44.8353V12.9059ZM37.8511 13.4059V44.3353H46.0319C47.8545 44.3353 49.3298 42.8619 49.3298 41.0471V16.6941C49.3298 14.8793 47.8545 13.4059 46.0319 13.4059H37.8511Z" fill="white"/>
<path fill-rule="evenodd" clip-rule="evenodd" d="M17.3969 2.74358C18.5162 1.62718 20.0342 1 21.617 1H31.383C32.9658 1 34.4838 1.62718 35.6031 2.74358C36.7223 3.85997 37.3511 5.37412 37.3511 6.95294V10.7412H46.0319C49.328 10.7412 52 13.4064 52 16.6941V41.0471C52 44.3348 49.328 47 46.0319 47H6.96809C3.672 47 1 44.3348 1 41.0471V16.6941C1 13.4064 3.672 10.7412 6.96809 10.7412H15.6489V6.95294C15.6489 5.37412 16.2777 3.85997 17.3969 2.74358ZM15.6489 12.9059H6.96809C4.87058 12.9059 3.17021 14.6019 3.17021 16.6941V41.0471C3.17021 43.1392 4.87058 44.8353 6.96809 44.8353H15.6489V12.9059ZM17.8192 44.8353V12.9059H35.1809V44.8353H17.8192ZM37.3511 44.8353H46.0319C48.1294 44.8353 49.8298 43.1392 49.8298 41.0471V16.6941C49.8298 14.6019 48.1294 12.9059 46.0319 12.9059H37.3511V44.8353ZM35.1809 10.7412H17.8192V6.95294C17.8192 5.94824 18.2193 4.98469 18.9315 4.27425C19.6438 3.56382 20.6098 3.16471 21.617 3.16471H31.383C32.3902 3.16471 33.3562 3.56382 34.0685 4.27425C34.7807 4.98469 35.1809 5.94824 35.1809 6.95294V10.7412Z" stroke="white" stroke-linecap="round" stroke-linejoin="round"/>
<path fill-rule="evenodd" clip-rule="evenodd" d="M17.0438 2.38957C18.2569 1.17955 19.902 0.5 21.617 0.5H31.383C33.098 0.5 34.7431 1.17955 35.9562 2.38957C37.1693 3.59964 37.8511 5.2411 37.8511 6.95294V10.2412H46.0319C49.6029 10.2412 52.5 13.1291 52.5 16.6941V41.0471C52.5 44.6121 49.6029 47.5 46.0319 47.5H6.96809C3.39706 47.5 0.5 44.6121 0.5 41.0471V16.6941C0.5 13.1291 3.39706 10.2412 6.96809 10.2412H15.1489V6.95294C15.1489 5.2411 15.8307 3.59964 17.0438 2.38957ZM21.617 1.5C20.1664 1.5 18.7754 2.07481 17.7501 3.09758C16.7247 4.1203 16.1489 5.50714 16.1489 6.95294V10.7412C16.1489 11.0173 15.9251 11.2412 15.6489 11.2412H6.96809C3.94695 11.2412 1.5 13.6837 1.5 16.6941V41.0471C1.5 44.0574 3.94695 46.5 6.96809 46.5H46.0319C49.0531 46.5 51.5 44.0574 51.5 41.0471V16.6941C51.5 13.6837 49.0531 11.2412 46.0319 11.2412H37.3511C37.0749 11.2412 36.8511 11.0173 36.8511 10.7412V6.95294C36.8511 5.50714 36.2753 4.1203 35.25 3.09758C34.2246 2.07481 32.8336 1.5 31.383 1.5H21.617ZM21.617 3.66471C20.742 3.66471 19.903 4.01145 19.2846 4.62826C18.6663 5.24502 18.3192 6.08126 18.3192 6.95294V10.2412H34.6809V6.95294C34.6809 6.08126 34.3337 5.24502 33.7154 4.62826C33.097 4.01145 32.258 3.66471 31.383 3.66471H21.617ZM18.5784 3.92025C19.3845 3.11619 20.4776 2.66471 21.617 2.66471H31.383C32.5224 2.66471 33.6155 3.11619 34.4216 3.92025C35.2277 4.72435 35.6809 5.81522 35.6809 6.95294V10.7412C35.6809 11.0173 35.457 11.2412 35.1809 11.2412H17.8192C17.543 11.2412 17.3192 11.0173 17.3192 10.7412V6.95294C17.3192 5.81522 17.7723 4.72435 18.5784 3.92025ZM6.96809 13.4059C5.14552 13.4059 3.67021 14.8793 3.67021 16.6941V41.0471C3.67021 42.8619 5.14552 44.3353 6.96809 44.3353H15.1489V13.4059H6.96809ZM2.67021 16.6941C2.67021 14.3246 4.59563 12.4059 6.96809 12.4059H15.6489C15.9251 12.4059 16.1489 12.6297 16.1489 12.9059V44.8353C16.1489 45.1114 15.9251 45.3353 15.6489 45.3353H6.96809C4.59563 45.3353 2.67021 43.4166 2.67021 41.0471V16.6941ZM17.3192 12.9059C17.3192 12.6297 17.543 12.4059 17.8192 12.4059H35.1809C35.457 12.4059 35.6809 12.6297 35.6809 12.9059V44.8353C35.6809 45.1114 35.457 45.3353 35.1809 45.3353H17.8192C17.543 45.3353 17.3192 45.1114 17.3192 44.8353V12.9059ZM18.3192 13.4059V44.3353H34.6809V13.4059H18.3192ZM36.8511 12.9059C36.8511 12.6297 37.0749 12.4059 37.3511 12.4059H46.0319C48.4044 12.4059 50.3298 14.3246 50.3298 16.6941V41.0471C50.3298 43.4166 48.4044 45.3353 46.0319 45.3353H37.3511C37.0749 45.3353 36.8511 45.1114 36.8511 44.8353V12.9059ZM37.8511 13.4059V44.3353H46.0319C47.8545 44.3353 49.3298 42.8619 49.3298 41.0471V16.6941C49.3298 14.8793 47.8545 13.4059 46.0319 13.4059H37.8511Z" stroke="white" stroke-linecap="round" stroke-linejoin="round"/>
</svg>
