<svg width="37" height="51" viewBox="0 0 37 51" fill="none" xmlns="http://www.w3.org/2000/svg">
<path fill-rule="evenodd" clip-rule="evenodd" d="M18.5718 3.29688C16.4853 3.29688 14.7938 5.01078 14.7938 7.125C14.7938 9.23922 16.4853 10.9531 18.5718 10.9531C20.6583 10.9531 22.3497 9.23922 22.3497 7.125C22.3497 5.01078 20.6583 3.29688 18.5718 3.29688ZM12.6299 5.9939C13.1537 3.15151 15.6148 1 18.5718 1C21.5296 1 23.9912 3.15261 24.514 5.99609C24.5818 5.98327 24.6517 5.97656 24.7232 5.97656H34.8666C35.4926 5.97656 36 6.49074 36 7.125C36 7.75926 35.4926 8.27344 34.8666 8.27344H24.7232C24.6517 8.27344 24.5818 8.26674 24.514 8.25392C23.9912 11.0974 21.5296 13.25 18.5718 13.25C15.6148 13.25 13.1537 11.0985 12.6299 8.2561C12.5659 8.26749 12.4999 8.27344 12.4326 8.27344L3.26676 8.27343L3.26676 23.2031H12.4326C12.4999 23.2031 12.5659 23.2091 12.6299 23.2205C13.1537 20.3781 15.6148 18.2266 18.5718 18.2266C21.5296 18.2266 23.9912 20.3792 24.514 23.2226C24.5818 23.2098 24.6517 23.2031 24.7232 23.2031H34.8666C35.4926 23.2031 36 23.7173 36 24.3516C36 24.9858 35.4926 25.5 34.8666 25.5H24.7232C24.6517 25.5 24.5818 25.4933 24.514 25.4805C23.9912 28.324 21.5296 30.4766 18.5718 30.4766C15.6148 30.4766 13.1537 28.3251 12.6299 25.4827C12.5659 25.4941 12.4999 25.5 12.4326 25.5H3.26676L3.26676 42.7266H12.4326C12.4999 42.7266 12.5659 42.7325 12.6299 42.7439C13.1537 39.9015 15.6148 37.75 18.5718 37.75C21.5296 37.75 23.9912 39.9026 24.514 42.7461C24.5818 42.7333 24.6517 42.7266 24.7232 42.7266H34.8666C35.4926 42.7266 36 43.2407 36 43.875C36 44.5093 35.4926 45.0234 34.8666 45.0234H24.7232C24.6517 45.0234 24.5818 45.0167 24.514 45.0039C23.9912 47.8474 21.5296 50 18.5718 50C15.6148 50 13.1537 47.8485 12.6299 45.0061C12.5659 45.0175 12.4999 45.0234 12.4326 45.0234H2.28922C2.26303 45.0234 2.23705 45.0225 2.2113 45.0208C2.18555 45.0225 2.15957 45.0234 2.13338 45.0234C1.50743 45.0234 1 44.5093 1 43.875L1 8.27343C1 8.00584 1.09032 7.75963 1.24175 7.56439C1.18639 7.42904 1.15584 7.28063 1.15584 7.125C1.15584 6.49074 1.66327 5.97656 2.28922 5.97656H12.4326C12.4999 5.97656 12.5659 5.98251 12.6299 5.9939ZM18.5718 20.5234C16.4853 20.5234 14.7938 22.2373 14.7938 24.3516C14.7938 26.4658 16.4853 28.1797 18.5718 28.1797C20.6583 28.1797 22.3497 26.4658 22.3497 24.3516C22.3497 22.2373 20.6583 20.5234 18.5718 20.5234ZM18.5718 40.0469C16.4853 40.0469 14.7938 41.7608 14.7938 43.875C14.7938 45.9892 16.4853 47.7031 18.5718 47.7031C20.6583 47.7031 22.3497 45.9892 22.3497 43.875C22.3497 41.7608 20.6583 40.0469 18.5718 40.0469Z" fill="white" stroke="white" stroke-linecap="round" stroke-linejoin="round"/>
</svg>
