<svg width="55" height="55" viewBox="0 0 55 55" fill="none" xmlns="http://www.w3.org/2000/svg">
<path fill-rule="evenodd" clip-rule="evenodd" d="M12.8674 33.9794C14.7943 32.0525 17.4077 30.97 20.1328 30.97H36.0298C38.7549 30.97 41.3683 32.0525 43.2952 33.9794C45.2221 35.9064 46.3047 38.5198 46.3047 41.2449V45.2191C46.3047 46.504 45.2631 47.5455 43.9783 47.5455C42.6935 47.5455 41.6519 46.504 41.6519 45.2191V41.2449C41.6519 39.7538 41.0596 38.3238 40.0052 37.2695C38.9509 36.2151 37.5209 35.6228 36.0298 35.6228H20.1328C18.6417 35.6228 17.2117 36.2151 16.1574 37.2695C15.103 38.3238 14.5107 39.7538 14.5107 41.2449V45.2191C14.5107 46.504 13.4691 47.5455 12.1843 47.5455C10.8995 47.5455 9.85791 46.504 9.85791 45.2191V41.2449C9.85791 38.5198 10.9404 35.9064 12.8674 33.9794Z" fill="white"/>
<path fill-rule="evenodd" clip-rule="evenodd" d="M28.0813 11.7773C24.9763 11.7773 22.4592 14.2944 22.4592 17.3994C22.4592 20.5044 24.9763 23.0215 28.0813 23.0215C31.1863 23.0215 33.7034 20.5044 33.7034 17.3994C33.7034 14.2944 31.1863 11.7773 28.0813 11.7773ZM17.8064 17.3994C17.8064 11.7247 22.4066 7.12451 28.0813 7.12451C33.756 7.12451 38.3562 11.7247 38.3562 17.3994C38.3562 23.0741 33.756 27.6743 28.0813 27.6743C22.4066 27.6743 17.8064 23.0741 17.8064 17.3994Z" fill="white"/>
<path d="M8 3H47V-3H8V3ZM52 8V47H58V8H52ZM47 52H8V58H47V52ZM3 47V8H-3V47H3ZM8 52C5.23858 52 3 49.7614 3 47H-3C-3 53.0751 1.92487 58 8 58V52ZM52 47C52 49.7614 49.7614 52 47 52V58C53.0751 58 58 53.0751 58 47H52ZM47 3C49.7614 3 52 5.23858 52 8H58C58 1.92487 53.0751 -3 47 -3V3ZM8 -3C1.92487 -3 -3 1.92487 -3 8H3C3 5.23858 5.23858 3 8 3V-3Z" fill="white"/>
</svg>
