<svg xmlns="http://www.w3.org/2000/svg" width="48" height="45.001" viewBox="0 0 48 48"><title>X-Ray</title><g id="X-Ray"><path fill="white" d="M45,0H3A3,3,0,0,0,0,3V45a3,3,0,0,0,3,3H45a3,3,0,0,0,3-3V3A3,3,0,0,0,45,0Zm1,45c0,1.45,2.16,1-43,1C1.55,46,2,48.16,2,3,2,1.55-.16,2,45,2,46.45,2,46-.16,46,45Z"/><path fill="white" d="M43,4C2.38,4,4,3.56,4,5c0,32-.43,31,1,31,40.62,0,39,.44,39-1C44,3,44.43,4,43,4ZM19.59,33.24a1,1,0,0,1,1-1.24c7.63,0,8.29-.53,7.66,2H19.78ZM42,34c-13,0-11.75.12-11.65-.27A3,3,0,0,0,27.44,30H25V26c3.56,0,4-.16,4,.5a.5.5,0,0,1-.5.5H28a1,1,0,0,0,0,2c4.17,0,3.67-5,.5-5H25V21h7.5a.5.5,0,0,1,0,1H32a1,1,0,0,0,0,2c4.17,0,3.67-5,.5-5H25V15h7.5a.5.5,0,0,1,0,1H32a1,1,0,0,0,0,2c4.17,0,3.67-5,.5-5H25V9a1,1,0,0,0-2,0v4H15.5c-3.16,0-3.67,5,.5,5a1,1,0,0,0,0-2h-.5a.5.5,0,0,1,0-1H23v4H15.5c-3.31,0-3.3,5,0,5H16a1,1,0,0,0,0-2h-.5a.5.5,0,0,1,0-1H23v3H19.5c-3.16,0-3.67,5,.5,5a1,1,0,0,0,0-2h-.5a.5.5,0,0,1,0-1H23v4H20.56a3,3,0,0,0-2.91,3.73C17.75,34.12,19,34,6,34V6H42Z"/><path fill="white" d="M20,11a1,1,0,0,0,0-2A1,1,0,0,0,20,11Z"/><path fill="white" d="M28,11a1,1,0,0,0,0-2A1,1,0,0,0,28,11Z"/><path fill="white" d="M24,38c-4,0-4,6,0,6S28,38,24,38Zm0,4a1,1,0,0,1,0-2A1,1,0,0,1,24,42Z"/><path fill="white" d="M15,38H7c-4,0-4,6,0,6h8C19,44,19,38,15,38Zm0,4H7a1,1,0,0,1,0-2h8A1,1,0,0,1,15,42Z"/><path fill="white" d="M41,38H33c-4,0-4,6,0,6h8C45,44,45,38,41,38Zm0,4H33a1,1,0,0,1,0-2h8A1,1,0,0,1,41,42Z"/></g></svg>