<svg xmlns="http://www.w3.org/2000/svg" width="48" height="45.001" viewBox="0 0 32 32"><g id="transaction"><path fill="white" d="M25,13H9l1.8-2.4A1,1,0,1,0,9.2,9.4l-3,4A1,1,0,0,0,7,15H25a1,1,0,0,0,0-2Z"/><path fill="white" d="M21.4,22.8a1,1,0,0,0,.6.2,1,1,0,0,0,.8-.4l3-4A1,1,0,0,0,25,17H7a1,1,0,0,0,0,2H23l-1.8,2.4A1,1,0,0,0,21.4,22.8Z"/><path fill="white" d="M26.19,3H24a1,1,0,0,0,0,2h2.19A1.81,1.81,0,0,1,28,6.81V25.19A1.81,1.81,0,0,1,26.19,27H5.81A1.81,1.81,0,0,1,4,25.19V6.81A1.81,1.81,0,0,1,5.81,5H20a1,1,0,0,0,0-2H5.81A3.82,3.82,0,0,0,2,6.81V25.19A3.82,3.82,0,0,0,5.81,29H26.19A3.82,3.82,0,0,0,30,25.19V6.81A3.82,3.82,0,0,0,26.19,3Z"/></g></svg>