<svg id="Layer_3" data-name="Layer 3" xmlns="http://www.w3.org/2000/svg" width="48" height="45.001" viewBox="0 0 128 128"><path fill="white" d="M84.356,15.307H43.644A1.794,1.794,0,0,0,41.85,17.1v25H12.722A1.794,1.794,0,0,0,10.928,43.9v67a1.793,1.793,0,0,0,1.794,1.794H115.278a1.793,1.793,0,0,0,1.794-1.794v-67a1.794,1.794,0,0,0-1.794-1.794H86.15v-25A1.794,1.794,0,0,0,84.356,15.307Zm29.127,66.954H86.15V72.536h27.333ZM86.15,85.85h27.333v9.724H86.15Zm27.333-16.9H86.15V59.222h27.333ZM82.562,18.9V86.167H45.438v-2.1l0-.009,0-.009v-13.3l0-.009,0-.009v-13.3l0-.009,0-.009V43.908l0-.009,0-.009V18.9ZM14.516,72.536H41.85v9.726H14.516ZM41.85,68.948H14.516V59.222H41.85ZM14.516,85.85H41.85v9.724H14.516ZM41.85,45.693v9.941H14.516V45.693ZM14.516,99.162H41.85V109.1H14.516Zm30.922-1.785,0-.009,0-.009v-7.6H62.207V109.1H45.438ZM65.8,109.1V89.755H82.562V109.1Zm20.355,0V99.162h27.333V109.1Zm27.333-63.412v9.941H86.15V45.693Z"/><path fill="white" d="M56.4,40.151h5.808v5.81a1.794,1.794,0,0,0,3.588,0V40.153H71.6a1.794,1.794,0,0,0,0-3.588H65.8v-5.8a1.794,1.794,0,0,0-3.588,0v5.8H56.4a1.794,1.794,0,1,0,0,3.588Z"/></svg>