<?xml version="1.0" encoding="UTF-8"?>
<!DOCTYPE svg PUBLIC "-//W3C//DTD SVG 1.1//EN" "http://www.w3.org/Graphics/SVG/1.1/DTD/svg11.dtd">
<!-- Creator: CorelDRAW -->
<svg xmlns="http://www.w3.org/2000/svg" xml:space="preserve" width="48" height="45.001" style="shape-rendering:geometricPrecision; text-rendering:geometricPrecision; image-rendering:optimizeQuality; fill-rule:evenodd; clip-rule:evenodd"
viewBox="0 0 6.82666 6.82666"
 xmlns:xlink="http://www.w3.org/1999/xlink">
 <g id="Layer_x0020_1">
  <metadata id="CorelCorpID_0Corel-Layer"/>
  <g id="_554246608">
   <path id="_554246824" fill="white" d="M4.76373 2.79226c0.0517441,0.0126024 0.101728,0.0289961 0.149646,0.0488543 0.0485984,0.0201417 0.0955827,0.0441024 0.14061,0.0715276l0.169783 -0.16978 -7.87402e-006 -7.87402e-006c0.0399173,-0.0399213 0.104646,-0.0399213 0.144567,0l0.000562992 0.00057874 0.204988 0.204988 7.87402e-006 -7.87402e-006c0.0399213,0.0399213 0.0399213,0.10465 0,0.144567l-0.00057874 0.000566929 -0.169209 0.169201c0.0274213,0.0450118 0.0513701,0.0919843 0.0715118,0.140575 0.0198583,0.0479252 0.0362559,0.0979291 0.0488661,0.149689l0.239965 0c0.0564528,0 0.102224,0.0457717 0.102224,0.102224l0 0.290709c0,0.0564528 -0.0457717,0.102224 -0.102224,0.102224l-0.239961 0c-0.0126024,0.051748 -0.0289961,0.101732 -0.0488543,0.149646 -0.0201417,0.0486024 -0.0441024,0.0955866 -0.0715315,0.14061l0.169783 0.169783c0.00104724,-0.00104331 0.038626,0.105941 7.87402e-006,0.144559l-0.205567 0.205555 7.87402e-006 7.87402e-006c-0.0399213,0.0399173 -0.10465,0.0399173 -0.144567,0l-0.000566929 -0.000582677 -0.169201 -0.169205c-0.0450118,0.0274173 -0.0919843,0.0513701 -0.140575,0.0715079 -0.0479252,0.0198622 -0.0979291,0.0362598 -0.149689,0.0488661l0 0.239965c0,0.0564567 -0.0457717,0.102224 -0.102224,0.102224l-0.290709 0c-0.0564567,0 -0.102224,-0.0457677 -0.102224,-0.102224l0 -0.239961c-0.051748,-0.0125984 -0.101732,-0.0289921 -0.149646,-0.0488543 -0.0486024,-0.0201417 -0.0955866,-0.0441024 -0.140614,-0.0715276l-0.16978 0.169783 3.93701e-006 7.87402e-006c-0.0399173,0.0399173 -0.104646,0.0399173 -0.144563,0l-0.205555 -0.205571 -7.87402e-006 7.87402e-006c-0.0399173,-0.0399173 -0.0399173,-0.104646 0,-0.144563l0.169787 -0.169772c-0.0274173,-0.0450118 -0.0513701,-0.0919843 -0.0715079,-0.140571 -0.0198622,-0.0479291 -0.0362598,-0.0979331 -0.0488701,-0.149693l-0.239961 0c-0.0564567,0 -0.102224,-0.0457717 -0.102224,-0.102224l0 -0.290709c0,-0.0564528 0.0457677,-0.102224 0.102224,-0.102224l0.239961 0c0.0125984,-0.0517441 0.0289921,-0.101728 0.0488543,-0.149646 0.0201417,-0.0485984 0.0441024,-0.0955827 0.0715276,-0.14061l-0.169783 -0.169783 -7.87402e-006 7.87402e-006c-0.0399173,-0.0399173 -0.0399173,-0.104646 0,-0.144567l0.205571 -0.205551c-0.00104724,-0.00104724 0.105941,-0.038626 0.144555,-7.87402e-006l0.169772 0.169787c0.0450079,-0.0274213 0.0919843,-0.0513701 0.140571,-0.0715118 0.0479291,-0.0198583 0.0979331,-0.0362559 0.149693,-0.0488661l0 -0.239965c0,-0.0564567 0.0457677,-0.102224 0.102224,-0.102224l0.290709 0c0.0564528,0 0.102224,0.0457677 0.102224,0.102224l0 0.239961zm0.071378 0.237331c-0.0578622,-0.0239843 -0.118449,-0.0416063 -0.180862,-0.0520039 -0.0530669,-0.00372441 -0.0949685,-0.0479488 -0.0949685,-0.101965l0 -0.221098 -0.0862559 0 0 0.220209c0.000496063,0.0499252 -0.035685,0.0939724 -0.0864724,0.101894l-0.000177165 -0.000377953c-0.0653661,0.0101929 -0.128787,0.0283071 -0.189224,0.0533583 -0.0591929,0.0245315 -0.114413,0.0551772 -0.164787,0.0910669 -0.0401496,0.0352874 -0.101358,0.0337756 -0.139693,-0.00455906l7.87402e-006 -7.87402e-006 -0.156417 -0.156421 -0.0610118 0.0610118 0.155236 0.155236c0.0361417,0.0348898 0.041937,0.0919803 0.0114882,0.133709l-0.000377953 -0.000275591c-0.0382047,0.052378 -0.0706969,0.110134 -0.0964449,0.172268 -0.0239843,0.0578622 -0.0416024,0.118449 -0.052,0.180862 -0.00372441,0.0530669 -0.0479528,0.0949646 -0.101965,0.0949646l-0.221098 0 0 0.0862598 0.220209 0c0.0499213,-0.000496063 0.0939724,0.035685 0.10189,0.0864724l-0.101 0.015752 0.100626 -0.0155748c0.0101929,0.0653661 0.0283071,0.128783 0.0533543,0.189224 0.0245276,0.059189 0.0551772,0.114413 0.0910709,0.164787 0.0352874,0.0401496 0.0337756,0.101358 -0.00455906,0.139693l-7.87402e-006 -7.87402e-006 -0.156421 0.156417 0.0610118 0.0610118 0.155232 -0.155236c0.0348937,-0.0361417 0.0919843,-0.041937 0.133713,-0.0114882l-0.000275591 0.000377953c0.052374,0.0382047 0.11013,0.0706969 0.172264,0.0964409 0.0578622,0.0239882 0.118449,0.0416063 0.180866,0.0520039 0.0530669,0.00372441 0.0949646,0.0479528 0.0949646,0.101965l0 0.221098 0.0862559 0 0 -0.220209c-0.000492126,-0.0499213 0.035685,-0.0939724 0.0864724,-0.10189l0.0196535 -0.001c0.0295039,-0.00150394 0.0726772,-0.011752 0.169752,-0.0519803 0.059185,-0.0245315 0.114409,-0.0551772 0.164787,-0.0910709 0.0401457,-0.0352874 0.101358,-0.0337756 0.139689,0.00455906l-7.87402e-006 7.87402e-006 0.156421 0.156421 0.0610118 -0.0610118 -0.15524 -0.155232c-0.0361378,-0.0348937 -0.0419331,-0.0919843 -0.0114882,-0.133713l0.000377953 0.000275591c0.0382047,-0.052374 0.0706969,-0.11013 0.0964449,-0.172264 0.0239843,-0.0578622 0.0416063,-0.118449 0.0520039,-0.180866 0.00372441,-0.0530669 0.0479488,-0.0949646 0.101965,-0.0949646l0.221098 0 0 -0.0862598 -0.220209 0c-0.0499252,0.000496063 -0.0939724,-0.0356811 -0.101894,-0.0864724l0.101004 -0.015752 -0.100626 0.0155748c-0.0101929,-0.0653661 -0.0283071,-0.128783 -0.0533583,-0.189224 -0.0245276,-0.059185 -0.0551732,-0.114409 -0.0910669,-0.164787 -0.0352874,-0.0401496 -0.0337756,-0.101358 0.00455906,-0.139689l3.93701e-006 7.87402e-006 0.156425 -0.156421 -0.0610118 -0.0610118 -0.155236 0.15524c-0.0348898,0.0361378 -0.0919803,0.0419331 -0.133709,0.0114882l0.000275591 -0.000377953c-0.052378,-0.0382047 -0.110134,-0.0706969 -0.172268,-0.0964449z"/>
   <path id="_554246752" fill="white" d="M4.51615 3.23392c0.156469,0 0.298138,0.0634331 0.400685,0.165984 0.102551,0.102551 0.165984,0.24422 0.165984,0.400685 0,0.156469 -0.0634331,0.298138 -0.16598,0.400689 -0.102551,0.102547 -0.24422,0.16598 -0.400689,0.16598 -0.156469,0 -0.298138,-0.0634291 -0.400689,-0.16598 -0.102547,-0.102551 -0.16598,-0.24422 -0.16598,-0.400689 0,-0.156469 0.0634331,-0.298138 0.16598,-0.400689 0.102551,-0.102547 0.24422,-0.16598 0.400689,-0.16598zm0.24985 0.316819c-0.0639291,-0.0639331 -0.152268,-0.10348 -0.24985,-0.10348 -0.0975827,0 -0.185921,0.0395472 -0.249854,0.103476 -0.0639291,0.0639331 -0.103476,0.152272 -0.103476,0.249854 0,0.0975827 0.0395472,0.185921 0.103476,0.249854 0.0639291,0.0639291 0.152272,0.103476 0.249854,0.103476 0.0975827,0 0.185921,-0.0395472 0.249854,-0.103476 0.0639291,-0.0639331 0.103476,-0.152272 0.103476,-0.249854 0,-0.0975787 -0.0395472,-0.185917 -0.10348,-0.24985z"/>
   <path id="_554246680" fill="white" d="M1.13579 0.959996l3.3052 0c0.0479803,0 0.0918031,0.0197362 0.123819,0.051563l3.93701e-006 -3.93701e-006 0.000200787 0.00019685 0.000200787 0.000200787 -3.93701e-006 3.93701e-006c0.0318228,0.0320197 0.051563,0.0758425 0.051563,0.123823l0 1.21207 -0.204453 0 0 -1.18341 -3.24787 0 0 4.49777 3.24787 0 0 -0.408882 0.204453 0 0 0.437547c0,0.0479803 -0.0197402,0.0918031 -0.051563,0.123823l3.93701e-006 3.93701e-006 -0.000200787 0.000200787 -0.000200787 0.00019685 -3.93701e-006 -3.93701e-006c-0.0320157,0.0318268 -0.0758386,0.051563 -0.123819,0.051563l-3.3052 0c-0.0484449,0 -0.0924173,-0.0197441 -0.124228,-0.0515591 -0.031815,-0.031811 -0.0515591,-0.0757835 -0.0515591,-0.124224l0 -4.5551c0,-0.0484409 0.0197441,-0.0924134 0.0515591,-0.124224 0.031811,-0.031815 0.0757835,-0.0515591 0.124228,-0.0515591z"/>
   <polygon id="_554246224" fill="white" points="1.46766,2.07999 3.81877,2.07999 3.81877,2.29333 1.46766,2.29333 "/>
   <path id="_554246392" fill="white" d="M1.46766 3.00443l1.85927 0c-0.00456299,0.0576063 0.0151654,0.11678 0.0592047,0.160827l0.043626 0.043622 -1.9621 0 0 -0.204449zm0 1.83998l2.03784 0 0.086189 0.0861969c0.061374,0.061378 0.15213,0.0755394 0.227083,0.0425157l0 0.0757362 -2.35111 0 0 -0.204449zm0 -0.919992l1.59575 0 0 0.0215236c0,0.0800472 0.046063,0.149366 0.113102,0.182925l-1.70885 0 0 -0.204449z"/>
  </g>
 </g>
 <rect fill="none" width="6.82666" height="6.82666"/>
</svg>
