<?xml version="1.0" encoding="iso-8859-1"?>
<!-- Generator: Adobe Illustrator 19.0.0, SVG Export Plug-In . SVG Version: 6.00 Build 0)  -->
<svg version="1.1" id="Capa_1" xmlns="http://www.w3.org/2000/svg" xmlns:xlink="http://www.w3.org/1999/xlink" x="0px" y="0px"
	 viewBox="0 0 512 512" style="enable-background:new 0 0 512 512;" xml:space="preserve">
<g>
	<g>
		<path d="M431.997,126c-5.52,0-10,4.48-10,10s4.48,10,10,10c5.52,0,10-4.48,10-10S437.517,126,431.997,126z"/>
	</g>
</g>
<g>
	<g>
		<path d="M461.997,156c-5.523,0-10,4.477-10,10c0,11.028-8.972,20-20,20c-11.028,0-20-8.972-20-20c0-0.771,0.041-1.507,0.121-2.188
			c0.647-5.485-3.274-10.456-8.759-11.104c-5.488-0.648-10.456,3.273-11.104,8.759c-0.172,1.455-0.259,2.98-0.259,4.532
			c0,22.056,17.944,40,40,40c22.056,0,40.001-17.943,40.001-39.999C471.997,160.477,467.52,156,461.997,156z"/>
	</g>
</g>
<g>
	<g>
		<path d="M431.997,86c-44.112,0-80,35.888-80,80c0,33.412,20.427,62.128,50,74.148V344c0,55.935-53.271,105-114,105
			c-60.523,0-118.17-54.145-113.307-116.758c47.244-11.802,83.64-50.579,91.322-100.323l21.479-130.197
			c6.237-36.102-16.401-70.943-52.005-79.845l-6.43-1.603C222.028,7.807,208.887,0,194.257,0c-22.056,0-40,17.944-40,40
			c0,22.056,17.944,40,40,40c5.094,0,10.153-0.994,14.844-2.866l11.833,2.959c5.056,1.263,8.32,6.27,7.43,11.405l-6.48,37.5
			c-0.006,0.035-0.012,0.07-0.018,0.105l-15.093,93.259C201.999,253.442,175.707,276,144.257,276c-31.448,0-57.765-22.71-62.576-54
			c-0.005-0.036-0.011-0.072-0.017-0.108L60.15,91.491c-0.89-5.129,2.374-10.136,7.433-11.4l11.831-2.958
			C84.109,79.007,89.166,80,94.257,80c22.056,0,40-17.944,40-40c0-22.056-17.944-40-40-40c-14.63,0-27.772,7.807-34.799,20.275
			l-6.426,1.604c-35.379,8.842-58.22,43.916-52.012,79.77L22.452,231.55c7.659,49.659,44.141,89.153,92.081,100.871
			C110.035,426.997,192.974,512,287.997,512c89.34,0,174-72.405,174-165V240.148c29.501-11.99,50-40.657,50-74.148
			C511.997,121.888,476.109,86,431.997,86z M194.257,60c-11.028,0-20-8.972-20-20s8.972-20,20-20c11.386,0,20,9.253,20,20
			C214.257,51.08,205.288,60,194.257,60z M94.257,20c11.028,0,20,8.972,20,20s-8.972,20-20,20c-11.04,0-20-8.925-20-20
			C74.257,29.231,82.893,20,94.257,20z M42.212,228.45c-0.005-0.036-0.011-0.072-0.017-0.108L20.741,98.314
			c-4.232-24.442,10.37-48.316,33.596-55.99c0.396,6.882,2.54,13.404,6.104,19.044c-13.847,4.664-22.531,18.929-20.01,33.46
			l21.491,130.265C68.265,266.183,102.883,296,144.257,296c41.395,0,76-29.692,82.272-70.522l15.072-93.13l6.469-37.438
			c2.533-14.609-6.152-28.88-19.998-33.541c3.565-5.641,5.71-12.163,6.105-19.047c23.224,7.673,37.829,31.553,33.594,56.07
			l-21.5,130.32c-0.006,0.036-0.011,0.071-0.017,0.106c-7.573,49.184-49.842,87.314-102.256,87.175
			C91.628,315.854,49.804,277.824,42.212,228.45z M441.997,347c0,77.243-71.962,145-154,145
			c-83.144,0-156.084-74.36-153.562-156.395c3.266,0.256,6.546,0.395,9.821,0.395c3.415,0,6.824-0.146,10.21-0.42
			C151.848,408.29,218.079,469,287.997,469c68.165,0,134-55.291,134-125v-98.634c3.303,0.413,6.64,0.634,10,0.634
			s6.698-0.221,10-0.633V347z M430.997,225.98c-33.226-0.542-59-27.969-59-59.98c0-33.084,26.916-60,60-60c33.084,0,60,26.916,60,60
			C491.997,198.702,465.139,226.538,430.997,225.98z"/>
	</g>
</g>
<g>
</g>
<g>
</g>
<g>
</g>
<g>
</g>
<g>
</g>
<g>
</g>
<g>
</g>
<g>
</g>
<g>
</g>
<g>
</g>
<g>
</g>
<g>
</g>
<g>
</g>
<g>
</g>
<g>
</g>
</svg>
