<?xml version="1.0" encoding="iso-8859-1"?>
<!-- Generator: Adobe Illustrator 19.0.0, SVG Export Plug-In . SVG Version: 6.00 Build 0)  -->
<svg version="1.1" id="Layer_1" xmlns="http://www.w3.org/2000/svg" xmlns:xlink="http://www.w3.org/1999/xlink" x="0px" y="0px" width="48" height="45.001"
	 viewBox="0 0 512 512" style="enable-background:new 0 0 512 512;" xml:space="preserve">
<g>
	<g>
		<g>
			<path d="M459.109,46.307L416.441,3.639C414.109,1.309,410.95,0,407.652,0H104.349c-3.296,0-6.457,1.309-8.787,3.639
				l-42.67,42.668c-2.331,2.331-3.64,5.491-3.64,8.789v444.477c0,6.865,5.564,12.427,12.427,12.427h388.641
				c6.863,0,12.427-5.562,12.427-12.427V55.096C462.748,51.8,461.439,48.638,459.109,46.307z M437.893,487.146H74.108V60.242
				l35.388-35.388h293.01l35.388,35.388V487.146z" fill="white"/>
			<path d="M175.151,315.475l41.724-17.602c16.878-7.12,27.782-23.555,27.782-41.871v-115.46c0-35.992-39.532-57.916-70.068-38.834
				c-13.405,8.378-23.441,21.284-28.261,36.342l-37.401,116.879C96.058,295.142,136.302,331.864,175.151,315.475z M132.599,262.504
				L170,145.625c3.029-9.465,9.337-17.575,17.763-22.841c13.955-8.722,32.041,1.294,32.041,17.759V256
				c0,8.3-4.941,15.746-12.588,18.972l-41.724,17.602C146.131,300.738,126.193,282.521,132.599,262.504z" fill="white"/>
			<path d="M332.882,98.876c-28.553-17.841-65.538,2.649-65.538,36.324V256c0,18.318,10.904,34.753,27.782,41.871l41.724,17.602
				c38.891,16.412,79.08-20.379,66.224-60.547l-35.772-111.792C361.433,124.799,349.21,109.079,332.882,98.876z M346.51,292.574
				l-41.724-17.602c-7.647-3.226-12.588-10.672-12.588-18.972V135.199c0-14.132,15.529-22.74,27.51-15.246
				c11.347,7.09,19.842,18.014,23.92,30.758l35.772,111.792C385.805,282.513,365.879,300.741,346.51,292.574z" fill="white"/>
			<path d="M393.068,377.059H118.934c-6.863,0-12.427,5.562-12.427,12.427s5.564,12.427,12.427,12.427h274.132
				c6.863,0,12.427-5.562,12.427-12.427C405.495,382.621,399.931,377.059,393.068,377.059z" fill="white"/>
			<path d="M393.068,424.6H118.934c-6.863,0-12.427,5.564-12.427,12.427c0,6.865,5.564,12.427,12.427,12.427h274.132
				c6.863,0,12.427-5.562,12.427-12.427C405.495,430.163,399.931,424.6,393.068,424.6z" fill="white"/>
		</g>
	</g>
</g>
<g>
</g>
<g>
</g>
<g>
</g>
<g>
</g>
<g>
</g>
<g>
</g>
<g>
</g>
<g>
</g>
<g>
</g>
<g>
</g>
<g>
</g>
<g>
</g>
<g>
</g>
<g>
</g>
<g>
</g>
</svg>
