<svg width="41" height="41" viewBox="0 0 41 41" fill="none" xmlns="http://www.w3.org/2000/svg">
<path d="M34.0594 13.6665H35.8737C36.7799 13.6665 37.6489 14.0264 38.2896 14.6672C38.9304 15.3079 39.2904 16.177 39.2904 17.0831V23.9165C39.2904 24.8226 38.9304 25.6917 38.2896 26.3324C37.6489 26.9732 36.7799 27.3331 35.8737 27.3331H34.0594C33.643 30.6358 32.0355 33.6731 29.5388 35.8748C27.042 38.0765 23.8276 39.2914 20.4987 39.2915V35.8748C23.2172 35.8748 25.8243 34.7949 27.7465 32.8726C29.6688 30.9504 30.7487 28.3433 30.7487 25.6248V15.3748C30.7487 12.6563 29.6688 10.0492 27.7465 8.12694C25.8243 6.2047 23.2172 5.12479 20.4987 5.12479C17.7802 5.12479 15.1731 6.2047 13.2509 8.12694C11.3286 10.0492 10.2487 12.6563 10.2487 15.3748V27.3331H5.1237C4.21754 27.3331 3.3485 26.9732 2.70775 26.3324C2.067 25.6917 1.70703 24.8226 1.70703 23.9165V17.0831C1.70703 16.177 2.067 15.3079 2.70775 14.6672C3.3485 14.0264 4.21754 13.6665 5.1237 13.6665H6.93795C7.35483 10.3641 8.96246 7.3273 11.4592 5.12594C13.9559 2.92459 17.1701 1.70996 20.4987 1.70996C23.8273 1.70996 27.0415 2.92459 29.5382 5.12594C32.0349 7.3273 33.6426 10.3641 34.0594 13.6665ZM5.1237 17.0831V23.9165H6.83203V17.0831H5.1237ZM34.1654 17.0831V23.9165H35.8737V17.0831H34.1654ZM13.2554 26.9658L15.0662 24.0685C16.6944 25.0884 18.5774 25.6279 20.4987 25.6248C22.4199 25.6279 24.303 25.0884 25.9312 24.0685L27.742 26.9658C25.5712 28.3259 23.0604 29.0454 20.4987 29.0415C17.937 29.0454 15.4262 28.3259 13.2554 26.9658Z" fill="#00BCD4"/>
</svg>
