<svg width="60" height="49" viewBox="0 0 60 49" fill="none" xmlns="http://www.w3.org/2000/svg">
<path fill-rule="evenodd" clip-rule="evenodd" d="M27.5414 8.66297C29.4101 8.51508 31.2878 8.79494 33.0321 9.48131C34.7764 10.1677 36.3414 11.2425 37.6082 12.6242C38.6523 13.7629 39.4712 15.0855 40.0251 16.5215H41.9294L41.947 16.5216C43.7268 16.5456 45.453 17.1346 46.8763 18.2036C48.2997 19.2726 49.3464 20.7663 49.8655 22.4689C50.3846 24.1716 50.3492 25.9952 49.7644 27.6764C49.1796 29.3576 48.0756 30.8095 46.6118 31.8224C46.0194 32.2323 45.2069 32.0844 44.797 31.492C44.3871 30.8996 44.535 30.0871 45.1274 29.6772C46.1364 28.979 46.8974 27.9782 47.3005 26.8193C47.7036 25.6604 47.7281 24.4034 47.3702 23.2297C47.0124 22.056 46.2908 21.0264 45.3097 20.2895C44.3308 19.5543 43.1441 19.1485 41.9202 19.1302H39.0924C38.5148 19.1302 38.006 18.7504 37.8419 18.1966C37.4218 16.7794 36.6843 15.4766 35.6853 14.3871C34.6864 13.2976 33.4524 12.4501 32.0769 11.9088C30.7015 11.3676 29.2208 11.1469 27.7472 11.2635C26.2737 11.3802 24.8462 11.831 23.573 12.5819C22.2998 13.3327 21.2144 14.3639 20.3993 15.5969C19.5842 16.83 19.0608 18.2326 18.8689 19.6982C18.7839 20.3475 18.2305 20.8332 17.5756 20.8332C16.7417 20.8332 15.5784 20.9865 14.5533 21.4914C13.5666 21.9775 12.7192 22.7767 12.3454 24.1473C11.9423 25.6252 12.1602 27.1181 12.8435 28.2051C13.5021 29.253 14.6345 29.9998 16.3044 29.9998C17.0248 29.9998 17.6088 30.5838 17.6088 31.3041C17.6088 32.0245 17.0248 32.6085 16.3044 32.6085C13.7351 32.6085 11.7697 31.3988 10.6349 29.5934C9.52462 27.8271 9.25342 25.57 9.82862 23.4609C10.4331 21.2446 11.8683 19.9061 13.4005 19.1513C14.4446 18.6369 15.5366 18.3888 16.4714 18.286C16.7976 16.8177 17.3903 15.4183 18.2231 14.1584C19.2568 12.5947 20.6332 11.287 22.2478 10.3348C23.8624 9.38263 25.6728 8.81086 27.5414 8.66297Z" fill="#FFA400"/>
<path fill-rule="evenodd" clip-rule="evenodd" d="M31.0856 39.6196C31.806 39.6196 32.3899 39.0357 32.3899 38.3153V24.1305C32.3899 23.4101 31.806 22.8261 31.0856 22.8261C30.3652 22.8261 29.7812 23.4101 29.7812 24.1305V38.3153C29.7812 39.0357 30.3652 39.6196 31.0856 39.6196Z" fill="#FFA400"/>
<path fill-rule="evenodd" clip-rule="evenodd" d="M23.8586 31.3572C24.368 31.8666 25.1938 31.8666 25.7032 31.3572L31.0853 25.9752L36.4673 31.3572C36.9767 31.8666 37.8025 31.8666 38.3119 31.3572C38.8213 30.8478 38.8213 30.022 38.3119 29.5126L32.0076 23.2082C31.763 22.9636 31.4312 22.8262 31.0853 22.8262C30.7393 22.8262 30.4076 22.9636 30.1629 23.2082L23.8586 29.5126C23.3492 30.022 23.3492 30.8478 23.8586 31.3572Z" fill="#FFA400"/>
</svg>
