<?xml version="1.0" encoding="iso-8859-1"?>
<!-- Generator: Adobe Illustrator 19.0.0, SVG Export Plug-In . SVG Version: 6.00 Build 0)  -->
<svg version="1.1" id="Capa_1" xmlns="http://www.w3.org/2000/svg" xmlns:xlink="http://www.w3.org/1999/xlink"  width="48" height="45.001"
	 viewBox="0 0 490.812 390.812" >
<g>
	<path d="M118.8,245.406c0,40.2,32.6,72.7,72.7,72.7s72.7-32.6,72.7-72.7c0-40.2-32.6-72.7-72.7-72.7S118.8,205.206,118.8,245.406z
		 M197.8,201.906c0,4.4,0,4.4,4.4,5.1c3.4,0.5,6.6,1.5,9.7,2.9c1.7,0.8,2.4,2,1.8,3.8c-0.8,2.7-1.5,5.4-2.4,8.1
		c-0.8,2.5-1.6,2.9-4,1.7c-4.9-2.4-10-3.3-15.4-3c-1.4,0.1-2.8,0.3-4.1,0.8c-4.7,2-5.4,7.2-1.5,10.3c2,1.6,4.3,2.8,6.7,3.8
		c4.1,1.7,8.3,3.3,12.2,5.5c12.5,6.9,15.8,22.6,7,33.2c-3.2,3.9-7.3,6.4-12.1,7.8c-2.1,0.6-3,1.7-2.9,3.9c0.1,2.1,0,4.3,0,6.4
		c0,1.9-1,2.9-2.9,3c-2.3,0.1-4.6,0.1-6.9,0c-2,0-3-1.2-3-3.2c0-1.6,0-3.1,0-4.7c0-3.5-0.1-3.6-3.5-4.1c-4.3-0.7-8.4-1.6-12.3-3.5
		c-3.1-1.5-3.4-2.3-2.5-5.5c0.7-2.4,1.3-4.8,2.1-7.1c0.9-2.7,1.6-3.1,4.1-1.8c4.3,2.2,8.9,3.5,13.7,4.1c3.1,0.4,6.1,0.1,9-1.2
		c5.3-2.3,6.2-8.5,1.7-12.3c-1.5-1.3-3.3-2.2-5.1-3c-4.7-2.1-9.6-3.6-14-6.3c-7.2-4.3-11.7-10.2-11.2-18.9c0.6-9.9,6.2-16,15.2-19.3
		c3.7-1.4,3.8-1.3,3.8-5.2c0-1.3,0-2.6,0-4c0.1-2.9,0.6-3.4,3.5-3.5c0.9,0,1.8,0,2.7,0C197.8,195.606,197.8,195.606,197.8,201.906z
		 M85.7,225.306c11.1,0,20.1,9,20.1,20.1c0,11.1-9,20.1-20.1,20.1s-20.1-9-20.1-20.1C65.6,234.306,74.6,225.306,85.7,225.306z
		 M0,330.806v-170.8c0-18.3,14.9-33.2,33.2-33.2h316.6c18.3,0,33.2,14.9,33.2,33.2v68.7h-20.5c-2.8,0-5.4,0.5-7.9,1.3v-34.1
		c-2.7,0.7-5.4,1-8.3,1c-18.6,0-33.6-15-33.6-33.6c0-2.8,0.4-5.6,1-8.2H67.2c0.4,2,0.6,4.1,0.6,6.2c0,18.6-15,33.6-33.6,33.6
		c-2,0-4-0.2-5.9-0.5v102c1.9-0.3,3.9-0.5,5.9-0.5c18.6,0,33.6,15,33.6,33.6c0,2.1-0.2,4.2-0.6,6.2h203.9v20.6
		c0,2.7,0.4,5.3,1.2,7.7H33.1C14.8,364.006,0,349.106,0,330.806z M362.5,246.206h34.2c4.3,0,7.7,3.5,7.7,7.7v102.2
		c0,4.3-3.5,7.7-7.7,7.7h-34.2c-4.3,0-7.7-3.5-7.7-7.7v-102.1C354.8,249.706,358.2,246.206,362.5,246.206z M330.5,281.906
		c4.3,0,7.7,3.5,7.7,7.7v66.6c0,4.3-3.5,7.7-7.7,7.7h-34.1c-4.3,0-7.7-3.5-7.7-7.7v-66.6c0-4.3,3.5-7.7,7.7-7.7H330.5z
		 M489.8,200.906c2.6,3.8-0.1,9-4.8,9h-14.5v146.3c0,4.3-3.5,7.7-7.7,7.7h-34.2c-4.3,0-7.7-3.5-7.7-7.7v-146.3h-14.5
		c-4.6,0-7.4-5.2-4.8-9l39.3-57.4c2.3-3.3,7.2-3.3,9.5,0L489.8,200.906z" fill="white"/>
</g>
</svg>
