<svg xmlns="http://www.w3.org/2000/svg" width="48" height="45.001" viewBox="0 0 48 48"><title>First Aid Bag</title><g id="First_Aid_Bag" data-name="First Aid Bag"><path d="M48,16c0-.51.35.06-7.24-8.61C40.34,6.88,40.57,7,34,7V6a5,5,0,0,0-5-5H19a5,5,0,0,0-5,5V7H8c-.64,0-.21-.28-7.75,8.34C-.1,15.74,0,15.59,0,24a1,1,0,0,0,1,1V46c0,1.44-2.06,1,45,1,1.43,0,1,0,1-22a1,1,0,0,0,1-1C48,15.18,48,16.26,48,16ZM46,23H41c0-3.64.93-3-7-3-1.2,0-1,1.17-1,3H15c0-1.85.2-3-1-3-7.63,0-7-.78-7,3H2V17H46ZM35,22h4c0,6.53.7,6-3,6a1,1,0,0,1-1-1ZM9,22h4c0,6.53.7,6-3,6a1,1,0,0,1-1-1ZM16,6a3,3,0,0,1,3-3H29a3,3,0,0,1,3,3V7H16ZM8.45,9H14v3a1,1,0,0,0,2,0V9H32v3a1,1,0,0,0,2,0V9h5.55l5.25,6H3.2ZM45,45H3V25H7v2a3,3,0,0,0,3,3h2a3,3,0,0,0,3-3V25H33v2a3,3,0,0,0,3,3h2a3,3,0,0,0,3-3V25h4Z" fill="white"/><path d="M27,32c0-4.69.76-4-5-4-1.34,0-1,1.56-1,4H18a1,1,0,0,0-1,1c0,5.75-.72,5,4,5,0,4.68-.76,4,5,4,1.34,0,1-1.56,1-4h3a1,1,0,0,0,1-1C31,31.25,31.72,32,27,32Zm2,4c-4.57,0-4-.61-4,4H23c0-4.57.61-4-4-4V34c4.57,0,4,.61,4-4h2c0,4.57-.61,4,4,4Z" fill="white"/></g></svg>