<?xml version="1.0" encoding="iso-8859-1"?>
<!-- Generator: Adobe Illustrator 19.0.0, SVG Export Plug-In . SVG Version: 6.00 Build 0)  -->
<svg version="1.1" id="Layer_1" xmlns="http://www.w3.org/2000/svg" xmlns:xlink="http://www.w3.org/1999/xlink" x="0px" y="0px"
	 viewBox="0 0 512 512" style="enable-background:new 0 0 512 512;" xml:space="preserve">
<g>
	<g>
		<path d="M474.219,191.801H39.375C17.12,191.801,0,208.921,0,231.176v49.647c0,22.255,17.12,39.375,39.375,39.375h433.132
			c22.255,0,39.375-17.12,39.375-39.375v-49.647C513.594,208.921,496.474,191.801,474.219,191.801z M474.219,287.671H39.375
			c-3.424,0-5.135-1.712-5.135-5.135v-49.647c0-3.424,1.712-5.135,5.135-5.135h433.132c3.424,0,5.135,1.712,5.135,5.135v49.647
			h1.712C479.355,285.96,477.642,287.671,474.219,287.671z"/>
	</g>
</g>
<g>
</g>
<g>
</g>
<g>
</g>
<g>
</g>
<g>
</g>
<g>
</g>
<g>
</g>
<g>
</g>
<g>
</g>
<g>
</g>
<g>
</g>
<g>
</g>
<g>
</g>
<g>
</g>
<g>
</g>
</svg>
