<svg xmlns="http://www.w3.org/2000/svg" width="28" height="25.001" viewBox="0 0 42 48.001"><defs><style>.cls-1{fill:#1e0f00;}</style></defs><title>Thông Báo</title><g id="Layer_2" data-name="Layer 2"><g id="_1" class="bell-icon__group" data-name="1"><path class="cls-1 bell-icon__ball" d="M26,7H24V4a2,2,0,0,0-2-2H20a2,2,0,0,0-2,2V7H16V4a4,4,0,0,1,4-4h2a4,4,0,0,1,4,4Z"/><path class="cls-1 bell-icon__shell" d="M41,43H1a1,1,0,0,1,0-2,5,5,0,0,0,5-5V21a15,15,0,0,1,30,0V36a5,5,0,0,0,5,5,1,1,0,0,1,0,2ZM5.89,41H36.11A7,7,0,0,1,34,36V21A13,13,0,0,0,8,21V36A7,7,0,0,1,5.89,41Z"/><path class="cls-1 bell-icon__shell" d="M13,35H11V21A10,10,0,0,1,21,11v2a8,8,0,0,0-8,8Z"/><path class="cls-1" d="M21,48a9.89,9.89,0,0,1-8.9-5.56,1,1,0,0,1,.05-1A1,1,0,0,1,13,41H29a1,1,0,0,1,.85.47,1,1,0,0,1,0,1A9.89,9.89,0,0,1,21,48Zm-6.19-5a7.89,7.89,0,0,0,12.38,0Z"/></g></g></svg>