<?xml version="1.0" encoding="utf-8"?>
<!-- Generator: Adobe Illustrator 16.0.0, SVG Export Plug-In . SVG Version: 6.00 Build 0)  -->
<!DOCTYPE svg PUBLIC "-//W3C//DTD SVG 1.1//EN" "http://www.w3.org/Graphics/SVG/1.1/DTD/svg11.dtd">
<svg version="1.1" id="Layer_1" xmlns="http://www.w3.org/2000/svg" xmlns:xlink="http://www.w3.org/1999/xlink" x="0px" y="0px"
	 width="48" height="45.001" viewBox="0 0 128 128" enable-background="new 0 0 128 128" xml:space="preserve">
<g>
	<g>
		<path fill="white" d="M10.672,119.617C4.787,119.617,0,114.78,0,108.835V8.383h34.35c5.884,0,10.672,4.836,10.672,10.781h-4
			c0-3.739-2.993-6.781-6.672-6.781H4v96.452c0,3.739,2.994,6.782,6.673,6.782c3.677,0,6.669-3.043,6.669-6.782V52.894h4v55.941
			C21.341,114.78,16.555,119.617,10.672,119.617z"/>
	</g>
	<g>
		<path fill="white" d="M10.672,119.617C4.787,119.617,0,114.78,0,108.835h4c0,3.739,2.994,6.782,6.673,6.782
			c3.677,0,6.669-3.043,6.669-6.782h4C21.341,114.78,16.555,119.617,10.672,119.617z"/>
	</g>
	<g>
		<path fill="white" d="M117.328,119.617H10.673v-4c3.677,0,6.669-3.043,6.669-6.782V18.133h34.019
			c4.53,0,8.514,2.899,10.025,7.093H128v83.609C128,114.78,123.213,119.617,117.328,119.617z M18.961,115.617h98.367
			c3.68,0,6.672-3.043,6.672-6.782V29.226H58.216l-0.313-1.622c-0.611-3.17-3.363-5.472-6.542-5.472H21.342v86.702
			C21.342,111.402,20.45,113.764,18.961,115.617z"/>
	</g>
	<g>
		<rect x="21.349" y="104.041" fill="white" width="83.546" height="4"/>
	</g>
	<g>
		<path fill="white" d="M84.02,91.57H65.75V76.162H50.535V57.711H65.75V42.305h18.27v15.406h15.217v18.451H84.02V91.57z
			 M69.75,87.57h10.27V72.162h15.217V61.711H80.02V46.305H69.75v15.406H54.535v10.451H69.75V87.57z"/>
	</g>
</g>
</svg>
