<?xml version="1.0" encoding="iso-8859-1"?>
<!-- Generator: Adobe Illustrator 19.0.0, SVG Export Plug-In . SVG Version: 6.00 Build 0)  -->
<svg version="1.1" id="Capa_1" xmlns="http://www.w3.org/2000/svg" xmlns:xlink="http://www.w3.org/1999/xlink" x="0px" y="0px"
	 viewBox="0 0 512.001 512.001" style="enable-background:new 0 0 512.001 512.001;" xml:space="preserve">
<g>
	<g>
		<path d="M286,382.001c-5.52,0-10,4.48-10,10c0,5.52,4.48,10,10,10c5.52,0,10-4.48,10-10C296,386.481,291.52,382.001,286,382.001z"
			/>
	</g>
</g>
<g>
	<g>
		<g>
			<path d="M426.542,422.015l-8.195-24.586C442.673,371.408,456,337.766,456,302.001c0-62.984-42.061-118.048-101.212-135.262
				l24.512-42.458c2.761-4.783,1.122-10.898-3.661-13.66l-8.66-5l10-17.32l8.66,5c4.772,2.755,10.892,1.134,13.66-3.66l20-34.64
				c2.76-4.78,1.121-10.899-3.66-13.66l-69.28-40c-4.781-2.76-10.899-1.122-13.66,3.66l-20,34.64
				c-2.76,4.78-1.122,10.899,3.66,13.66l8.66,5l-10,17.32l-8.66-5c-4.779-2.76-10.9-1.122-13.66,3.66l-75,129.909l-8.66-5
				c-4.778-2.761-10.899-1.122-13.66,3.66l-20,34.641c-2.762,4.783-1.123,10.898,3.66,13.66l103.92,60
				c4.75,2.744,10.882,1.151,13.66-3.66l20-34.641c2.762-4.783,1.123-10.898-3.66-13.66l-8.66-5l7.385-12.791
				C346.55,238.9,376,266.9,376,302.001c0,10.702-2.759,20.919-8.02,29.983c-12.981-6.552-27.317-9.983-41.98-9.983
				c-20.945,0-41.28,7.08-57.693,20H170.72c-19.057,0-36.194,10.59-44.726,27.641l-8.94,17.89c-1.549,3.1-1.383,6.78,0.439,9.728
				c1.822,2.948,5.041,4.742,8.506,4.742h106.129l-6.667,20H86v-0.001c-16.542,0-30,13.458-30,30v50c0,5.522,4.477,10,10,10h380
				c5.523,0,10-4.478,10-10v-50C456,435.641,442.834,422.306,426.542,422.015z M345.02,23.661l51.96,30l-10,17.319
				c-11.567-6.678-38.465-22.209-51.96-30L345.02,23.661z M342.341,68.301l17.319,10l-10,17.32l-17.319-10L342.341,68.301z
				 M284.3,288.831l-86.6-50l10-17.32c9.192,5.307,65.786,37.983,77.937,44.999c0.001,0.001,0.002,0.001,0.004,0.002
				c0.001,0,0.002,0.001,0.003,0.001l8.656,4.998L284.3,288.831z M286.979,244.19l-51.96-30L305.02,92.941
				c20.351,11.75,32.291,18.644,38.899,22.459c-1.511-0.873-2.695-1.556-2.832-1.635c0.251,0.145,4.159,2.401,15.893,9.176
				C346.645,140.843,295.739,229.017,286.979,244.19z M323.128,221.579l21.316-36.922C397.896,197.665,436,245.933,436,302.001
				c0,27.143-8.963,52.862-25.498,73.886c-5.964-12.775-14.785-24.088-25.723-32.994C392.145,330.579,396,316.626,396,302.001
				C396,259.896,363.912,225.233,323.128,221.579z M326,342.001c31.894,0,59.634,20.538,69.482,50.077l9.974,29.923H246.545
				l9.972-29.918C266.574,361.917,294.789,342.001,326,342.001z M142.177,382.001c0.692-0.81,7.059-20.1,28.544-20.1h78.749
				c-4.312,6.198-7.868,13.021-10.572,20.1H142.177z M436,492.001H76v-40c0-5.514,4.486-10,10-10c8.23,0,322.997,0,340,0
				c5.515,0,10,4.486,10,10V492.001z"/>
			<path d="M345.137,116.103c0.604,0.349,1.158,0.668,1.658,0.957C346.244,116.742,345.683,116.418,345.137,116.103z"/>
			<path d="M345.071,116.065c0.022,0.013,0.044,0.025,0.066,0.038C345.114,116.09,345.093,116.078,345.071,116.065z"/>
			<path d="M343.919,115.4c0.032,0.019,0.065,0.037,0.097,0.056C343.984,115.437,343.951,115.418,343.919,115.4z"/>
			<path d="M344.016,115.456c0.367,0.212,0.72,0.416,1.054,0.609C344.709,115.856,344.355,115.651,344.016,115.456z"/>
			<path d="M346.795,117.06c0.093,0.054,0.186,0.107,0.278,0.16C346.98,117.167,346.891,117.115,346.795,117.06z"/>
			<path d="M350.946,119.457c0.034,0.02,0.063,0.037,0.087,0.05C351.01,119.494,350.981,119.477,350.946,119.457z"/>
			<path d="M350.695,119.312c0.105,0.061,0.188,0.109,0.251,0.145C350.881,119.419,350.798,119.371,350.695,119.312z"/>
			<path d="M351.033,119.507C351.128,119.562,351.122,119.559,351.033,119.507L351.033,119.507z"/>
			<path d="M349.295,118.504c0.074,0.043,0.147,0.085,0.216,0.125C349.441,118.588,349.369,118.546,349.295,118.504z"/>
			<path d="M349.511,118.628c0.494,0.285,0.904,0.522,1.184,0.684C350.438,119.163,350.051,118.94,349.511,118.628z"/>
			<path d="M348.971,118.317c0.111,0.064,0.219,0.126,0.324,0.187C349.192,118.444,349.084,118.382,348.971,118.317z"/>
			<path d="M347.072,117.22c0.748,0.432,1.378,0.795,1.899,1.096C348.397,117.985,347.748,117.61,347.072,117.22z"/>
		</g>
	</g>
</g>
<g>
	<g>
		<path d="M366,382.001h-40c-5.523,0-10,4.478-10,10c0,5.522,4.477,10,10,10h40c5.523,0,10-4.478,10-10
			C376,386.479,371.523,382.001,366,382.001z"/>
	</g>
</g>
<g>
</g>
<g>
</g>
<g>
</g>
<g>
</g>
<g>
</g>
<g>
</g>
<g>
</g>
<g>
</g>
<g>
</g>
<g>
</g>
<g>
</g>
<g>
</g>
<g>
</g>
<g>
</g>
<g>
</g>
</svg>
