<?xml version="1.0" encoding="utf-8"?>
<!-- Generator: Adobe Illustrator 24.1.0, SVG Export Plug-In . SVG Version: 6.00 Build 0)  -->
<svg version="1.1" id="Layer_1" xmlns="http://www.w3.org/2000/svg" xmlns:xlink="http://www.w3.org/1999/xlink" x="0px" y="0px" width="48" height="45.001"
	 viewBox="0 0 512 512" style="enable-background:new 0 0 512 512;" xml:space="preserve">
<g id="Ultrasound">
	<rect x="360.1" y="133.9" width="63.6" height="13" fill="white"/>
	<path d="M467,416.2H45V95.8h422L467,416.2z M58,403.2h396V108.8H58L58,403.2z" fill="white"/>
	<rect x="86.6" y="363.2" width="79.5" height="13" fill="white"/>
	<rect x="86.6" y="338.7" width="79.5" height="13" fill="white"/>
	<path d="M256,193.4c-16.9,0.1-33.2-6.8-44.9-19l9.3-9c19,19.6,50.4,20.1,70,1.1c0.4-0.4,0.7-0.7,1.1-1.1l9.3,9
		C289.2,186.6,272.9,193.5,256,193.4z" fill="white"/>
	<path d="M397.5,267.7L397.5,267.7L397.5,267.7L397.5,267.7l-22.8-22.1c-33.7,29.3-72.9,46.5-113.9,49.8l-6.5,0.5l-1-13l6.5-0.5
		c37.9-3,74.2-18.9,105.6-45.9l-50-48.5c-1.3-1.2-3.3-1.2-4.5,0c-30.4,29.9-79.2,29.9-109.6,0c-1.2-1.2-3.2-1.3-4.5,0l-34.8,33.7
		c18.6,17.2,40.3,27.5,70.9,33.8l6.4,1.3l-2.6,12.7l-6.4-1.3c-33.4-6.8-57.1-18.2-77.6-37.4l-38,36.9l0,0v0l0,0
		c-1.3,1.2-1.3,3.3-0.1,4.5c0,0,0,0,0,0c77.1,78.2,202.9,79.1,281.1,2c0.7-0.7,1.3-1.3,2-2C398.8,271,398.8,268.9,397.5,267.7
		C397.5,267.7,397.5,267.7,397.5,267.7L397.5,267.7z" fill="white"/>
</g>
</svg>
