<svg width="20" height="20" viewBox="0 0 20 20" fill="none" xmlns="http://www.w3.org/2000/svg">
<path d="M2.5 9.16667L17.5 5V15L2.5 11.6667V9.16667Z" stroke="#4F5665" stroke-width="1.5" stroke-linecap="round" stroke-linejoin="round"/>
<path d="M9.66677 14C9.57922 14.3174 9.43002 14.6144 9.22769 14.8741C9.02535 15.1338 8.77385 15.3511 8.48754 15.5136C8.20122 15.6761 7.8857 15.7806 7.559 15.8212C7.23229 15.8618 6.90079 15.8376 6.58343 15.75C6.26607 15.6625 5.96906 15.5133 5.70936 15.3109C5.44966 15.1086 5.23236 14.8571 5.06985 14.5708C4.90735 14.2845 4.80283 13.969 4.76227 13.6423C4.7217 13.3155 4.74588 12.984 4.83343 12.6667" stroke="#4F5665" stroke-width="1.5" stroke-linecap="round" stroke-linejoin="round"/>
</svg>
