<svg width="20" height="20" viewBox="0 0 20 20" fill="none" xmlns="http://www.w3.org/2000/svg">
<path d="M11.7083 4.99998C12.5279 5.16159 13.28 5.56583 13.867 6.16024C14.454 6.75464 14.8487 7.51175 15 8.33331L11.7083 4.99998ZM11.7083 1.66665C13.4069 1.84562 14.9935 2.59898 16.2057 3.80213C17.418 5.00528 18.1833 6.58616 18.375 8.28331L11.7083 1.66665ZM18.375 14.1166V16.6166C18.375 17.0587 18.1994 17.4826 17.8869 17.7952C17.5743 18.1077 17.1504 18.2833 16.7083 18.2833H16.55C13.9857 18.0047 11.5225 17.1284 9.35834 15.725C7.34521 14.4451 5.63822 12.7381 4.35834 10.725C2.93661 8.54867 2.04865 6.06752 1.76667 3.48331C1.74603 3.26492 1.7687 3.04459 1.83339 2.83498C1.89808 2.62537 2.00352 2.43058 2.14365 2.26181C2.28378 2.09303 2.45585 1.95357 2.65 1.85144C2.84414 1.74931 3.05654 1.68651 3.27501 1.66665H5.92501C6.32943 1.66267 6.7215 1.80588 7.02814 2.06959C7.33478 2.3333 7.53507 2.69952 7.59167 3.09998C7.6983 3.89982 7.89396 4.68525 8.17501 5.44165C8.28713 5.73992 8.31139 6.06407 8.24493 6.37571C8.17847 6.68735 8.02406 6.9734 7.80001 7.19998L6.74167 8.25831C7.92797 10.3446 9.65539 12.072 11.7417 13.2583L12.8 12.2C13.0266 11.9759 13.3126 11.8215 13.6243 11.7551C13.9359 11.6886 14.2601 11.7129 14.5583 11.825C15.3147 12.106 16.1002 12.3017 16.9 12.4083C17.3048 12.4654 17.6745 12.6693 17.9388 12.9812C18.2031 13.2931 18.3435 13.6913 18.3333 14.1L18.375 14.1166Z" stroke="#4F5665" stroke-width="1.5" stroke-linecap="round" stroke-linejoin="round"/>
</svg>
