<svg width="164" height="135" viewBox="0 0 164 135" fill="none" xmlns="http://www.w3.org/2000/svg">
<circle cx="82" cy="68.5" r="61" fill="#00BCD4"/>
<path d="M100.5 60.6667C100.5 55.7602 98.5509 51.0546 95.0815 47.5852C91.6121 44.1158 86.9065 42.1667 82 42.1667C77.0935 42.1667 72.3879 44.1158 68.9185 47.5852C65.4491 51.0546 63.5 55.7602 63.5 60.6667C63.5 82.25 54.25 88.4167 54.25 88.4167H109.75C109.75 88.4167 100.5 82.25 100.5 60.6667Z" stroke="white" stroke-width="6" stroke-linecap="round" stroke-linejoin="round"/>
<path d="M87.3343 100.75C86.7923 101.684 86.0142 102.46 85.078 102.999C84.1419 103.539 83.0805 103.822 82.0002 103.822C80.9198 103.822 79.8585 103.539 78.9223 102.999C77.9862 102.46 77.2081 101.684 76.666 100.75" stroke="white" stroke-width="3" stroke-linecap="round" stroke-linejoin="round"/>
<path d="M51.166 60.6667C51.166 53.8834 53.3243 47.4084 57.3327 42.1667" stroke="white" stroke-width="3" stroke-linecap="round" stroke-linejoin="round"/>
<path d="M112.833 60.6667C112.833 53.9953 110.669 47.5038 106.666 42.1667" stroke="white" stroke-width="3" stroke-linecap="round" stroke-linejoin="round"/>
</svg>
