<svg width="164" height="135" viewBox="0 0 164 135" fill="none" xmlns="http://www.w3.org/2000/svg">
<circle cx="82" cy="68.5" r="61" fill="#00BCD4"/>
<g clip-path="url(#clip0_224_6126)">
<path fill-rule="evenodd" clip-rule="evenodd" d="M68.6068 31.5C69.8579 31.5 70.8721 32.5142 70.8721 33.7653V38.4218H94.0286V33.7653C94.0286 32.5142 95.0428 31.5 96.2939 31.5C97.545 31.5 98.5592 32.5142 98.5592 33.7653V38.4218H106.677C111.75 38.4218 115.864 42.535 115.864 47.6088V96.0612C115.864 101.135 111.75 105.248 106.677 105.248H58.2242C53.1503 105.248 49.0371 101.135 49.0371 96.0612V47.6088C49.0371 42.535 53.1503 38.4218 58.2242 38.4218H66.3415V33.7653C66.3415 32.5142 67.3557 31.5 68.6068 31.5ZM66.3415 42.9524H58.2242C55.6525 42.9524 53.5677 45.0372 53.5677 47.6088V59.1871H111.333V47.6088C111.333 45.0371 109.248 42.9524 106.677 42.9524H98.5592V47.6088C98.5592 48.8599 97.545 49.8741 96.2939 49.8741C95.0428 49.8741 94.0286 48.8599 94.0286 47.6088V42.9524H70.8721V47.6088C70.8721 48.8599 69.8579 49.8741 68.6068 49.8741C67.3557 49.8741 66.3415 48.8599 66.3415 47.6088V42.9524ZM111.333 63.7177H53.5677V96.0612C53.5677 98.6329 55.6525 100.718 58.2242 100.718H106.677C109.248 100.718 111.333 98.6329 111.333 96.0612V63.7177Z" fill="white" stroke="white" stroke-linecap="round" stroke-linejoin="round"/>
</g>
<defs>
<clipPath id="clip0_224_6126">
<path d="M45 39.5C45 35.0817 48.5817 31.5 53 31.5H111C115.418 31.5 119 35.0817 119 39.5V97.5C119 101.918 115.418 105.5 111 105.5H53C48.5817 105.5 45 101.918 45 97.5V39.5Z" fill="white"/>
</clipPath>
</defs>
</svg>
