<svg width="16" height="15" viewBox="0 0 16 15" fill="none" xmlns="http://www.w3.org/2000/svg">
<path d="M8.40625 1.25C4.96 1.25 2.15625 4.05375 2.15625 7.5C2.15625 10.9462 4.96 13.75 8.40625 13.75C11.8525 13.75 14.6563 10.9462 14.6563 7.5C14.6563 4.05375 11.8525 1.25 8.40625 1.25ZM7.15688 10.2581L5.27841 8.3837C5.03419 8.14001 5.03369 7.7445 5.27731 7.50019C5.52107 7.25574 5.91688 7.25529 6.1612 7.49918L7.15563 8.49187L10.0225 5.625C10.2665 5.38096 10.6622 5.38096 10.9063 5.625C11.1503 5.86904 11.1503 6.26471 10.9063 6.50875L7.15688 10.2581Z" fill="#00BCD4"/>
</svg>
