<svg width="164" height="135" viewBox="0 0 164 135" fill="none" xmlns="http://www.w3.org/2000/svg">
<circle cx="82" cy="68.5" r="61" fill="#00BCD4"/>
<path d="M76.333 38.6667H87.6663" stroke="white" stroke-width="6" stroke-linecap="round" stroke-linejoin="round"/>
<path d="M82 72.6666V61.3333" stroke="white" stroke-width="6" stroke-linecap="round" stroke-linejoin="round"/>
<path d="M59.333 69.8334C60.0268 64.3253 62.7179 59.2633 66.8959 55.6076C71.0739 51.9518 76.4482 49.9565 81.9997 50C85.6661 50.0039 89.2769 50.8972 92.5223 52.6032C95.7677 54.3092 98.5508 56.777 100.633 59.7949C102.715 62.8129 104.034 66.2908 104.476 69.9305C104.919 73.5701 104.472 77.2628 103.174 80.6918C101.876 84.1208 99.7654 87.1837 97.0235 89.6178C94.2815 92.0519 90.99 93.7845 87.4314 94.667C83.8727 95.5495 80.153 95.5555 76.5915 94.6846C73.03 93.8137 69.7329 92.0918 66.983 89.6667L59.333 82.8667" stroke="white" stroke-width="6" stroke-linecap="round" stroke-linejoin="round"/>
<path d="M73.4997 81.1667H59.333V95.3334" stroke="white" stroke-width="6" stroke-linecap="round" stroke-linejoin="round"/>
</svg>
