<svg width="164" height="135" viewBox="0 0 164 135" fill="none" xmlns="http://www.w3.org/2000/svg">
<circle cx="82" cy="68.5" r="61" fill="#00BCD4"/>
<path d="M60.9832 88.5936H85.3396" stroke="white" stroke-width="2" stroke-linecap="round" stroke-linejoin="round"/>
<path d="M108.589 60.9159H95.3036C92.8578 60.9159 90.8752 62.8985 90.8752 65.3443V91.9149C90.8752 94.3607 92.8578 96.3434 95.3036 96.3434H108.589C111.035 96.3434 113.017 94.3607 113.017 91.9149V65.3443C113.017 62.8985 111.035 60.9159 108.589 60.9159Z" stroke="white" stroke-width="2" stroke-linecap="round" stroke-linejoin="round"/>
<path d="M101.946 93.022C103.169 93.022 104.16 92.0307 104.16 90.8078C104.16 89.5849 103.169 88.5936 101.946 88.5936C100.723 88.5936 99.732 89.5849 99.732 90.8078C99.732 92.0307 100.723 93.022 101.946 93.022Z" fill="white"/>
<path d="M97.5178 48.1841H57.6618C51.9048 48.1841 50.8346 52.9816 51.0192 55.3803V74.2012C51.0192 81.2867 56.1857 82.689 58.7689 82.5045H86.4467V68.6656C85.8931 59.4397 89.768 57.041 93.6429 57.041H105.268C105.268 49.5126 100.101 47.9996 97.5178 48.1841Z" fill="white"/>
</svg>
