<svg width="311" height="220" viewBox="0 0 311 220" fill="none" xmlns="http://www.w3.org/2000/svg">
<path d="M313.112 13.7539C287.464 -0.721901 230.924 -14.9459 209.954 43.9642C183.742 117.602 160.912 133.651 79.7378 151.588C14.7988 165.938 0.255166 202.883 1.10073 219.562" stroke="#0FC0F8" stroke-width="2" stroke-dasharray="4 4"/>
<path d="M313.112 47.0989C291.706 34.9685 244.518 23.049 227.017 72.4145C205.14 134.121 186.086 147.57 118.339 162.601C64.1407 174.626 52.0027 205.585 52.7084 219.562" stroke="#0FC0F8" stroke-width="2" stroke-dasharray="4 4"/>
<path d="M313.112 89.77C296.988 80.6409 261.444 71.6706 248.261 108.822C231.782 155.261 217.43 165.382 166.4 176.695C125.575 185.744 116.432 209.043 116.964 219.561" stroke="#0FC0F8" stroke-width="2" stroke-dasharray="4 4"/>
</svg>
