<svg width="164" height="135" viewBox="0 0 164 135" fill="none" xmlns="http://www.w3.org/2000/svg">
<circle cx="82" cy="68.5" r="61" fill="#00BCD4"/>
<g clip-path="url(#clip0_224_5765)">
<path d="M100.942 87.6557L95.5979 63.3093L105.99 52.9175C110.443 48.4639 111.928 42.5258 110.443 39.5567C107.474 38.0722 101.536 39.5567 97.0825 44.0103L86.6907 54.4021L62.3443 49.0577C60.8598 48.7608 59.6722 49.3546 59.0784 50.5423L58.1876 52.0268C57.5938 53.5113 57.8907 54.9959 59.0784 55.8866L74.8144 66.2783L68.8763 75.1856H59.9691L57 78.1546L65.9072 84.0928L71.8454 93L74.8144 90.0309V81.1237L83.7216 75.1856L94.1134 90.9216C95.0041 92.1093 96.4887 92.4062 97.9732 91.8124L99.4577 91.2186C100.645 90.3278 101.239 89.1402 100.942 87.6557V87.6557Z" stroke="white" stroke-width="6" stroke-linecap="round" stroke-linejoin="round"/>
<g clip-path="url(#clip1_224_5765)">
<path d="M55.9802 99.0417C55.9726 99.4479 55.866 99.8462 55.6697 100.202C55.4734 100.558 55.1934 100.86 54.8538 101.084C54.5142 101.307 54.1254 101.444 53.7209 101.483C53.3165 101.522 52.9086 101.462 52.5326 101.308C52.1566 101.154 51.8239 100.91 51.5632 100.598C51.3024 100.287 51.1216 99.9163 51.0363 99.519C50.9511 99.1217 50.9639 98.7096 51.0738 98.3184C51.1837 97.9272 51.3872 97.5687 51.6669 97.2739L64.0413 84.8995" stroke="white" stroke-width="3" stroke-linecap="round" stroke-linejoin="round"/>
<path d="M63.9011 95.5061C63.9043 95.837 63.8254 96.1636 63.6715 96.4565C63.5175 96.7494 63.2932 96.9995 63.0188 97.1844C62.7443 97.3694 62.4283 97.4833 62.099 97.516C61.7697 97.5487 61.4374 97.4993 61.1319 97.372C60.8265 97.2447 60.5574 97.0436 60.3487 96.7867C60.1401 96.5299 59.9985 96.2252 59.9365 95.9002C59.8746 95.5751 59.8943 95.2397 59.9938 94.9241C60.0934 94.6085 60.2697 94.3226 60.507 94.0919L66.8709 87.7279" stroke="white" stroke-width="3" stroke-linecap="round" stroke-linejoin="round"/>
<path d="M51.3133 87.1623C50.9823 87.159 50.6558 87.2379 50.3629 87.3919C50.07 87.5459 49.8198 87.7701 49.6349 88.0446C49.45 88.319 49.3361 88.635 49.3033 88.9643C49.2706 89.2936 49.3201 89.6259 49.4474 89.9314C49.5747 90.2369 49.7757 90.506 50.0326 90.7146C50.2895 90.9232 50.5941 91.0649 50.9192 91.1268C51.2443 91.1888 51.5796 91.1691 51.8952 91.0695C52.2108 90.9699 52.4968 90.7936 52.7275 90.5564L61.2128 82.0711" stroke="white" stroke-width="3" stroke-linecap="round" stroke-linejoin="round"/>
</g>
</g>
<defs>
<clipPath id="clip0_224_5765">
<rect width="75" height="75" fill="white" transform="translate(45 30)"/>
</clipPath>
<clipPath id="clip1_224_5765">
<rect width="24" height="24" fill="white" transform="translate(73.9414 91.9706) rotate(135)"/>
</clipPath>
</defs>
</svg>
