<svg width="79" height="72" viewBox="0 0 79 72" fill="none" xmlns="http://www.w3.org/2000/svg">
<path d="M47 40.0001C48.4728 40.0001 49.6667 38.8062 49.6667 37.3334C49.6667 35.8607 48.4728 34.6667 47 34.6667C45.5273 34.6667 44.3333 35.8607 44.3333 37.3334C44.3333 38.8062 45.5273 40.0001 47 40.0001Z" stroke="#00BCD4" stroke-width="6" stroke-linecap="round" stroke-linejoin="round"/>
<path d="M60.4133 57.2266C64.6798 54.3492 67.9084 50.1765 69.6228 45.3243C71.3371 40.4721 71.4464 35.1974 69.9346 30.2784C68.4228 25.3593 65.3699 21.0565 61.2263 18.0047C57.0827 14.9529 52.0679 13.3138 46.9218 13.3292C41.7757 13.3446 36.7708 15.0137 32.6456 18.0903C28.5203 21.1668 25.4932 25.4879 24.0109 30.4159C22.5285 35.3439 22.6695 40.6179 24.4128 45.4597C26.1562 50.3015 29.4097 54.4548 33.6933 57.3066" stroke="#00BCD4" stroke-width="6" stroke-linecap="round" stroke-linejoin="round"/>
<path d="M57.8267 45.0932C59.2744 43.078 60.1311 40.6988 60.3004 38.2233C60.4696 35.7477 59.9447 33.2741 58.7847 31.0806C57.6247 28.8871 55.8756 27.0608 53.7342 25.8072C51.5929 24.5536 49.1441 23.9224 46.6636 23.9847C44.183 24.0469 41.7691 24.8001 39.6933 26.1595C37.6175 27.519 35.9622 29.4307 34.9136 31.6796C33.8651 33.9285 33.4649 36.4254 33.7582 38.8893C34.0514 41.3533 35.0263 43.6865 36.5733 45.6266" stroke="#00BCD4" stroke-width="6" stroke-linecap="round" stroke-linejoin="round"/>
<path d="M44.6267 53.3334C44.5753 52.9919 44.5983 52.6434 44.694 52.3116C44.7897 51.9798 44.9559 51.6725 45.1812 51.4108C45.4065 51.1491 45.6856 50.9391 45.9995 50.7951C46.3134 50.6512 46.6547 50.5767 47 50.5767C47.3453 50.5767 47.6866 50.6512 48.0005 50.7951C48.3144 50.9391 48.5935 51.1491 48.8188 51.4108C49.0441 51.6725 49.2103 51.9798 49.306 52.3116C49.4017 52.6434 49.4247 52.9919 49.3733 53.3334L47.9867 65.7868C47.9867 66.0484 47.8827 66.2994 47.6977 66.4844C47.5126 66.6695 47.2617 66.7734 47 66.7734C46.7383 66.7734 46.4874 66.6695 46.3023 66.4844C46.1173 66.2994 46.0133 66.0484 46.0133 65.7868L44.6267 53.3068V53.3334Z" stroke="#00BCD4" stroke-width="6" stroke-linecap="round" stroke-linejoin="round"/>
</svg>
