<svg width="164" height="135" viewBox="0 0 164 135" fill="none" xmlns="http://www.w3.org/2000/svg">
<circle cx="82" cy="68.5" r="61" fill="#00BCD4"/>
<path d="M113.954 75.417C112.875 73.8824 110.909 73.3469 109.248 73.9773C109.18 73.3038 108.958 72.6537 108.559 72.0852C107.293 70.2747 104.784 69.8325 102.998 71.0792L102.336 71.5121C102.253 70.8777 102.038 70.2653 101.66 69.7258C100.391 67.9184 97.8834 67.4762 96.0689 68.7425C96.0485 68.7567 96.0336 68.7739 96.0148 68.7896C96.007 68.7959 95.9976 68.7967 95.9897 68.8037C90.7212 73.2128 84.2891 77.7725 82.6432 77.7725C81.4247 77.7725 77.7158 75.6953 74.737 74.0259C70.9387 71.8986 67.3514 69.8889 65.293 69.7298C61.4281 69.449 49.6318 76.2968 48.2973 77.0801C47.7547 77.3984 47.5727 78.0963 47.8911 78.6389C48.2094 79.1807 48.9073 79.3634 49.4499 79.0451C54.2534 76.2254 62.736 71.8116 65.1174 72.0029C66.6747 72.1229 70.3663 74.1906 73.6227 76.0153C77.9189 78.4217 80.6978 79.9068 82.4119 80.0284C82.4864 80.0441 82.564 80.0519 82.6432 80.0519H90.4609C91.8864 80.0519 93.0469 81.2124 93.0469 82.6395C93.0469 84.0666 91.8872 85.2286 90.4609 85.2286C90.4499 85.2286 90.4397 85.2318 90.4288 85.2318C90.4123 85.2326 90.3974 85.2294 90.3809 85.231C90.3041 85.2373 82.6621 85.7689 79.5107 85.2435C76.5577 84.7511 72.7837 81.4006 72.7461 81.3669C72.2772 80.9458 71.5566 80.9866 71.1379 81.4555C70.7184 81.9244 70.7576 82.6442 71.2257 83.0637C71.3998 83.2197 75.5282 86.8902 79.1359 87.4916C80.3144 87.6876 82.0003 87.7519 83.7159 87.7519C86.9684 87.7519 90.3284 87.5191 90.5409 87.5042C90.5417 87.5042 90.5425 87.5042 90.5432 87.5042C93.1873 87.4595 95.3256 85.2969 95.3256 82.6403C95.3256 79.957 93.1434 77.774 90.4609 77.774H87.791C91.641 75.3433 96.0791 71.6995 97.391 70.6033C98.1759 70.0685 99.2501 70.2606 99.7943 71.0353C100.06 71.4148 100.162 71.8759 100.08 72.3338C99.9989 72.7917 99.7465 73.1893 99.3677 73.4551C99.3481 73.4692 99.3324 73.4865 99.3136 73.5014C99.2752 73.5319 99.236 73.5617 99.2031 73.5962C99.1827 73.6174 99.1662 73.6409 99.1474 73.6629C99.1184 73.6982 99.0886 73.7327 99.0643 73.7703C99.0478 73.7962 99.0353 73.8236 99.0211 73.8503C99.0008 73.8879 98.9796 73.9248 98.9639 73.9648C98.9521 73.9946 98.9451 74.0259 98.9357 74.0565C98.9239 74.0957 98.9106 74.1334 98.9027 74.1734C98.8965 74.2063 98.8949 74.24 98.8918 74.2729C98.8878 74.3121 98.8824 74.3506 98.8824 74.3898C98.8824 74.4251 98.8878 74.4603 98.891 74.4956C98.8949 74.5333 98.8965 74.5701 98.9035 74.607C98.9106 74.6446 98.9239 74.6815 98.9357 74.7191C98.9459 74.7528 98.9545 74.7865 98.9678 74.8203C98.9835 74.8587 99.0055 74.8947 99.0258 74.9316C99.04 74.9575 99.0502 74.9849 99.0666 75.0108C99.0698 75.0155 99.0737 75.0194 99.0768 75.0241C99.0807 75.0296 99.0823 75.0359 99.0862 75.0406C99.098 75.0571 99.1137 75.0688 99.1254 75.0845C99.1638 75.1347 99.2046 75.181 99.2501 75.2233C99.2728 75.2445 99.2964 75.2625 99.3199 75.2813C99.3638 75.315 99.4085 75.3456 99.4555 75.3731C99.4822 75.3887 99.5081 75.4036 99.5363 75.4162C99.5881 75.4405 99.6422 75.4593 99.6963 75.475C99.7214 75.4821 99.7449 75.4922 99.77 75.4977C99.8484 75.515 99.9284 75.5252 100.009 75.526C100.013 75.526 100.016 75.5275 100.019 75.5275C100.03 75.5275 100.04 75.5228 100.05 75.5228C100.137 75.5205 100.223 75.5064 100.309 75.4836C100.335 75.4766 100.36 75.4703 100.386 75.4617C100.474 75.4311 100.56 75.3942 100.642 75.3409L104.272 72.9682C105.059 72.4208 106.143 72.6106 106.691 73.3947C106.957 73.7727 107.06 74.2322 106.979 74.6877C106.898 75.1457 106.644 75.544 106.264 75.8106L105.099 76.6269C104.584 76.9883 104.459 77.6988 104.82 78.2139C105.042 78.5299 105.394 78.6993 105.754 78.6993C105.979 78.6993 106.208 78.6326 106.407 78.4931L107.553 77.6893L109.666 76.3038C110.452 75.7557 111.538 75.9455 112.085 76.7249C112.634 77.5113 112.441 78.5981 111.656 79.1462C111.655 79.147 111.654 79.1478 111.653 79.1486C99.2862 87.8304 85.2598 96.8265 83.1953 96.8516C81.6607 96.8516 78.2702 94.8302 75.278 93.0471C71.9024 91.035 68.7142 89.1343 66.4622 88.834C61.966 88.2373 55.043 93.4478 54.2683 94.0445C53.7696 94.4279 53.6771 95.143 54.0598 95.6417C54.4432 96.1412 55.1591 96.2338 55.6578 95.8503C57.5561 94.3919 63.1422 90.6893 66.1611 91.0939C67.9489 91.3322 71.2226 93.2831 74.1112 95.005C77.6711 97.1269 81.0327 99.1311 83.1945 99.1311C86.9637 99.1311 108.654 84.0384 112.964 81.0132C113.029 80.9677 113.087 80.9168 113.14 80.8611C114.794 79.5548 115.177 77.1718 113.954 75.417Z" fill="white" stroke="white"/>
<path d="M73.698 54.4888C78.267 54.4888 81.9838 50.7721 81.9838 46.2031C81.9838 41.634 78.2662 37.9173 73.698 37.9173C69.1297 37.9173 65.4122 41.634 65.4122 46.2031C65.4122 50.7721 69.1289 54.4888 73.698 54.4888ZM73.698 40.1959C77.0109 40.1959 79.7051 42.8909 79.7051 46.2031C79.7051 49.5152 77.0101 52.2102 73.698 52.2102C70.3858 52.2102 67.6908 49.5152 67.6908 46.2031C67.6908 42.8909 70.3858 40.1959 73.698 40.1959Z" fill="white" stroke="white"/>
<path d="M94.1863 52.5693C97.6968 52.5693 100.553 49.7136 100.553 46.2031C100.553 42.6926 97.696 39.8368 94.1863 39.8368C90.6766 39.8368 87.82 42.6926 87.82 46.2031C87.82 49.7136 90.6758 52.5693 94.1863 52.5693ZM94.1863 42.1154C96.4398 42.1154 98.2739 43.9487 98.2739 46.2031C98.2739 48.4574 96.4398 50.2907 94.1863 50.2907C91.9327 50.2907 90.0987 48.4574 90.0987 46.2031C90.0987 43.9487 91.9327 42.1154 94.1863 42.1154Z" fill="white" stroke="white"/>
<path d="M75.3525 63.9336C75.3525 68.5018 79.0692 72.2186 83.6367 72.2186C88.205 72.2186 91.9217 68.5018 91.9217 63.9336C91.9217 59.3653 88.205 55.6486 83.6367 55.6486C79.0692 55.6486 75.3525 59.3653 75.3525 63.9336ZM83.6375 57.9272C86.9496 57.9272 89.6438 60.6214 89.6438 63.9336C89.6438 67.2457 86.9488 69.9399 83.6375 69.9399C80.3262 69.9399 77.6319 67.2457 77.6319 63.9336C77.6319 60.6214 80.3254 57.9272 83.6375 57.9272Z" fill="white" stroke="white"/>
<path d="M73.8002 50.3182V42.1364H74.3243V50.3182H73.8002ZM75.0626 44.9169C75.0413 44.6825 74.9465 44.5003 74.7782 44.3704C74.612 44.2383 74.3744 44.1722 74.0655 44.1722C73.8609 44.1722 73.6905 44.1989 73.5541 44.2521C73.4177 44.3054 73.3155 44.3789 73.2473 44.4726C73.1791 44.5643 73.1439 44.6697 73.1418 44.7891C73.1376 44.8871 73.1567 44.9734 73.1993 45.0479C73.2441 45.1225 73.308 45.1886 73.3911 45.2461C73.4763 45.3015 73.5786 45.3505 73.6979 45.3931C73.8172 45.4357 73.9515 45.473 74.1006 45.505L74.6631 45.6328C74.987 45.7031 75.2725 45.7969 75.5197 45.9141C75.7689 46.0312 75.9778 46.1708 76.1461 46.3327C76.3165 46.4947 76.4454 46.6811 76.5328 46.892C76.6202 47.103 76.6649 47.3395 76.667 47.6016C76.6649 48.0149 76.5605 48.3697 76.3538 48.6658C76.1471 48.962 75.8499 49.1889 75.4621 49.3466C75.0765 49.5043 74.6109 49.5831 74.0655 49.5831C73.5179 49.5831 73.0406 49.5011 72.6336 49.337C72.2267 49.1729 71.9103 48.9236 71.6844 48.5891C71.4586 48.2546 71.3425 47.8317 71.3361 47.3203H72.851C72.8638 47.5312 72.9202 47.707 73.0204 47.8476C73.1205 47.9883 73.2579 48.0948 73.4327 48.1672C73.6095 48.2397 73.814 48.2759 74.0463 48.2759C74.2594 48.2759 74.4405 48.2471 74.5896 48.1896C74.7409 48.1321 74.857 48.0522 74.938 47.9499C75.0189 47.8476 75.0605 47.7305 75.0626 47.5984C75.0605 47.4748 75.0221 47.3693 74.9476 47.2819C74.873 47.1925 74.7579 47.1158 74.6024 47.0518C74.449 46.9858 74.253 46.9251 74.0143 46.8697L73.3304 46.7099C72.7636 46.5799 72.3172 46.37 71.9912 46.0802C71.6652 45.7883 71.5033 45.3942 71.5054 44.8977C71.5033 44.4929 71.612 44.1381 71.8314 43.8334C72.0509 43.5288 72.3545 43.2912 72.7423 43.1207C73.1301 42.9503 73.5722 42.865 74.0687 42.865C74.5758 42.865 75.0157 42.9513 75.3886 43.1239C75.7636 43.2944 76.0545 43.5341 76.2611 43.843C76.4678 44.152 76.5733 44.5099 76.5775 44.9169H75.0626Z" fill="white"/>
<path d="M83.8002 68.3182V60.1364H84.3243V68.3182H83.8002ZM85.0626 62.9169C85.0413 62.6825 84.9465 62.5003 84.7782 62.3704C84.612 62.2383 84.3744 62.1722 84.0655 62.1722C83.8609 62.1722 83.6905 62.1989 83.5541 62.2521C83.4177 62.3054 83.3155 62.3789 83.2473 62.4726C83.1791 62.5643 83.1439 62.6697 83.1418 62.7891C83.1376 62.8871 83.1567 62.9734 83.1993 63.0479C83.2441 63.1225 83.308 63.1886 83.3911 63.2461C83.4763 63.3015 83.5786 63.3505 83.6979 63.3931C83.8172 63.4357 83.9515 63.473 84.1006 63.505L84.6631 63.6328C84.987 63.7031 85.2725 63.7969 85.5197 63.9141C85.7689 64.0312 85.9778 64.1708 86.1461 64.3327C86.3165 64.4947 86.4454 64.6811 86.5328 64.892C86.6202 65.103 86.6649 65.3395 86.667 65.6016C86.6649 66.0149 86.5605 66.3697 86.3538 66.6658C86.1471 66.962 85.8499 67.1889 85.4621 67.3466C85.0765 67.5043 84.6109 67.5831 84.0655 67.5831C83.5179 67.5831 83.0406 67.5011 82.6336 67.337C82.2267 67.1729 81.9103 66.9236 81.6844 66.5891C81.4586 66.2546 81.3425 65.8317 81.3361 65.3203H82.851C82.8638 65.5312 82.9202 65.707 83.0204 65.8476C83.1205 65.9883 83.2579 66.0948 83.4327 66.1672C83.6095 66.2397 83.814 66.2759 84.0463 66.2759C84.2594 66.2759 84.4405 66.2471 84.5896 66.1896C84.7409 66.1321 84.857 66.0522 84.938 65.9499C85.0189 65.8476 85.0605 65.7305 85.0626 65.5984C85.0605 65.4748 85.0221 65.3693 84.9476 65.2819C84.873 65.1925 84.7579 65.1158 84.6024 65.0518C84.449 64.9858 84.253 64.9251 84.0143 64.8697L83.3304 64.7099C82.7636 64.5799 82.3172 64.37 81.9912 64.0802C81.6652 63.7883 81.5033 63.3942 81.5054 62.8977C81.5033 62.4929 81.612 62.1381 81.8314 61.8334C82.0509 61.5288 82.3545 61.2912 82.7423 61.1207C83.1301 60.9503 83.5722 60.865 84.0687 60.865C84.5758 60.865 85.0157 60.9513 85.3886 61.1239C85.7636 61.2944 86.0545 61.5341 86.2611 61.843C86.4678 62.152 86.5733 62.5099 86.5775 62.9169H85.0626Z" fill="white"/>
<path d="M93.8668 49.0455V43.5909H94.2162V49.0455H93.8668ZM94.7084 45.4446C94.6942 45.2884 94.631 45.1669 94.5188 45.0803C94.408 44.9922 94.2496 44.9482 94.0436 44.9482C93.9073 44.9482 93.7936 44.9659 93.7027 45.0014C93.6118 45.0369 93.5436 45.0859 93.4982 45.1484C93.4527 45.2095 93.4293 45.2798 93.4279 45.3594C93.425 45.4247 93.4378 45.4822 93.4662 45.532C93.496 45.5817 93.5387 45.6257 93.5941 45.6641C93.6509 45.701 93.7191 45.7337 93.7986 45.7621C93.8781 45.7905 93.9676 45.8153 94.0671 45.8367L94.4421 45.9219C94.658 45.9688 94.8483 46.0313 95.0131 46.1094C95.1793 46.1875 95.3185 46.2805 95.4307 46.3885C95.5443 46.4965 95.6303 46.6207 95.6885 46.7614C95.7467 46.902 95.7766 47.0597 95.778 47.2344C95.7766 47.5099 95.707 47.7465 95.5692 47.9439C95.4314 48.1413 95.2333 48.2926 94.9747 48.3977C94.7176 48.5028 94.4073 48.5554 94.0436 48.5554C93.6786 48.5554 93.3604 48.5007 93.0891 48.3913C92.8178 48.282 92.6068 48.1158 92.4563 47.8928C92.3057 47.6697 92.2283 47.3878 92.224 47.0469H93.234C93.2425 47.1875 93.2801 47.3047 93.3469 47.3984C93.4137 47.4922 93.5053 47.5632 93.6217 47.6115C93.7396 47.6598 93.876 47.684 94.0308 47.684C94.1729 47.684 94.2936 47.6648 94.3931 47.6264C94.4939 47.5881 94.5713 47.5348 94.6253 47.4666C94.6793 47.3984 94.707 47.3203 94.7084 47.2322C94.707 47.1499 94.6814 47.0795 94.6317 47.0213C94.582 46.9617 94.5053 46.9105 94.4016 46.8679C94.2993 46.8239 94.1686 46.7834 94.0095 46.7465L93.5536 46.6399C93.1757 46.5533 92.8781 46.4134 92.6608 46.2202C92.4435 46.0256 92.3355 45.7628 92.3369 45.4318C92.3355 45.1619 92.408 44.9254 92.5543 44.7223C92.7006 44.5192 92.903 44.3608 93.1615 44.2472C93.42 44.1335 93.7148 44.0767 94.0458 44.0767C94.3838 44.0767 94.6771 44.1342 94.9257 44.2493C95.1757 44.3629 95.3696 44.5227 95.5074 44.7287C95.6452 44.9347 95.7155 45.1733 95.7183 45.4446H94.7084Z" fill="white"/>
</svg>
