<svg width="122" height="123" viewBox="0 0 122 123" fill="none" xmlns="http://www.w3.org/2000/svg">
<circle cx="61" cy="61.5" r="61" fill="#00BCD4"/>
<path d="M91.4798 87.7229V81.2229C91.4798 77.7751 89.8643 74.4685 86.9888 72.0305C84.1132 69.5925 80.2131 68.2229 76.1465 68.2229H45.4798C41.4132 68.2229 37.5131 69.5925 34.6375 72.0305C31.762 74.4685 30.1465 77.7751 30.1465 81.2229V87.7229" stroke="white" stroke-width="6" stroke-linecap="round" stroke-linejoin="round"/>
<path d="M60.8119 55.2229C69.2802 55.2229 76.1452 49.4026 76.1452 42.2229C76.1452 35.0432 69.2802 29.2229 60.8119 29.2229C52.3435 29.2229 45.4785 35.0432 45.4785 42.2229C45.4785 49.4026 52.3435 55.2229 60.8119 55.2229Z" stroke="white" stroke-width="6" stroke-linecap="round" stroke-linejoin="round"/>
</svg>
