<svg width="58" height="39" viewBox="0 0 58 39" fill="none" xmlns="http://www.w3.org/2000/svg">
<path d="M20.1905 0L13.3333 13.7143C13.3333 13.7143 18.5476 9.5 23.6191 13.7143C28.6905 17.9286 29.7381 28.5714 23.6191 34.2857C17.5 40 9.90481 40.9376 3.04763 34.2857C-3.80954 27.6339 3.04763 13.7143 3.04763 13.7143L9.90478 0H20.1905Z" fill="black"/>
<path d="M50.1428 0L43.2857 13.7143C43.2857 13.7143 48.5 9.5 53.5714 13.7143C58.6428 17.9286 59.6905 28.5714 53.5714 34.2857C47.4524 40 39.8572 40.9376 33 34.2857C26.1428 27.6339 33 13.7143 33 13.7143L39.8571 0H50.1428Z" fill="black"/>
</svg>
