<svg width="294" height="250" viewBox="0 0 294 250" fill="none" xmlns="http://www.w3.org/2000/svg">
<path d="M293.564 1C272.144 5.40567 228.287 29.511 224.229 90.6869C219.155 167.157 193.788 282.334 119.379 239.85C59.8517 205.864 15.6571 225.689 1.00073 239.85" stroke="#0FC0F8" stroke-width="2" stroke-dasharray="4 4"/>
<path d="M254.669 1C236.096 4.82401 198.07 25.7468 194.551 78.846C190.152 145.22 168.158 245.191 103.641 208.316C52.0278 178.817 13.7088 196.025 1.00098 208.316" stroke="#0FC0F8" stroke-width="2" stroke-dasharray="4 4"/>
<path d="M217.464 1C201.615 4.25377 169.166 22.0565 166.163 67.2374C162.41 123.713 143.641 208.776 88.5869 177.401C44.5435 152.3 11.8446 166.942 1.00054 177.401" stroke="#0FC0F8" stroke-width="2" stroke-dasharray="4 4"/>
</svg>
