<svg width="87" height="87" viewBox="0 0 87 87" fill="none" xmlns="http://www.w3.org/2000/svg">
<g filter="url(#filter0_d_38_621)">
<rect x="20" y="10" width="47" height="47" rx="15" fill="url(#paint0_linear_38_621)"/>
</g>
<path d="M44.787 41.2737L51.8078 34.253L54.8167 37.2618L47.7959 44.2826L44.787 41.2737Z" fill="white"/>
<path d="M35.0369 25.3815L38.2678 38.7664L45.79 40.2708L50.8048 35.256L49.3004 27.7338L35.9155 24.5029L42.8052 31.3926C42.8281 31.4155 42.8489 31.4398 42.8675 31.4652C43.1422 31.3238 43.4538 31.244 43.784 31.244C44.8919 31.244 45.79 32.1421 45.79 33.2499C45.79 34.3578 44.8919 35.2559 43.784 35.2559C42.6762 35.2559 41.7781 34.3578 41.7781 33.2499C41.7781 32.9198 41.8579 32.6082 41.9992 32.3335C41.9738 32.3149 41.9495 32.2941 41.9266 32.2712L35.0369 25.3815Z" fill="white"/>
<path d="M39.0796 21.5454H48.4546V15.5454H39.0796V21.5454ZM55.4546 28.5454V37.9204H61.4546V28.5454H55.4546ZM48.4546 44.9204H39.0796V50.9204H48.4546V44.9204ZM32.0796 37.9204V28.5454H26.0796V37.9204H32.0796ZM39.0796 44.9204C35.2136 44.9204 32.0796 41.7864 32.0796 37.9204H26.0796C26.0796 45.1001 31.8999 50.9204 39.0796 50.9204V44.9204ZM55.4546 37.9204C55.4546 41.7864 52.3206 44.9204 48.4546 44.9204V50.9204C55.6343 50.9204 61.4546 45.1001 61.4546 37.9204H55.4546ZM48.4546 21.5454C52.3206 21.5454 55.4546 24.6794 55.4546 28.5454H61.4546C61.4546 21.3657 55.6343 15.5454 48.4546 15.5454V21.5454ZM39.0796 15.5454C31.8999 15.5454 26.0796 21.3657 26.0796 28.5454H32.0796C32.0796 24.6794 35.2136 21.5454 39.0796 21.5454V15.5454Z" fill="white"/>
<defs>
<filter id="filter0_d_38_621" x="0" y="0" width="87" height="87" filterUnits="userSpaceOnUse" color-interpolation-filters="sRGB">
<feFlood flood-opacity="0" result="BackgroundImageFix"/>
<feColorMatrix in="SourceAlpha" type="matrix" values="0 0 0 0 0 0 0 0 0 0 0 0 0 0 0 0 0 0 127 0" result="hardAlpha"/>
<feMorphology radius="2" operator="erode" in="SourceAlpha" result="effect1_dropShadow_38_621"/>
<feOffset dy="10"/>
<feGaussianBlur stdDeviation="11"/>
<feColorMatrix type="matrix" values="0 0 0 0 0.427083 0 0 0 0 0.671455 0 0 0 0 1 0 0 0 0.36 0"/>
<feBlend mode="normal" in2="BackgroundImageFix" result="effect1_dropShadow_38_621"/>
<feBlend mode="normal" in="SourceGraphic" in2="effect1_dropShadow_38_621" result="shape"/>
</filter>
<linearGradient id="paint0_linear_38_621" x1="29.6136" y1="10" x2="52.0455" y2="57" gradientUnits="userSpaceOnUse">
<stop stop-color="#3AD0FF"/>
<stop offset="1" stop-color="#06AEE3"/>
</linearGradient>
</defs>
</svg>
